CourierBadi-BoldItalic.ufo
<glyph name="exclam" format="2">
  <advance width="1228"/>
  <unicode hex="0021"/>
  <outline>
    <contour>
      <point x="772.7589385190421" y="1303.0" type="line" smooth="yes"/>
      <point x="732.3502271356016" y="1301.3675567094"/>
      <point x="694.5059514897553" y="1266.5271358313391"/>
      <point x="689.1376964640522" y="1222.6371978136553" type="curve" smooth="yes"/>
      <point x="612.4780692385448" y="515.6700250707706" type="line" smooth="yes"/>
      <point x="610.4655248741451" y="470.5299051688361"/>
      <point x="651.4316159015945" y="431.6245401294484"/>
      <point x="695.8157190487277" y="430.0" type="curve" smooth="yes"/>
      <point x="740.3792845489662" y="431.3727381638813"/>
      <point x="782.5198944835788" y="462.78104959023926"/>
      <point x="794.2994392013827" y="503.89580702318756" type="curve" smooth="yes"/>
      <point x="967.9551483155228" y="1210.8654465783256" type="line" smooth="yes"/>
      <point x="978.0816554638261" y="1255.4834685958442"/>
      <point x="944.3521116543958" y="1300.96245198125"/>
      <point x="902.7589385190421" y="1303.0" type="curve" smooth="yes"/>
    </contour>
    <contour>
      <point x="492.01622140423717" y="212.90403804067563" type="curve" smooth="yes"/>
      <point x="464.86186637513356" y="58.90403804067563" type="line" smooth="yes"/>
      <point x="458.9628198090878" y="-4.9242456043541925"/>
      <point x="519.267128373929" y="-43.63484885889527"/>
      <point x="612.2367301929154" y="-44.0" type="curve" smooth="yes"/>
      <point x="704.9650955419459" y="-43.66960886505942"/>
      <point x="767.4328231294398" y="-12.634929452577648"/>
      <point x="781.8287935799638" y="47.09596195932437" type="curve" smooth="yes"/>
      <point x="808.9831486090674" y="201.09596195932437" type="line" smooth="yes"/>
      <point x="814.8821951751131" y="264.9242456043542"/>
      <point x="754.5778866102719" y="303.6348488588953"/>
      <point x="661.6082847912855" y="304.0" type="curve" smooth="yes"/>
      <point x="568.8799194422551" y="303.66960886505944"/>
      <point x="506.41219185476115" y="272.63492945257764"/>
    </contour>
  </outline>
</glyph>
<glyph name="numbersign" format="2">
  <advance width="1228"/>
  <unicode hex="0023"/>
  <outline>
    <contour>
      <point x="1132.4808791959372" y="1242.3336300922642"/>
      <point x="1090.3784718116656" y="1224.0053993615682"/>
      <point x="1072.1973758198546" y="1189.5962444944555" type="curve" smooth="yes"/>
      <point x="578.7721513175895" y="58.59759827489192" type="line" smooth="yes"/>
      <point x="558.8427441296725" y="-6.360017256407566"/>
      <point x="618.5707975076248" y="-54.32177767165155"/>
      <point x="668.1208064244138" y="-56.0" type="curve" smooth="yes"/>
      <point x="698.8192469050107" y="-55.33363009226419"/>
      <point x="740.9216542892823" y="-37.005399361568166"/>
      <point x="759.1027502810933" y="-2.5962444944555134" type="curve" smooth="yes"/>
      <point x="1252.5279747833583" y="1128.4024017251081" type="line" smooth="yes"/>
      <point x="1272.4573819712755" y="1193.3600172564077"/>
      <point x="1212.729328593323" y="1241.3217776716515"/>
      <point x="1163.179319676534" y="1243.0" type="curve" smooth="yes"/>
    </contour>
    <contour>
      <point x="206.93164281722932" y="510.0" type="line" smooth="yes"/>
      <point x="152.14294026605984" y="508.5604254020848"/>
      <point x="109.12881193546261" y="469.33392682387336"/>
      <point x="97.75263660380477" y="409.90403804067563" type="curve" smooth="yes"/>
      <point x="88.15899441843385" y="349.50188768894327"/>
      <point x="125.70325738872364" y="299.7734127740078"/>
      <point x="181.54055759521037" y="298.0" type="curve" smooth="yes"/>
      <point x="1093.5405575952104" y="298.0" type="line" smooth="yes"/>
      <point x="1148.32926014638" y="299.4395745979152"/>
      <point x="1191.343388476977" y="338.6660731761267"/>
      <point x="1202.7195638086348" y="398.09596195932437" type="curve" smooth="yes"/>
      <point x="1212.3132059940058" y="458.4981123110566"/>
      <point x="1174.7689430237162" y="508.22658722599215"/>
      <point x="1118.9316428172294" y="510.0" type="curve" smooth="yes"/>
    </contour>
    <contour>
      <point x="738.4808791959373" y="1242.3336300922642"/>
      <point x="696.3784718116656" y="1224.0053993615682"/>
      <point x="678.1973758198545" y="1189.5962444944555" type="curve" smooth="yes"/>
      <point x="184.77215131758953" y="58.59759827489192" type="line" smooth="yes"/>
      <point x="164.84274412967247" y="-6.360017256407554"/>
      <point x="224.57079750762477" y="-54.321777671651546"/>
      <point x="274.1208064244138" y="-56.0" type="curve" smooth="yes"/>
      <point x="304.8192469050107" y="-55.33363009226419"/>
      <point x="346.9216542892823" y="-37.005399361568166"/>
      <point x="365.1027502810933" y="-2.5962444944555134" type="curve" smooth="yes"/>
      <point x="858.5279747833584" y="1128.4024017251081" type="line" smooth="yes"/>
      <point x="878.4573819712754" y="1193.3600172564077"/>
      <point x="818.7293285933232" y="1241.3217776716515"/>
      <point x="769.1793196765342" y="1243.0" type="curve" smooth="yes"/>
    </contour>
    <contour>
      <point x="345.5228383128222" y="899.0" type="line" smooth="yes"/>
      <point x="290.73413576165274" y="897.5604254020848"/>
      <point x="247.7200074310555" y="858.3339268238733"/>
      <point x="236.34383209939764" y="798.9040380406757" type="curve" smooth="yes"/>
      <point x="226.75018991402675" y="738.5018876889433"/>
      <point x="264.2944528843165" y="688.7734127740079"/>
      <point x="320.1317530908033" y="687.0" type="curve" smooth="yes"/>
      <point x="1232.1317530908032" y="687.0" type="line" smooth="yes"/>
      <point x="1286.9204556419727" y="688.4395745979152"/>
      <point x="1329.93458397257" y="727.6660731761266"/>
      <point x="1341.3107593042278" y="787.0959619593244" type="curve" smooth="yes"/>
      <point x="1350.9044014895987" y="847.4981123110567"/>
      <point x="1313.360138519309" y="897.2265872259921"/>
      <point x="1257.5228383128222" y="899.0" type="curve" smooth="yes"/>
    </contour>
  </outline>
</glyph>
<glyph name="dollar" format="2">
  <advance width="1228"/>
  <unicode hex="0024"/>
  <outline>
    <contour>
      <point x="295.57567963640076" y="822.9040380406756" type="curve" smooth="yes"/>
      <point x="273.8196635226579" y="688.4942866641437"/>
      <point x="339.51107700085834" y="601.7989454553629"/>
      <point x="429.52719635372404" y="560.9525297586533" type="curve" smooth="yes"/>
      <point x="570.1374129892515" y="499.34695769035596"/>
      <point x="780.2380720441313" y="509.18140164482907"/>
      <point x="880.7184708921329" y="468.3594960440267" type="curve" smooth="yes"/>
      <point x="928.2642687917897" y="450.2790552750371"/>
      <point x="943.6072206286188" y="439.7175909857798"/>
      <point x="932.9314049124692" y="393.90403804067563" type="curve" smooth="yes"/>
      <point x="920.7949844865528" y="308.04774367163225"/>
      <point x="844.4652954214556" y="252.96463348410586"/>
      <point x="675.7919357558623" y="254.0" type="curve" smooth="yes"/>
      <point x="549.5880963566607" y="253.66001847134592"/>
      <point x="437.073787220867" y="287.0135681615101"/>
      <point x="347.4755542381647" y="345.4743264308603" type="curve" smooth="yes"/>
      <point x="310.6721794269013" y="367.893685864086"/>
      <point x="249.91673211924314" y="358.2375717585471"/>
      <point x="208.38436864088513" y="300.04774367163225" type="curve" smooth="yes"/>
      <point x="171.68649729456868" y="242.85282525687796"/>
      <point x="182.0419103674531" y="179.6313519766343"/>
      <point x="225.52452142158623" y="150.17934312209084" type="curve" smooth="yes"/>
      <point x="316.47335579973935" y="93.13096640961743"/>
      <point x="428.61212587420806" y="57.93760700546664"/>
      <point x="519.3735693115302" y="69.58967095606218" type="curve"/>
      <point x="476.30421948423054" y="-154.09596195932437" type="line" smooth="yes"/>
      <point x="468.036937215692" y="-210.9366247345819"/>
      <point x="510.0053233385205" y="-257.69735437154026"/>
      <point x="568.3264293405954" y="-259.0" type="curve" smooth="yes"/>
      <point x="625.8521117186286" y="-257.91371659337324"/>
      <point x="672.0944157764789" y="-221.1907549813908"/>
      <point x="683.2711466890607" y="-165.90403804067563" type="curve" smooth="yes"/>
      <point x="713.0783393409403" y="48.69397009039402" type="line"/>
      <point x="951.447609803686" y="52.78824783389908"/>
      <point x="1118.0929808105714" y="191.66341832999458"/>
      <point x="1153.8983321172993" y="382.09596195932437" type="curve" smooth="yes"/>
      <point x="1178.7443095962076" y="534.9947783461673"/>
      <point x="1102.028302132787" y="626.9161678968339"/>
      <point x="1001.3688619187536" y="669.469115424315" type="curve" smooth="yes"/>
      <point x="854.8916687011993" y="727.6981137881191"/>
      <point x="649.0286508625381" y="717.8274560966606"/>
      <point x="556.5313326930155" y="756.5413294984554" type="curve" smooth="yes"/>
      <point x="517.5717283327266" y="771.4867931493625"/>
      <point x="508.0083217597218" y="777.1646332189347"/>
      <point x="516.542606841231" y="811.0959619593244" type="curve" smooth="yes"/>
      <point x="528.4628447082883" y="898.894425794345"/>
      <point x="606.5578232529016" y="941.8692677665554"/>
      <point x="743.9188061907533" y="941.0" type="curve" smooth="yes"/>
      <point x="862.4635356603704" y="941.2931673914456"/>
      <point x="965.2908074416026" y="912.6509110251403"/>
      <point x="1054.5059997885783" y="859.7001223695296" type="curve" smooth="yes"/>
      <point x="1093.5238647549722" y="838.7783216149037"/>
      <point x="1154.0759969752644" y="850.6104978516432"/>
      <point x="1192.4334724986018" y="909.9322714666401" type="curve" smooth="yes"/>
      <point x="1227.918786452192" y="967.918620967092"/>
      <point x="1215.8316047153758" y="1030.997618330645"/>
      <point x="1171.5720962759995" y="1059.4706225500227" type="curve" smooth="yes"/>
      <point x="1086.0401847661471" y="1108.2115629982134"/>
      <point x="984.2158239346949" y="1137.7424754496706"/>
      <point x="907.6051745576698" y="1123.820781609855" type="curve"/>
      <point x="948.9959066167174" y="1341.0959619593243" type="line" smooth="yes"/>
      <point x="957.263188885256" y="1397.936624734582"/>
      <point x="915.2948027624275" y="1444.6973543715403"/>
      <point x="856.9736967603526" y="1446.0" type="curve" smooth="yes"/>
      <point x="799.4480143823193" y="1444.9137165933732"/>
      <point x="753.2057103244691" y="1408.190754981391"/>
      <point x="742.0289794118872" y="1352.9040380406757" type="curve" smooth="yes"/>
      <point x="712.0169907119708" y="1144.8683436514543" type="line"/>
      <point x="519.1959193259397" y="1143.4453660964637"/>
      <point x="334.09409269444774" y="1024.071276608741"/>
    </contour>
  </outline>
</glyph>
<glyph name="percent" format="2">
  <advance width="1228"/>
  <unicode hex="0025"/>
  <outline>
    <contour>
      <point x="640.9509355361181" y="257.90403804067563" type="curve" smooth="yes"/>
      <point x="615.0058135285205" y="92.05856198505751"/>
      <point x="734.2221251130634" y="-52.56189285994597"/>
      <point x="900.1208064244138" y="-56.0" type="curve" smooth="yes"/>
      <point x="1064.1793251403449" y="-53.39227753677129"/>
      <point x="1224.6379598342783" y="82.9752248476301"/>
      <point x="1255.917862740948" y="246.09596195932437" type="curve" smooth="yes"/>
      <point x="1281.8629847485458" y="411.9414380149425"/>
      <point x="1162.646673164003" y="556.5618928599459"/>
      <point x="996.7479918526526" y="560.0" type="curve" smooth="yes"/>
      <point x="832.6894731367214" y="557.3922775367713"/>
      <point x="672.2308384427882" y="421.0247751523699"/>
    </contour>
    <contour>
      <point x="181.38226335999968" y="940.9040380406757" type="curve" smooth="yes"/>
      <point x="155.43714135240208" y="775.0585619850575"/>
      <point x="274.6534529369449" y="630.4381071400541"/>
      <point x="440.5521342482954" y="627.0" type="curve" smooth="yes"/>
      <point x="604.6106529642266" y="629.6077224632287"/>
      <point x="765.0692876581597" y="765.9752248476301"/>
      <point x="796.3491905648299" y="929.0959619593244" type="curve" smooth="yes"/>
      <point x="822.2943125724273" y="1094.9414380149426"/>
      <point x="703.0780009878847" y="1239.561892859946"/>
      <point x="537.1793196765342" y="1243.0" type="curve" smooth="yes"/>
      <point x="373.12080096060305" y="1240.3922775367712"/>
      <point x="212.66216626666974" y="1104.02477515237"/>
    </contour>
    <contour>
      <point x="147.9280648115511" y="255.37920750468612" type="line" smooth="yes"/>
      <point x="102.74922924208254" y="217.04774367163222"/>
      <point x="95.40491389436268" y="155.62766597333905"/>
      <point x="126.79557154655589" y="113.11865212712864" type="curve" smooth="yes"/>
      <point x="160.3421935908314" y="72.45221311903092"/>
      <point x="222.0746204203451" y="66.49922513613103"/>
      <point x="269.19699428207934" y="102.62079249531386" type="curve" smooth="yes"/>
      <point x="1289.5483882701053" y="932.6207924953138" type="line" smooth="yes"/>
      <point x="1334.727223839574" y="970.9522563283679"/>
      <point x="1342.0715391872936" y="1032.372334026661"/>
      <point x="1310.6808815351005" y="1074.8813478728714" type="curve" smooth="yes"/>
      <point x="1277.1342594908251" y="1115.5477868809692"/>
      <point x="1215.4018326613113" y="1121.500774863869"/>
      <point x="1168.279458799577" y="1085.379207504686" type="curve" smooth="yes"/>
    </contour>
    <contour>
      <point x="1058.950935536118" y="257.90403804067563" type="curve" smooth="yes"/>
      <point x="1049.707829922782" y="191.0761692718945"/>
      <point x="988.9278066601814" y="139.36851079361406"/>
      <point x="923.0433139165142" y="142.0" type="curve" smooth="yes"/>
      <point x="859.0142349285072" y="138.5265707876379"/>
      <point x="823.2870320901515" y="182.01720722030893"/>
      <point x="837.9178627409483" y="246.09596195932437" type="curve" smooth="yes"/>
      <point x="847.1609683542845" y="312.9238307281055"/>
      <point x="907.9409916168848" y="364.63148920638594"/>
      <point x="973.8254843605521" y="362.0" type="curve" smooth="yes"/>
      <point x="1037.8545633485592" y="365.47342921236213"/>
      <point x="1073.5817661869148" y="321.98279277969107"/>
    </contour>
    <contour>
      <point x="599.3822633599997" y="940.9040380406757" type="curve" smooth="yes"/>
      <point x="590.1391577466635" y="874.0761692718945"/>
      <point x="529.359134484063" y="822.3685107936141"/>
      <point x="463.4746417403958" y="825.0" type="curve" smooth="yes"/>
      <point x="399.44556275238875" y="821.5265707876379"/>
      <point x="363.71835991403304" y="865.0172072203089"/>
      <point x="378.3491905648299" y="929.0959619593243" type="curve" smooth="yes"/>
      <point x="387.59229617816607" y="995.9238307281055"/>
      <point x="448.37231944076643" y="1047.631489206386"/>
      <point x="514.2568121844337" y="1045.0" type="curve" smooth="yes"/>
      <point x="578.2858911724406" y="1048.4734292123621"/>
      <point x="614.0130940107965" y="1004.9827927796911"/>
    </contour>
  </outline>
</glyph>
<glyph name="ampersand" format="2">
  <advance width="1228"/>
  <unicode hex="0026"/>
  <outline>
    <contour>
      <point x="392.7373586493727" y="925.9040380406757" type="curve" smooth="yes"/>
      <point x="373.686968403316" y="814.7176278748262"/>
      <point x="395.8221615084451" y="722.514699690143"/>
      <point x="442.68113073235816" y="677.7615998619141" type="curve"/>
      <point x="319.03207784131735" y="603.0471362059056"/>
      <point x="209.84309694014243" y="487.5797701847275"/>
      <point x="179.94117022429373" y="325.90403804067563" type="curve" smooth="yes"/>
      <point x="147.6844093784494" y="129.11723975311344"/>
      <point x="269.4793404864526" y="-52.68594914920381"/>
      <point x="512.1208064244138" y="-56.0" type="curve" smooth="yes"/>
      <point x="648.992049802519" y="-55.01230422169767"/>
      <point x="775.8046714622434" y="10.57367993602173"/>
      <point x="851.7394704617918" y="102.44021997581461" type="curve"/>
      <point x="927.3688031113697" y="-16.21671349880586" type="line" smooth="yes"/>
      <point x="958.3839354240232" y="-53.21966799848797"/>
      <point x="1012.3567154573035" y="-56.309167951459216"/>
      <point x="1064.4479846798001" y="-30.287947591949237" type="curve" smooth="yes"/>
      <point x="1123.977583004094" y="1.262559987880799"/>
      <point x="1147.1840956943713" y="62.81602804156113"/>
      <point x="1116.2465502820532" y="110.16167626948678" type="curve" smooth="yes"/>
      <point x="998.0077425153877" y="265.2024712416819" type="line"/>
      <point x="1065.249216171118" y="336.3137721479588"/>
      <point x="1131.0767529640266" y="453.66608660381644"/>
      <point x="1188.076678521278" y="576.7451206679842" type="curve" smooth="yes"/>
      <point x="1211.3449890491486" y="628.9148880344183"/>
      <point x="1192.225591188164" y="693.3609765294483"/>
      <point x="1121.8151385364076" y="706.6081472581374" type="curve" smooth="yes"/>
      <point x="1064.0786738624647" y="715.0"/>
      <point x="1013.8332948609979" y="695.1035067960665"/>
      <point x="987.760371033855" y="642.024084739028" type="curve" smooth="yes"/>
      <point x="947.73942796208" y="552.3749211666285"/>
      <point x="903.0599526181819" y="466.3903519602487"/>
      <point x="903.0359615297276" y="398.10936506326215" type="curve"/>
      <point x="667.6569551847767" y="719.124589386773" type="line" smooth="yes"/>
      <point x="619.1588489322523" y="785.7930144722013"/>
      <point x="598.6387123798022" y="834.1067866524407"/>
      <point x="613.7042858542029" y="914.0959619593243" type="curve" smooth="yes"/>
      <point x="629.1870343496851" y="1011.8562654746003"/>
      <point x="702.1397882511528" y="1089.7851970303298"/>
      <point x="814.6625453741892" y="1087.0" type="curve" smooth="yes"/>
      <point x="893.0874280556094" y="1087.460201746521"/>
      <point x="955.017568152845" y="1065.032332096852"/>
      <point x="1010.8016158351107" y="1022.7563828529792" type="curve" smooth="yes"/>
      <point x="1045.9816074189253" y="998.7647513086907"/>
      <point x="1108.1638335813554" y="1003.7780619635365"/>
      <point x="1151.3196571080837" y="1061.2985960694023" type="curve" smooth="yes"/>
      <point x="1191.1247631740443" y="1119.2593420684054"/>
      <point x="1183.0834116238902" y="1179.932932143589"/>
      <point x="1142.9128702397484" y="1209.8562234653853" type="curve" smooth="yes"/>
      <point x="1062.3821115199573" y="1266.2910179336347"/>
      <point x="958.1578928947373" y="1302.5686057447901"/>
      <point x="841.7589385190421" y="1303.0" type="curve" smooth="yes"/>
      <point x="612.0882045617038" y="1300.5507923986443"/>
      <point x="431.22821743975805" y="1132.8118510171264"/>
    </contour>
    <contour>
      <point x="746.5067037659999" y="230.96021533979336" type="line"/>
      <point x="685.1755948269098" y="198.26453164537247"/>
      <point x="617.0773705271835" y="158.820110433514"/>
      <point x="538.2171995692665" y="160.0" type="curve" smooth="yes"/>
      <point x="431.05725959928986" y="157.48226260015946"/>
      <point x="379.86206422149576" y="212.61152872749994"/>
      <point x="400.90809742912387" y="314.09596195932437" type="curve" smooth="yes"/>
      <point x="415.5667212079861" y="403.61094368844704"/>
      <point x="465.4823891890462" y="459.9720798360238"/>
      <point x="528.917431374107" y="527.2371830731607" type="curve"/>
    </contour>
  </outline>
</glyph>
<glyph name="quotesingle" format="2">
  <advance width="1228"/>
  <unicode hex="0027"/>
  <outline>
    <contour>
      <point x="755.7589385190421" y="1303.0" type="line" smooth="yes"/>
      <point x="715.548798786892" y="1301.430742308032"/>
      <point x="676.5059514897553" y="1266.5271358313391"/>
      <point x="671.9932994948202" y="1220.8562621734177" type="curve" smooth="yes"/>
      <point x="647.6456940698256" y="770.8477545535368" type="line" smooth="yes"/>
      <point x="647.6174026388356" y="723.4634361739592"/>
      <point x="690.3978960669557" y="682.7195839096158"/>
      <point x="740.0737912065524" y="681.0" type="curve" smooth="yes"/>
      <point x="789.7293044000221" y="682.3998302923017"/>
      <point x="835.5216623094443" y="715.5989884826365"/>
      <point x="850.177390929255" y="759.283158656518" type="curve" smooth="yes"/>
      <point x="984.5267743116269" y="1209.2906797820751" type="line" smooth="yes"/>
      <point x="996.0816554638261" y="1255.4834685958442"/>
      <point x="961.109228407726" y="1301.0495073198144"/>
      <point x="919.7589385190421" y="1303.0" type="curve" smooth="yes"/>
    </contour>
  </outline>
</glyph>
<glyph name="parenleft" format="2">
  <advance width="1228"/>
  <unicode hex="0028"/>
  <outline>
    <contour>
      <point x="354.6775854238613" y="522.9040380406757" type="curve" smooth="yes"/>
      <point x="280.0606073693166" y="88.27259486164792"/>
      <point x="486.226838862424" y="-226.06643334362175"/>
      <point x="692.7107713769724" y="-365.2848890378821" type="curve" smooth="yes"/>
      <point x="739.8530084103795" y="-387.92395265717386"/>
      <point x="793.9557585625943" y="-358.3367569573068"/>
      <point x="821.4297717292687" y="-323.8496948527537" type="curve" smooth="yes"/>
      <point x="847.7964486955428" y="-289.12367019278946"/>
      <point x="865.6091183600824" y="-231.0254347165207"/>
      <point x="833.4990792652463" y="-192.7186014029129" type="curve" smooth="yes"/>
      <point x="662.9571861675125" y="-66.76986405806375"/>
      <point x="504.27391308851145" y="151.63271141595152"/>
      <point x="569.6445126286915" y="511.09596195932437" type="curve" smooth="yes"/>
      <point x="631.7636082690913" y="872.3522935015593"/>
      <point x="873.8660771968924" y="1101.2363894480004"/>
      <point x="1091.079441107191" y="1228.706844322733" type="curve" smooth="yes"/>
      <point x="1128.4031462370751" y="1258.2944295017014"/>
      <point x="1130.5914218494293" y="1317.2171034281073"/>
      <point x="1115.7606670677492" y="1354.2635863187265" type="curve" smooth="yes"/>
      <point x="1098.7505853514124" y="1391.6557508014046"/>
      <point x="1047.7746583046678" y="1425.920240835779"/>
      <point x="997.2943450214559" y="1404.9166807296458" type="curve" smooth="yes"/>
      <point x="744.7468618840832" y="1267.6804740861626"/>
      <point x="432.60213854614045" y="955.724678406835"/>
    </contour>
  </outline>
</glyph>
<glyph name="parenright" format="2">
  <advance width="1228"/>
  <unicode hex="0029"/>
  <outline>
    <contour>
      <point x="589.597634246118" y="1361.8496948527538" type="curve" smooth="yes"/>
      <point x="563.2309572798439" y="1327.1236701927894"/>
      <point x="545.4182876153042" y="1269.0254347165207"/>
      <point x="577.5283267101403" y="1230.718601402913" type="curve" smooth="yes"/>
      <point x="747.920938650657" y="1104.930439112268"/>
      <point x="906.0359127622165" y="882.4408355694684"/>
      <point x="840.6775854238613" y="522.9040380406757" type="curve" smooth="yes"/>
      <point x="778.5863126061988" y="161.7012618040256"/>
      <point x="537.2832178945554" y="-63.14133588951839"/>
      <point x="319.94796486819536" y="-190.70684432273308" type="curve" smooth="yes"/>
      <point x="282.6242597383114" y="-220.29442950170144"/>
      <point x="280.4359841259575" y="-279.21710342810746"/>
      <point x="295.2667389076376" y="-316.26358631872654" type="curve" smooth="yes"/>
      <point x="312.2768206239743" y="-353.65575080140445"/>
      <point x="363.25274767071863" y="-387.92024083577905"/>
      <point x="413.73306095393065" y="-366.91668072964586" type="curve" smooth="yes"/>
      <point x="666.1772280322543" y="-229.7617596367562"/>
      <point x="977.696230764119" y="78.22991552285669"/>
      <point x="1055.6445126286915" y="511.09596195932437" type="curve" smooth="yes"/>
      <point x="1130.2721112297327" y="945.664907774716"/>
      <point x="924.9267304297128" y="1263.9290561847633"/>
      <point x="718.3166345984142" y="1403.284889037882" type="curve" smooth="yes"/>
      <point x="671.1743975650071" y="1425.923952657174"/>
      <point x="617.0716474127925" y="1396.3367569573068"/>
    </contour>
  </outline>
</glyph>
<glyph name="asterisk" format="2">
  <advance width="1228"/>
  <unicode hex="002A"/>
  <outline>
    <contour>
      <point x="1291.6438048712398" y="692.9718321728881"/>
      <point x="1283.5430862073113" y="769.8455369005088" type="curve" smooth="yes"/>
      <point x="1269.086590301189" y="846.8920043826263"/>
      <point x="1196.8253936135511" y="881.9574791098285"/>
      <point x="1127.0976197643406" y="855.3348134939787" type="curve" smooth="yes"/>
      <point x="630.7135199173847" y="645.5001382719004" type="line"/>
      <point x="660.6643111318194" y="514.06108253247" type="line"/>
      <point x="1170.6863193192962" y="613.6472861164973" type="line" smooth="yes"/>
      <point x="1241.2416173174568" y="630.4780682989458"/>
    </contour>
    <contour>
      <point x="249.11148523428898" y="191.7501700142284"/>
      <point x="305.8515588494875" y="140.7387367375102" type="curve" smooth="yes"/>
      <point x="367.4642267448112" y="94.98032685794499"/>
      <point x="445.3738749330055" y="115.62099318436432"/>
      <point x="492.3987514619713" y="173.58842806928686" type="curve" smooth="yes"/>
      <point x="823.2913127724189" y="617.0958707172455" type="line"/>
      <point x="722.558814108096" y="705.502086544737" type="line"/>
      <point x="308.46844026834844" y="322.9690222434729" type="line" smooth="yes"/>
      <point x="254.27318088176415" y="270.879909558069"/>
    </contour>
    <contour>
      <point x="892.6643384056986" y="1158.439739744967"/>
      <point x="812.72050725844" y="1161.0" type="curve" smooth="yes"/>
      <point x="734.3136387080433" y="1159.0294138234526"/>
      <point x="674.9496104086338" y="1102.8067300841712"/>
      <point x="668.6790377843811" y="1032.0564449291219" type="curve" smooth="yes"/>
      <point x="638.6271658313834" y="533.1949955624028" type="line"/>
      <point x="774.6610618944221" y="522.373190199492" type="line"/>
      <point x="921.2533431010016" y="1020.4681895658453" type="line" smooth="yes"/>
      <point x="938.8779822382656" y="1092.105252144563"/>
    </contour>
    <contour>
      <point x="254.78853255278509" y="852.6917060866858"/>
      <point x="217.43879300470007" y="780.1233412787938" type="curve" smooth="yes"/>
      <point x="181.8441534284103" y="705.0237823524934"/>
      <point x="215.59263418140634" y="632.3481273212424"/>
      <point x="284.01882834045847" y="613.7420743916261" type="curve" smooth="yes"/>
      <point x="760.5461697590323" y="514.0637454367086" type="line"/>
      <point x="816.449678401993" y="643.6166893615817" type="line"/>
      <point x="393.39207388224764" y="854.463601501552" type="line" smooth="yes"/>
      <point x="330.23822269301917" y="881.9568229682899"/>
    </contour>
    <contour>
      <point x="904.8194854168441" y="93.82086295715985"/>
      <point x="977.82803037816" y="138.39714647661594" type="curve" smooth="yes"/>
      <point x="1046.3189566453286" y="184.08587550414487"/>
      <point x="1066.0276175745507" y="261.14596903225316"/>
      <point x="1028.015515740797" y="318.0348434631168" type="curve" smooth="yes"/>
      <point x="747.3155280453324" y="702.314297867955" type="line"/>
      <point x="623.6024302487855" y="626.6176872395815" type="line"/>
      <point x="799.6176081104063" y="181.42689839379116" type="line" smooth="yes"/>
      <point x="828.0266595713988" y="119.10573535899007"/>
    </contour>
  </outline>
</glyph>
<glyph name="plus" format="2">
  <advance width="1228"/>
  <unicode hex="002B"/>
  <outline>
    <contour>
      <point x="348.3178453833361" y="688.0" type="line" smooth="yes"/>
      <point x="293.5291428321666" y="686.5604254020848"/>
      <point x="250.51501450156937" y="647.3339268238733"/>
      <point x="239.13883916991156" y="587.9040380406756" type="curve" smooth="yes"/>
      <point x="229.54519698454067" y="527.5018876889433"/>
      <point x="267.0894599548304" y="477.77341277400785"/>
      <point x="322.92676016131713" y="476.0" type="curve" smooth="yes"/>
      <point x="605.6829816801928" y="488.3837077408341" type="line"/>
      <point x="543.9582595199863" y="206.90403804067563" type="line" smooth="yes"/>
      <point x="535.8406494580789" y="151.24855434289898"/>
      <point x="577.7304824482026" y="105.10631413591395"/>
      <point x="638.3331233377681" y="104.0" type="curve" smooth="yes"/>
      <point x="698.2504462384485" y="104.93467075490761"/>
      <point x="743.9929159496613" y="140.946446370421"/>
      <point x="754.9251867248165" y="195.09596195932437" type="curve" smooth="yes"/>
      <point x="797.9483669841288" y="484.095389735773" type="line"/>
      <point x="1084.9267601613171" y="476.0" type="line" smooth="yes"/>
      <point x="1139.7154627124867" y="477.4395745979152"/>
      <point x="1182.7295910430837" y="516.6660731761267"/>
      <point x="1194.1057663747415" y="576.0959619593244" type="curve" smooth="yes"/>
      <point x="1203.6994085601125" y="636.4981123110566"/>
      <point x="1166.155145589823" y="686.2265872259921"/>
      <point x="1110.3178453833361" y="688.0" type="curve" smooth="yes"/>
      <point x="827.5616238644604" y="675.6162922591659" type="line"/>
      <point x="889.2863460246668" y="957.0959619593244" type="line" smooth="yes"/>
      <point x="897.4039560865742" y="1012.751445657101"/>
      <point x="855.5141230964506" y="1058.8936858640861"/>
      <point x="794.911482206885" y="1060.0" type="curve" smooth="yes"/>
      <point x="734.9941593062047" y="1059.0653292450925"/>
      <point x="689.2516895949918" y="1023.053553629579"/>
      <point x="678.3194188198366" y="968.9040380406756" type="curve" smooth="yes"/>
      <point x="635.2962385605244" y="679.904610264227" type="line"/>
    </contour>
  </outline>
</glyph>
<glyph name="comma" format="2">
  <advance width="1228"/>
  <unicode hex="002C"/>
  <outline>
    <contour>
      <point x="571.8401323282887" y="328.0" type="line" smooth="yes"/>
      <point x="534.5814996573487" y="326.71509928251174"/>
      <point x="495.51470771443655" y="300.84969485275377"/>
      <point x="480.912308703334" y="265.83218786405934" type="curve" smooth="yes"/>
      <point x="301.9203604589118" y="-216.1741273263377" type="line" smooth="yes"/>
      <point x="284.41347516040855" y="-271.2162249872869"/>
      <point x="325.6408923226" y="-326.33189072115624"/>
      <point x="392.1598676717113" y="-328.0" type="curve" smooth="yes"/>
      <point x="443.8710590315595" y="-327.5168956386357"/>
      <point x="490.7408124181223" y="-306.6751654308037"/>
      <point x="514.3657841556153" y="-270.7865638134832" type="curve" smooth="yes"/>
      <point x="811.709598538434" y="213.21597089514705" type="line" smooth="yes"/>
      <point x="836.8432326608053" y="257.57743813710357"/>
      <point x="818.9872985081032" y="321.38780193668237"/>
      <point x="765.8401323282887" y="328.0" type="curve" smooth="yes"/>
    </contour>
  </outline>
</glyph>
<glyph name="slash" format="2">
  <advance width="1228"/>
  <unicode hex="002F"/>
  <outline>
    <contour>
      <point x="1083.1123103413152" y="1375.1808112488386" type="curve" smooth="yes"/>
      <point x="121.40118382461938" y="-267.82926340713834" type="line" smooth="yes"/>
      <point x="94.32292343474919" y="-331.5106976922234"/>
      <point x="154.6080515840187" y="-387.5582696985198"/>
      <point x="227.40392184849492" y="-389.0" type="curve" smooth="yes"/>
      <point x="267.8291004944891" y="-387.9395865909559"/>
      <point x="308.9996226964257" y="-365.0850743802748"/>
      <point x="328.09142261478" y="-336.1808112488386" type="curve" smooth="yes"/>
      <point x="1289.8025491314759" y="1306.8292634071383" type="line" smooth="yes"/>
      <point x="1316.8808095213458" y="1370.5106976922234"/>
      <point x="1256.5956813720763" y="1426.5582696985198"/>
      <point x="1183.7998111076001" y="1428.0" type="curve" smooth="yes"/>
      <point x="1143.3746324616059" y="1426.939586590956"/>
      <point x="1102.2041102596695" y="1404.0850743802748"/>
    </contour>
  </outline>
</glyph>
<glyph name="zero" format="2">
  <advance width="1228"/>
  <unicode hex="0030"/>
  <outline>
    <contour>
      <point x="551.3433158066927" y="1239.0868905245186"/>
      <point x="328.71159220790037" y="976.759784620661"/>
      <point x="261.07843595770464" y="598.9040380406757" type="curve" smooth="yes"/>
      <point x="195.45881460492754" y="219.94090833102837"/>
      <point x="331.7244197515146" y="-50.59323272001921"/>
      <point x="610.1208064244138" y="-56.0" type="curve" smooth="yes"/>
      <point x="885.9110075721858" y="-52.11095394890204"/>
      <point x="1108.4072246422654" y="209.2289630603379"/>
      <point x="1176.0453631625346" y="587.0959619593244" type="curve" smooth="yes"/>
      <point x="1241.6662950059329" y="966.0445505723158"/>
      <point x="1105.6347452044226" y="1237.5551618553382"/>
      <point x="827.1793196765342" y="1243.0" type="curve" smooth="yes"/>
    </contour>
    <contour>
      <point x="338.2805627270419" y="370.5995574510887" type="line"/>
      <point x="430.8503577159362" y="190.96387271420906" type="line"/>
      <point x="1090.43262054753" y="807.4004425489113" type="line"/>
      <point x="1010.978749327137" y="999.0361272857909" type="line"/>
    </contour>
    <contour>
      <point x="938.4316680706573" y="1033.2542248099276"/>
      <point x="1007.1792150071221" y="888.7903965794652"/>
      <point x="955.0784359577046" y="598.9040380406757" type="curve" smooth="yes"/>
      <point x="904.650029604676" y="308.1204835125799"/>
      <point x="776.5210883396776" y="155.61823542699992"/>
      <point x="636.2171995692665" y="160.0" type="curve" smooth="yes"/>
      <point x="498.78164090061415" y="153.80706089093667"/>
      <point x="429.9434420489758" y="297.22707030899187"/>
      <point x="482.04536316253484" y="587.0959619593243" type="curve" smooth="yes"/>
      <point x="532.4795410230141" y="877.8933226511024"/>
      <point x="660.8463865618448" y="1031.4198308352181"/>
      <point x="801.0829265316813" y="1027.0" type="curve" smooth="yes"/>
    </contour>
  </outline>
</glyph>
<glyph name="one" format="2">
  <advance width="1228"/>
  <unicode hex="0031"/>
  <outline>
    <contour>
      <point x="405.2029416634512" y="997.7381516521533" type="line" smooth="yes"/>
      <point x="364.32006118188775" y="973.8917621642379"/>
      <point x="335.3424370340072" y="915.4700724107455"/>
      <point x="355.8336533813589" y="857.3792498263529" type="curve" smooth="yes"/>
      <point x="383.24928941368853" y="797.8392566746942"/>
      <point x="447.635984997573" y="790.0845220954681"/>
      <point x="484.5593547186052" y="809.3395589407683" type="curve" smooth="yes"/>
      <point x="710.8181970065402" y="987.9137433736139" type="line"/>
      <point x="563.89320489932" y="159.02928128096377" type="line"/>
      <point x="325.39108522201894" y="178.0" type="line" smooth="yes"/>
      <point x="270.60238267084947" y="176.56042540208477"/>
      <point x="227.58825434025223" y="137.33392682387333"/>
      <point x="216.2120790085944" y="77.90403804067563" type="curve" smooth="yes"/>
      <point x="206.6184368232235" y="17.50188768894329"/>
      <point x="244.16269979351327" y="-32.22658722599218"/>
      <point x="300.0" y="-34.0" type="curve" smooth="yes"/>
      <point x="974.0" y="-34.0" type="line" smooth="yes"/>
      <point x="1028.7887025511695" y="-32.56042540208479"/>
      <point x="1071.8028308817666" y="6.6660731761266945"/>
      <point x="1083.1790062134244" y="66.09596195932438" type="curve" smooth="yes"/>
      <point x="1092.7726483987954" y="126.49811231105664"/>
      <point x="1055.2283854285058" y="176.22658722599218"/>
      <point x="999.391085222019" y="178.0" type="curve" smooth="yes"/>
      <point x="778.2948462260158" y="146.55636260805585" type="line"/>
      <point x="956.493780282109" y="1151.0959619593243" type="line" smooth="yes"/>
      <point x="961.8808459893332" y="1228.1651883678064"/>
      <point x="879.827998078978" y="1257.7643328868464"/>
      <point x="823.1171320138732" y="1229.7416594625195" type="curve" smooth="yes"/>
    </contour>
  </outline>
</glyph>
<glyph name="two" format="2">
  <advance width="1228"/>
  <unicode hex="0032"/>
  <outline>
    <contour>
      <point x="415.98675054400655" y="1123.7872385890714" type="curve" smooth="yes"/>
      <point x="373.371457983397" y="1095.4163399743948"/>
      <point x="349.8246111072747" y="1039.5018876889433"/>
      <point x="372.538180924196" y="982.2226078773921" type="curve" smooth="yes"/>
      <point x="401.45301212468763" y="925.0130798063595"/>
      <point x="466.2863819693892" y="913.0747566222684"/>
      <point x="508.721529190448" y="938.2898225692697" type="curve" smooth="yes"/>
      <point x="598.4586166376365" y="995.2692193419424"/>
      <point x="695.1143306327251" y="1027.5392444112522"/>
      <point x="778.0829265316813" y="1027.0" type="curve" smooth="yes"/>
      <point x="914.172169883458" y="1029.154531310298"/>
      <point x="958.7688548792516" y="973.7038022790388"/>
      <point x="936.9814128261563" y="864.9040380406757" type="curve" smooth="yes"/>
      <point x="922.2025060415716" y="774.3871611974616"/>
      <point x="866.6428603957531" y="711.5772764918839"/>
      <point x="729.9775605372365" y="593.772421846609" type="curve" smooth="yes"/>
      <point x="211.32302627454723" y="147.76148779687114" type="line" smooth="yes"/>
      <point x="193.8759860757117" y="130.72091478103155"/>
      <point x="180.94298813641723" y="103.5482469170876"/>
      <point x="175.50677108576056" y="73.90403804067563" type="curve" smooth="yes"/>
      <point x="166.3058969302536" y="15.006784355798057"/>
      <point x="205.2041297355238" y="-32.55826969851977"/>
      <point x="260.0" y="-34.0" type="curve" smooth="yes"/>
      <point x="954.0" y="-34.0" type="line" smooth="yes"/>
      <point x="1008.7887025511694" y="-32.56042540208479"/>
      <point x="1051.8028308817668" y="6.6660731761266945"/>
      <point x="1063.1790062134244" y="66.09596195932441" type="curve" smooth="yes"/>
      <point x="1072.7726483987954" y="126.49811231105664"/>
      <point x="1035.2283854285058" y="176.22658722599218"/>
      <point x="979.391085222019" y="178.0" type="curve" smooth="yes"/>
      <point x="498.06455347201677" y="156.0559713660768" type="line"/>
      <point x="875.2915266257154" y="451.2339408044466" type="line" smooth="yes"/>
      <point x="1028.8068306881892" y="583.5247318074751"/>
      <point x="1129.6073309917708" y="699.4087669054659"/>
      <point x="1157.9483400309864" y="853.0959619593244" type="curve" smooth="yes"/>
      <point x="1196.4005004126318" y="1088.315833835372"/>
      <point x="1047.6413820951227" y="1241.0097036086306"/>
      <point x="803.1793196765342" y="1243.0" type="curve" smooth="yes"/>
      <point x="678.5383228792554" y="1242.5287809968256"/>
      <point x="533.4954069938947" y="1196.9376430214852"/>
    </contour>
  </outline>
</glyph>
<glyph name="three" format="2">
  <advance width="1228"/>
  <unicode hex="0033"/>
  <outline>
    <contour>
      <point x="427.17236009457565" y="1142.9574272396499" type="curve" smooth="yes"/>
      <point x="383.3510760458929" y="1117.6909183948017"/>
      <point x="356.4386996650626" y="1062.5394633952226"/>
      <point x="375.8600885344438" y="1002.332705454367" type="curve" smooth="yes"/>
      <point x="400.99238918275023" y="943.442082151242"/>
      <point x="464.0181535372307" y="929.7744095201101"/>
      <point x="506.28672570296436" y="951.167378891989" type="curve" smooth="yes"/>
      <point x="601.627409536884" y="1003.6371275884426"/>
      <point x="685.9546077937295" y="1027.3508288113808"/>
      <point x="768.0829265316813" y="1027.0" type="curve" smooth="yes"/>
      <point x="902.49723776356" y="1028.6898902306962"/>
      <point x="948.9049612131561" y="982.1762966875971"/>
      <point x="928.5079524403257" y="884.9040380406757" type="curve" smooth="yes"/>
      <point x="911.2802845325045" y="774.4185071511905"/>
      <point x="840.951957483159" y="723.8171928355517"/>
      <point x="696.8419436695493" y="725.0" type="curve" smooth="yes"/>
      <point x="641.8419436695493" y="725.0" type="line" smooth="yes"/>
      <point x="587.9178378553387" y="723.8079309834798"/>
      <point x="544.5592031636878" y="686.7200273224285"/>
      <point x="533.3682453789586" y="628.9040380406757" type="curve" smooth="yes"/>
      <point x="524.1673712234516" y="570.006784355798"/>
      <point x="563.0656040287219" y="522.4417303014802"/>
      <point x="617.8614742931981" y="521.0" type="curve" smooth="yes"/>
      <point x="690.8614742931981" y="521.0" type="line" smooth="yes"/>
      <point x="836.1598927590339" y="522.4135102268446"/>
      <point x="896.6084256073764" y="474.8078199814569"/>
      <point x="871.3493447420053" y="350.90403804067563" type="curve" smooth="yes"/>
      <point x="852.0648442628799" y="229.91669569225837"/>
      <point x="768.836311848057" y="158.376491009985"/>
      <point x="610.2171995692665" y="160.0" type="curve" smooth="yes"/>
      <point x="511.0223707988247" y="159.3120045109326"/>
      <point x="422.36304465641496" y="197.00497250245172"/>
      <point x="353.2261741818579" y="257.649421647458" type="curve" smooth="yes"/>
      <point x="315.0551914773219" y="286.7124076004486"/>
      <point x="251.25149734927018" y="276.7438893332289"/>
      <point x="207.19161441022834" y="224.1729312598101" type="curve" smooth="yes"/>
      <point x="166.40704470363158" y="170.33392682387333"/>
      <point x="172.20351418289323" y="109.56603378431605"/>
      <point x="207.54399233612895" y="77.90362154063398" type="curve" smooth="yes"/>
      <point x="303.1421409946059" y="-1.562264614076465"/>
      <point x="444.79813237485206" y="-55.406942285444174"/>
      <point x="584.1208064244138" y="-56.0" type="curve" smooth="yes"/>
      <point x="857.1715841116302" y="-54.15400927579205"/>
      <point x="1049.9860609779826" y="110.9504621934355"/>
      <point x="1092.3162719468353" y="339.09596195932437" type="curve" smooth="yes"/>
      <point x="1117.0693516602128" y="488.29920899124863"/>
      <point x="1051.3097496947353" y="607.3235019723355"/>
      <point x="953.1502265598174" y="633.7586438968669" type="curve"/>
      <point x="1040.8444985796223" y="651.5911179421754"/>
      <point x="1125.7041363200617" y="745.3788427735798"/>
      <point x="1149.4748796451556" y="873.0959619593244" type="curve" smooth="yes"/>
      <point x="1184.1890227583397" y="1089.1132919424815"/>
      <point x="1035.6980443121356" y="1240.9893573359827"/>
      <point x="793.1793196765342" y="1243.0" type="curve" smooth="yes"/>
      <point x="674.3876388038316" y="1242.6606564762806"/>
      <point x="548.5460101275346" y="1207.492667369427"/>
    </contour>
  </outline>
</glyph>
<glyph name="four" format="2">
  <advance width="1228"/>
  <unicode hex="0034"/>
  <outline>
    <contour>
      <point x="817.4557124007965" y="1169.9472221177816" type="curve" smooth="yes"/>
      <point x="205.984128313631" y="446.96238509564756" type="line" smooth="yes"/>
      <point x="194.08399481087181" y="432.5975243738265"/>
      <point x="182.47656943467496" y="406.9049805107373"/>
      <point x="177.81548114396776" y="381.90403804067563" type="curve" smooth="yes"/>
      <point x="168.63164071163732" y="322.81992993255506"/>
      <point x="205.76142612038257" y="270.3769572203731"/>
      <point x="263.2507481739564" y="268.0" type="curve" smooth="yes"/>
      <point x="724.4464582757022" y="272.4430069016581" type="line"/>
      <point x="664.2145203365504" y="60.90403804067564" type="line" smooth="yes"/>
      <point x="655.7576808344146" y="5.596908305787272"/>
      <point x="695.4067741195688" y="-42.833395738832294"/>
      <point x="760.2367301929154" y="-44.0" type="curve" smooth="yes"/>
      <point x="762.2367301929154" y="-44.0" type="line" smooth="yes"/>
      <point x="826.3472564526804" y="-43.018470040110294"/>
      <point x="870.5544971235073" y="-5.036045769882536"/>
      <point x="881.1814475413806" y="49.09596195932436" type="curve" smooth="yes"/>
      <point x="917.3848654443891" y="280.25125487538935" type="line"/>
      <point x="1053.2507481739565" y="268.0" type="line" smooth="yes"/>
      <point x="1108.039450725126" y="269.4395745979152"/>
      <point x="1151.053579055723" y="308.6660731761267"/>
      <point x="1162.4297543873809" y="368.09596195932437" type="curve" smooth="yes"/>
      <point x="1172.0233965727518" y="428.4981123110566"/>
      <point x="1134.4791336024623" y="478.22658722599215"/>
      <point x="1078.6418333959755" y="480.0" type="curve" smooth="yes"/>
      <point x="950.5804540053203" y="448.04206540907535" type="line"/>
      <point x="1070.909278783689" y="1125.0959619593243" type="line" smooth="yes"/>
      <point x="1079.3651776731704" y="1182.8521410734534"/>
      <point x="1038.2625584252735" y="1240.7804238697497"/>
      <point x="964.1793196765342" y="1243.0" type="curve" smooth="yes"/>
      <point x="904.5223427066766" y="1242.1265860553585"/>
      <point x="855.0884715015754" y="1214.4332848679342"/>
    </contour>
    <contour>
      <point x="740.6387875010644" y="467.63200417967846" type="line"/>
      <point x="454.0408189235852" y="439.6354288654687" type="line"/>
      <point x="870.9163648627973" y="958.0" type="line"/>
    </contour>
  </outline>
</glyph>
<glyph name="five" format="2">
  <advance width="1228"/>
  <unicode hex="0035"/>
  <outline>
    <contour>
      <point x="560.3001261009479" y="1221.0" type="line" smooth="yes"/>
      <point x="496.08952900281326" y="1219.9937281205398"/>
      <point x="453.1629452727189" y="1182.427840773114"/>
      <point x="440.60956485157465" y="1129.1981332892353" type="curve" smooth="yes"/>
      <point x="332.4460744973421" y="629.1981332892353" type="line" smooth="yes"/>
      <point x="321.79073535099786" y="572.0829131965381"/>
      <point x="364.72095649836086" y="524.0778792675993"/>
      <point x="429.214128254615" y="523.0" type="curve" smooth="yes"/>
      <point x="454.78711415195227" y="523.0974964999323"/>
      <point x="479.90821316085794" y="527.8855102255936"/>
      <point x="498.6948577593087" y="537.9811850368834" type="curve" smooth="yes"/>
      <point x="568.90422274799" y="581.4838301694928"/>
      <point x="630.7397525916001" y="604.4067046201253"/>
      <point x="720.4966136920007" y="604.0" type="curve" smooth="yes"/>
      <point x="857.369103138051" y="607.0740651629084"/>
      <point x="914.8230841316981" y="527.3109889715165"/>
      <point x="888.5787509510524" y="391.90403804067563" type="curve" smooth="yes"/>
      <point x="864.9506318190996" y="246.72032336544672"/>
      <point x="763.5380125443141" y="157.93112259905976"/>
      <point x="610.2171995692665" y="160.0" type="curve" smooth="yes"/>
      <point x="513.8549271456409" y="159.34577293483898"/>
      <point x="426.4064630816908" y="195.36581666124508"/>
      <point x="357.59774602818067" y="252.13486350623677" type="curve" smooth="yes"/>
      <point x="319.9972295930711" y="280.7124076004486"/>
      <point x="256.1935354650194" y="270.7438893332289"/>
      <point x="212.13365252597754" y="218.1729312598101" type="curve" smooth="yes"/>
      <point x="171.0257329548647" y="163.54841345834762"/>
      <point x="179.26214907196433" y="102.08469175008558"/>
      <point x="214.80934343705587" y="70.49434684676274" type="curve" smooth="yes"/>
      <point x="310.1185953297787" y="-4.843753280712896"/>
      <point x="448.02071664246563" y="-55.44830196963923"/>
      <point x="584.1208064244138" y="-56.0" type="curve" smooth="yes"/>
      <point x="854.3666222551926" y="-53.718133530184986"/>
      <point x="1064.2970678159186" y="135.08777541577396"/>
      <point x="1109.5456781558826" y="380.09596195932437" type="curve" smooth="yes"/>
      <point x="1150.6017702875286" y="625.0612102547291"/>
      <point x="1017.98114051389" y="816.8055451062261"/>
      <point x="759.5930068368534" y="820.0" type="curve" smooth="yes"/>
      <point x="676.2288693767836" y="819.7187530052582"/>
      <point x="592.8811796826825" y="797.7414361295686"/>
      <point x="568.7173317828602" y="730.3045640701886" type="curve"/>
      <point x="619.773559168567" y="1013.6647701242929" type="line"/>
      <point x="1068.9090408789289" y="1009.0" type="line" smooth="yes"/>
      <point x="1123.6977434300984" y="1010.4395745979152"/>
      <point x="1166.7118717606957" y="1049.6660731761267"/>
      <point x="1178.0880470923535" y="1109.0959619593243" type="curve" smooth="yes"/>
      <point x="1187.6816892777244" y="1169.4981123110567"/>
      <point x="1150.1374263074347" y="1219.2265872259923"/>
      <point x="1094.3001261009479" y="1221.0" type="curve" smooth="yes"/>
    </contour>
  </outline>
</glyph>
<glyph name="six" format="2">
  <advance width="1228"/>
  <unicode hex="0036"/>
  <outline>
    <contour>
      <point x="259.795950520319" y="517.9040380406757" type="curve" smooth="yes"/>
      <point x="233.97994596319236" y="370.4943068300261"/>
      <point x="241.41749667981676" y="251.903643501323"/>
      <point x="278.0130162798211" y="160.182738533211" type="curve" smooth="yes"/>
      <point x="336.9938828146498" y="20.611494475794128"/>
      <point x="471.86080419456346" y="-54.98139419677203"/>
      <point x="622.1208064244138" y="-56.0" type="curve" smooth="yes"/>
      <point x="880.7080399615845" y="-53.964605721877234"/>
      <point x="1087.0623543910533" y="118.38625638906807"/>
      <point x="1129.726887792503" y="347.09596195932437" type="curve" smooth="yes"/>
      <point x="1169.3504904670501" y="589.5611280783717"/>
      <point x="1010.9858580664884" y="762.3788150603003"/>
      <point x="776.8950228978879" y="765.0" type="curve" smooth="yes"/>
      <point x="655.6367514668716" y="764.2162233830653"/>
      <point x="528.4631003268117" y="708.7710150132722"/>
      <point x="495.85390932860474" y="589.427071183219" type="curve"/>
      <point x="574.3833384436574" y="842.5610572363561"/>
      <point x="766.0517886370149" y="1010.8777464613755"/>
      <point x="1126.9719678511551" y="1028.0431654950908" type="curve" smooth="yes"/>
      <point x="1165.8920246822327" y="1032.2264525703251"/>
      <point x="1202.5020428370747" y="1073.1433561118313"/>
      <point x="1209.232720349601" y="1138.999096293146" type="curve" smooth="yes"/>
      <point x="1213.158519704647" y="1204.7918406610231"/>
      <point x="1167.307758593116" y="1243.0569798342096"/>
      <point x="1128.6559362517166" y="1242.9658549567207" type="curve" smooth="yes"/>
      <point x="587.2173422495433" y="1215.6434866394816"/>
      <point x="319.15214673286437" y="848.1742184705272"/>
    </contour>
    <contour>
      <point x="908.759960587673" y="358.90403804067563" type="curve" smooth="yes"/>
      <point x="889.206256786093" y="233.94224534976993"/>
      <point x="790.460774020746" y="158.25367125489956"/>
      <point x="648.2171995692665" y="160.0" type="curve" smooth="yes"/>
      <point x="507.5853251717298" y="157.2616892997926"/>
      <point x="445.110553290956" y="234.83755041109913"/>
      <point x="470.3717925031302" y="362.09596195932437" type="curve" smooth="yes"/>
      <point x="487.5365213548237" y="476.0877326942063"/>
      <point x="591.3516967689317" y="550.6792206690805"/>
      <point x="728.7986297530351" y="549.0" type="curve" smooth="yes"/>
      <point x="873.6539189154344" y="551.2430165369716"/>
      <point x="933.7326925699256" y="483.89644616608444"/>
    </contour>
  </outline>
</glyph>
<glyph name="seven" format="2">
  <advance width="1228"/>
  <unicode hex="0037"/>
  <outline>
    <contour>
      <point x="471.3001261009479" y="1221.0" type="line" smooth="yes"/>
      <point x="416.51142354977844" y="1219.5604254020848"/>
      <point x="373.4972952191812" y="1180.3339268238733"/>
      <point x="362.1211198875234" y="1120.9040380406757" type="curve" smooth="yes"/>
      <point x="352.52747770215245" y="1060.5018876889433"/>
      <point x="390.0717406724422" y="1010.7734127740079"/>
      <point x="445.909040878929" y="1009.0" type="curve" smooth="yes"/>
      <point x="999.6384348561018" y="1042.656735650331" type="line"/>
      <point x="426.52230926609354" y="73.15983679783136" type="line" smooth="yes"/>
      <point x="398.70329063711904" y="16.99169126248208"/>
      <point x="435.33781947423364" y="-41.70221182542927"/>
      <point x="489.4032925642345" y="-53.453745120952576" type="curve" smooth="yes"/>
      <point x="542.8785913935751" y="-61.88320483156071"/>
      <point x="601.7293560736016" y="-38.904610264227"/>
      <point x="630.6406979232959" y="6.937775087736785" type="curve" smooth="yes"/>
      <point x="1242.6691264577644" y="1061.9437469212362" type="line" smooth="yes"/>
      <point x="1248.820247837023" y="1073.3800947845634"/>
      <point x="1256.1362855800962" y="1093.1350059222266"/>
      <point x="1259.7933550151872" y="1113.0959619593243" type="curve" smooth="yes"/>
      <point x="1268.9942291706943" y="1171.9932156442019"/>
      <point x="1230.095996365424" y="1219.5582696985198"/>
      <point x="1175.3001261009479" y="1221.0" type="curve" smooth="yes"/>
    </contour>
  </outline>
</glyph>
<glyph name="eight" format="2">
  <advance width="1228"/>
  <unicode hex="0038"/>
  <outline>
    <contour>
      <point x="368.50795244032565" y="884.9040380406756" type="curve" smooth="yes"/>
      <point x="348.57788972266684" y="760.1250381256276"/>
      <point x="413.12611037419845" y="655.6958732406063"/>
      <point x="489.6201122484865" y="642.8801414411193" type="curve"/>
      <point x="375.66153614420875" y="605.1422588403329"/>
      <point x="263.84717834701763" y="491.84061228427015"/>
      <point x="236.46770983846304" y="345.90403804067563" type="curve" smooth="yes"/>
      <point x="200.47307448422" y="121.4313122547033"/>
      <point x="363.3358349152105" y="-53.504674312058214"/>
      <point x="610.1208064244138" y="-56.0" type="curve" smooth="yes"/>
      <point x="855.4955158776075" y="-54.04084869124762"/>
      <point x="1069.6587817348593" y="112.5519808003975"/>
      <point x="1111.4346370432932" y="334.09596195932437" type="curve" smooth="yes"/>
      <point x="1135.429006754984" y="481.8246552877944"/>
      <point x="1059.2857061636837" y="602.4503683329243"/>
      <point x="962.0113116042124" y="632.2523513112818" type="curve"/>
      <point x="1049.8317787383307" y="652.453353273508"/>
      <point x="1146.069237820682" y="750.0051959548134"/>
      <point x="1169.4748796451556" y="873.0959619593244" type="curve" smooth="yes"/>
      <point x="1201.2369298290228" y="1073.5712024490995"/>
      <point x="1052.4696504419626" y="1240.2948415580827"/>
      <point x="827.1793196765342" y="1243.0" type="curve" smooth="yes"/>
      <point x="603.3988807754507" y="1240.893906303522"/>
      <point x="406.05304986291435" y="1082.449706012855"/>
    </contour>
    <contour>
      <point x="890.6440368191714" y="346.90403804067563" type="curve" smooth="yes"/>
      <point x="873.4735471036996" y="233.63735593479737"/>
      <point x="772.4178932883605" y="158.23933907280332"/>
      <point x="636.2171995692665" y="160.0" type="curve" smooth="yes"/>
      <point x="501.29026235685944" y="157.7842910087175"/>
      <point x="434.45172623054947" y="224.85168180328205"/>
      <point x="457.61096402400165" y="335.09596195932437" type="curve" smooth="yes"/>
      <point x="474.72278889107037" y="448.27343944096066"/>
      <point x="575.2782144016358" y="521.6923085064121"/>
      <point x="711.6851473124896" y="520.0" type="curve" smooth="yes"/>
      <point x="846.8658208267088" y="522.1204842975536"/>
      <point x="913.8440944844718" y="457.0144783952673"/>
    </contour>
    <contour>
      <point x="949.9789714982002" y="881.9040380406756" type="curve" smooth="yes"/>
      <point x="937.1729562814229" y="792.1004418289521"/>
      <point x="847.986046317182" y="725.0993516670706"/>
      <point x="736.1945976309662" y="727.0" type="curve" smooth="yes"/>
      <point x="625.7734025641407" y="724.5875555631192"/>
      <point x="567.6225369099525" y="783.5499992641996"/>
      <point x="586.9458987030304" y="870.0959619593244" type="curve" smooth="yes"/>
      <point x="601.7625425924205" y="971.004582361517"/>
      <point x="688.2113111717458" y="1028.5436319871908"/>
      <point x="801.0829265316813" y="1027.0" type="curve" smooth="yes"/>
      <point x="912.83241893391" y="1028.9153295358594"/>
      <point x="971.1904206743817" y="979.6091347868181"/>
    </contour>
  </outline>
</glyph>
<glyph name="nine" format="2">
  <advance width="1228"/>
  <unicode hex="0039"/>
  <outline>
    <contour>
      <point x="307.57323830844473" y="839.9040380406757" type="curve" smooth="yes"/>
      <point x="267.9496356338978" y="597.4388719216283"/>
      <point x="426.3142680344596" y="424.6211849396996"/>
      <point x="660.40510320306" y="422.0" type="curve" smooth="yes"/>
      <point x="781.6633746340763" y="422.7837766169347"/>
      <point x="908.8370257741362" y="478.22898498672777"/>
      <point x="941.4462167723432" y="597.572928816781" type="curve"/>
      <point x="862.9167876572906" y="344.438942763644"/>
      <point x="671.2483374639332" y="176.12225353862448"/>
      <point x="310.3281582497928" y="158.95683450490912" type="curve" smooth="yes"/>
      <point x="271.40810141871526" y="154.77354742967475"/>
      <point x="234.79808326387314" y="113.85664388816876"/>
      <point x="228.06740575134688" y="48.000903706853826" type="curve" smooth="yes"/>
      <point x="224.14160639630103" y="-17.791840661023073"/>
      <point x="269.99236750783194" y="-56.0569798342096"/>
      <point x="308.6441898492312" y="-55.965854956720754" type="curve" smooth="yes"/>
      <point x="850.0827838514045" y="-28.643486639481655"/>
      <point x="1118.1479793680835" y="338.8257815294728"/>
      <point x="1177.504175580629" y="669.0959619593243" type="curve" smooth="yes"/>
      <point x="1203.3201801377554" y="816.5056931699739"/>
      <point x="1195.882629421131" y="935.096356498677"/>
      <point x="1159.287109821127" y="1026.817261466789" type="curve" smooth="yes"/>
      <point x="1100.3062432862982" y="1166.3885055242058"/>
      <point x="965.4393219063845" y="1241.981394196772"/>
      <point x="815.1793196765342" y="1243.0" type="curve" smooth="yes"/>
      <point x="556.5920861393635" y="1240.9646057218772"/>
      <point x="350.2377717098946" y="1068.613743610932"/>
    </contour>
    <contour>
      <point x="966.9283335978178" y="824.9040380406756" type="curve" smooth="yes"/>
      <point x="949.7636047461243" y="710.9122673057936"/>
      <point x="845.9484293320163" y="636.3207793309195"/>
      <point x="708.5014963479128" y="638.0" type="curve" smooth="yes"/>
      <point x="563.6462071855136" y="635.7569834630284"/>
      <point x="503.56743353102235" y="703.1035538339156"/>
      <point x="528.5401655132749" y="828.0959619593244" type="curve" smooth="yes"/>
      <point x="548.0938693148548" y="953.0577546502301"/>
      <point x="646.8393520802018" y="1028.7463287451005"/>
      <point x="789.0829265316813" y="1027.0" type="curve" smooth="yes"/>
      <point x="929.7148009292181" y="1029.7383107002074"/>
      <point x="992.1895728099919" y="952.1624495889009"/>
    </contour>
  </outline>
</glyph>
<glyph name="less" format="2">
  <advance width="1228"/>
  <unicode hex="003C"/>
  <outline>
    <contour>
      <point x="476.2820933554501" y="577.0959619593243" type="line"/>
      <point x="1185.3129767039068" y="873.8986623188131" type="line" smooth="yes"/>
      <point x="1238.4715981928166" y="898.5545880856431"/>
      <point x="1266.2157872441812" y="953.8982164453328"/>
      <point x="1249.6747335550915" y="1010.4700948311639" type="curve" smooth="yes"/>
      <point x="1230.9002127369752" y="1063.5533732243223"/>
      <point x="1173.6932298947088" y="1091.8794378010211"/>
      <point x="1118.0436422387183" y="1068.99119797228" type="curve" smooth="yes"/>
      <point x="273.85195721052423" y="687.9861846385736" type="line" smooth="yes"/>
      <point x="234.6659367781759" y="669.6168300727466"/>
      <point x="203.67320919156788" y="636.5610158490092"/>
      <point x="194.31516615062" y="588.9040380406757" type="curve" smooth="yes"/>
      <point x="186.86009737366848" y="540.211440380862"/>
      <point x="210.86977670592648" y="498.8269594806094"/>
      <point x="245.66001922787044" y="479.0483960558115" type="curve" smooth="yes"/>
      <point x="955.4936289705965" y="98.04077764871633" type="line" smooth="yes"/>
      <point x="1006.0954492648211" y="74.12803380381797"/>
      <point x="1063.8942550658137" y="97.31670441525279"/>
      <point x="1098.4337917357986" y="146.95225632836778" type="curve" smooth="yes"/>
      <point x="1133.4759018688173" y="200.77779839330776"/>
      <point x="1121.9571202115642" y="263.53154165063626"/>
      <point x="1073.7826683832616" y="291.1260782302336" type="curve" smooth="yes"/>
    </contour>
  </outline>
</glyph>
<glyph name="greater" format="2">
  <advance width="1228"/>
  <unicode hex="003E"/>
  <outline>
    <contour>
      <point x="957.31516615062" y="588.9040380406757" type="line"/>
      <point x="248.28428280216346" y="292.1013376811869" type="line" smooth="yes"/>
      <point x="195.1256613132536" y="267.44541191435695"/>
      <point x="167.38147226188886" y="212.10178355466724"/>
      <point x="183.92252595097867" y="155.52990516883605" type="curve" smooth="yes"/>
      <point x="202.6970467690951" y="102.4466267756777"/>
      <point x="259.90402961136135" y="74.12056219897893"/>
      <point x="315.55361726735185" y="97.00880202772018" type="curve" smooth="yes"/>
      <point x="1159.745302295546" y="478.0138153614264" type="line" smooth="yes"/>
      <point x="1198.9313227278942" y="496.3831699272535"/>
      <point x="1229.9240503145022" y="529.4389841509907"/>
      <point x="1239.2820933554501" y="577.0959619593244" type="curve" smooth="yes"/>
      <point x="1246.7371621324016" y="625.788559619138"/>
      <point x="1222.7274828001437" y="667.1730405193906"/>
      <point x="1187.9372402781996" y="686.9516039441885" type="curve" smooth="yes"/>
      <point x="478.10363053547366" y="1067.9592223512836" type="line" smooth="yes"/>
      <point x="427.501810241249" y="1091.871966196182"/>
      <point x="369.7030044402566" y="1068.6832955847472"/>
      <point x="335.16346777027144" y="1019.0477436716322" type="curve" smooth="yes"/>
      <point x="300.12135763725286" y="965.2222016066922"/>
      <point x="311.64013929450596" y="902.4684583493638"/>
      <point x="359.8145911228087" y="874.8739217697664" type="curve" smooth="yes"/>
    </contour>
  </outline>
</glyph>
<glyph name="question" format="2">
  <advance width="1228"/>
  <unicode hex="003F"/>
  <outline>
    <contour>
      <point x="494.9547399424005" y="1221.4873188009158" type="curve" smooth="yes"/>
      <point x="448.1369460048002" y="1197.4673617553078"/>
      <point x="417.7436650757486" y="1145.3191234065685"/>
      <point x="433.55884051259056" y="1082.0978504826012" type="curve" smooth="yes"/>
      <point x="454.20233459658584" y="1017.0927572855435"/>
      <point x="518.8269262070513" y="1004.9066852044729"/>
      <point x="558.601806030901" y="1023.3675984745206" type="curve" smooth="yes"/>
      <point x="647.3634679506542" y="1066.097240795408"/>
      <point x="729.9472291484816" y="1087.271058644625"/>
      <point x="816.6625453741892" y="1087.0" type="curve" smooth="yes"/>
      <point x="929.7056451644554" y="1089.1718279291056"/>
      <point x="964.57982051616" y="1045.1969817148654"/>
      <point x="947.0851299548774" y="961.9040380406756" type="curve" smooth="yes"/>
      <point x="933.9916941774463" y="873.8390922017938"/>
      <point x="873.6299189971844" y="836.7579371260326"/>
      <point x="713.1110871615201" y="775.78310431606" type="curve" smooth="yes"/>
      <point x="639.296779971474" y="747.8295099789333" type="line" smooth="yes"/>
      <point x="607.0528083872541" y="734.7746918463471"/>
      <point x="583.6811285994135" y="702.0309552634629"/>
      <point x="578.5520352211432" y="669.4660432527947" type="curve" smooth="yes"/>
      <point x="548.8652231402148" y="444.3649458185042" type="line" smooth="yes"/>
      <point x="547.0575090052104" y="397.680021990966"/>
      <point x="590.3732884484288" y="356.5717040907865"/>
      <point x="642.5911954955928" y="355.0" type="curve" smooth="yes"/>
      <point x="693.8671876575322" y="356.28981856651296"/>
      <point x="740.8965217916804" y="389.39543393797027"/>
      <point x="753.6768148381052" y="432.1989037951734" type="curve" smooth="yes"/>
      <point x="784.4979613722202" y="586.6821262407235" type="line"/>
      <point x="996.5814971569566" y="664.504566566384"/>
      <point x="1132.8657295133223" y="762.8037520604184"/>
      <point x="1168.0520571597076" y="950.0959619593244" type="curve" smooth="yes"/>
      <point x="1200.3049153401887" y="1148.703361610933"/>
      <point x="1074.2039579811417" y="1300.6405039559734"/>
      <point x="841.7589385190421" y="1303.0" type="curve" smooth="yes"/>
      <point x="722.994485769499" y="1302.7909587833262"/>
      <point x="605.8383868458454" y="1275.9916422246479"/>
    </contour>
    <contour>
      <point x="454.9631421758986" y="172.90403804067563" type="curve" smooth="yes"/>
      <point x="434.86186637513356" y="58.90403804067563" type="line" smooth="yes"/>
      <point x="428.45475847691006" y="-3.611338416720738"/>
      <point x="485.8334975377225" y="-43.56791737468766"/>
      <point x="572.2367301929154" y="-44.0" type="curve" smooth="yes"/>
      <point x="658.356488767638" y="-43.61232024327619"/>
      <point x="718.054997030006" y="-11.793640113304157"/>
      <point x="731.8287935799638" y="47.095961959324384" type="curve" smooth="yes"/>
      <point x="751.9300693807287" y="161.09596195932437" type="line" smooth="yes"/>
      <point x="758.3371772789524" y="223.6113384167207"/>
      <point x="700.9584382181398" y="263.5679173746877"/>
      <point x="614.555205562947" y="264.0" type="curve" smooth="yes"/>
      <point x="528.4354469882244" y="263.6123202432762"/>
      <point x="468.7369387258563" y="231.79364011330418"/>
    </contour>
  </outline>
</glyph>
<glyph name="at" format="2">
  <advance width="1228"/>
  <unicode hex="0040"/>
  <outline>
    <contour>
      <point x="85.1077318931778" y="394.90403804067563" type="curve" smooth="yes"/>
      <point x="26.04733259559854" y="48.0443633032628"/>
      <point x="201.45090941168803" y="-184.17412807983033"/>
      <point x="535.0219719516049" y="-187.0" type="curve" smooth="yes"/>
      <point x="648.2570710493131" y="-186.84574026119103"/>
      <point x="763.9172814125567" y="-164.73375924262234"/>
      <point x="843.0335101311767" y="-132.48125299412806" type="curve" smooth="yes"/>
      <point x="874.4288737929146" y="-118.21518841249454"/>
      <point x="898.973238197427" y="-76.73425800664255"/>
      <point x="894.3718353616283" y="-31.642463286001963" type="curve" smooth="yes"/>
      <point x="887.5281174377392" y="12.727050358670299"/>
      <point x="846.3630051366104" y="47.485156794425194"/>
      <point x="806.6161955299004" y="39.611229363489166" type="curve" smooth="yes"/>
      <point x="738.1143648686177" y="19.181128062550727"/>
      <point x="647.8693236469278" y="3.881107937546872"/>
      <point x="554.710190578746" y="4.0" type="curve" smooth="yes"/>
      <point x="319.7905961189515" y="0.9474099049234148"/>
      <point x="230.06024478088685" y="138.14310186859774"/>
      <point x="275.07465909800794" y="383.09596195932437" type="curve" smooth="yes"/>
      <point x="328.12747071353385" y="693.8793005380321"/>
      <point x="560.7658733294701" y="924.1876740749195"/>
      <point x="823.392266576584" y="921.0" type="curve" smooth="yes"/>
      <point x="1052.5365269847614" y="923.9513530026895"/>
      <point x="1155.1875991525342" y="785.9831156636261"/>
      <point x="1109.14616315378" y="536.9040380406757" type="curve" smooth="yes"/>
      <point x="1083.0276892827878" y="384.63293140383166"/>
      <point x="1017.7781940258511" y="292.0927440348833"/>
      <point x="934.3739959263263" y="297.0" type="curve" smooth="yes"/>
      <point x="893.5866937848543" y="291.05124312747853"/>
      <point x="887.831429422488" y="313.9627279513103"/>
      <point x="922.4540429409966" y="390.53003149936126" type="curve" smooth="yes"/>
      <point x="1052.7104247554407" y="692.5430955142714" type="line" smooth="yes"/>
      <point x="1063.154923459362" y="733.5920107363637"/>
      <point x="1031.7324442754737" y="771.3814292676225"/>
      <point x="1003.2673650361552" y="783.5512977459796" type="curve" smooth="yes"/>
      <point x="974.8225598955162" y="794.345772934839"/>
      <point x="929.1693560341768" y="794.1051949014868"/>
      <point x="902.6442272462169" y="766.921693317509" type="curve" smooth="yes"/>
      <point x="886.3915620879376" y="718.9157239048745" type="line"/>
      <point x="905.032793097137" y="758.3022351350153"/>
      <point x="855.797654246214" y="816.2561917765476"/>
      <point x="778.416679856145" y="819.0" type="curve" smooth="yes"/>
      <point x="579.1085199371272" y="812.9856206031175"/>
      <point x="387.0572574227693" y="551.1179901420373"/>
      <point x="352.4652685105069" y="362.90403804067563" type="curve" smooth="yes"/>
      <point x="327.2167580520696" y="208.29068798310595"/>
      <point x="408.885593647762" y="101.68232854007326"/>
      <point x="522.2751614535174" y="98.0" type="curve" smooth="yes"/>
      <point x="623.4718320282827" y="99.896502246014"/>
      <point x="703.2536148976175" y="162.2205783033482"/>
      <point x="753.0400743556394" y="232.05107373969307" type="curve"/>
      <point x="741.3298166196438" y="165.56097393303804"/>
      <point x="815.8898533544284" y="104.58719571865585"/>
      <point x="913.1567963570596" y="103.0" type="curve" smooth="yes"/>
      <point x="1096.7118280514198" y="106.7668891943378"/>
      <point x="1253.0447077444592" y="281.71158012411"/>
      <point x="1297.11309035861" y="525.0959619593244" type="curve" smooth="yes"/>
      <point x="1353.6372767956782" y="858.3240109544618"/>
      <point x="1174.8107116835479" y="1108.6434402091725"/>
      <point x="850.0804852037252" y="1112.0" type="curve" smooth="yes"/>
      <point x="485.1696238012628" y="1109.0239896699552"/>
      <point x="157.94815276838438" y="797.4362643243693"/>
    </contour>
    <contour>
      <point x="777.4359725750337" y="566.9040380406757" type="curve" smooth="yes"/>
      <point x="756.9843801712755" y="444.3222708236253"/>
      <point x="653.3981616132062" y="293.12107209068716"/>
      <point x="570.9029768684517" y="300.0" type="curve" smooth="yes"/>
      <point x="547.07461692271" y="296.90573762544005"/>
      <point x="543.5786243162926" y="298.2088191188739"/>
      <point x="554.784849676754" y="353.09596195932437" type="curve" smooth="yes"/>
      <point x="577.646665768875" y="492.1367985270796"/>
      <point x="699.135681803814" y="630.5867514250599"/>
      <point x="752.02315330617" y="624.0" type="curve" smooth="yes"/>
      <point x="783.788047270758" y="627.6044157139602"/>
      <point x="788.1045585852512" y="618.861178894723"/>
    </contour>
  </outline>
</glyph>
<glyph name="A" format="2">
  <advance width="1228"/>
  <unicode hex="0041"/>
  <outline>
    <contour>
      <point x="756.0476928453188" y="1242.4425350773938"/>
      <point x="702.11034719137" y="1214.1567409539139"/>
      <point x="671.8965622384533" y="1160.3302761013463" type="curve" smooth="yes"/>
      <point x="90.99125796016276" y="100.332641238533" type="line" smooth="yes"/>
      <point x="63.85026824396511" y="47.319381308277855"/>
      <point x="86.23471979662605" y="-11.79151942226995"/>
      <point x="145.19702264159483" y="-34.01390469943308" type="curve" smooth="yes"/>
      <point x="203.83013877122062" y="-53.89709207058527"/>
      <point x="258.75512469187544" y="-30.862316225550256"/>
      <point x="287.1838279181069" y="19.696327842795682" type="curve" smooth="yes"/>
      <point x="501.1410733577594" y="410.7208667379301" type="line"/>
      <point x="516.524365069569" y="440.22565168963666" type="line"/>
      <point x="823.9421756512124" y="1027.062283232851" type="line"/>
      <point x="764.4318219698337" y="1037.0606554138935" type="line"/>
      <point x="864.7156516562045" y="449.2667215474991" type="line"/>
      <point x="869.9114361445074" y="420.5375488498739" type="line"/>
      <point x="945.9687491502242" y="29.531547328974543" type="line" smooth="yes"/>
      <point x="957.8713216036228" y="-24.517770982554637"/>
      <point x="1013.0464462831679" y="-53.90250350006771"/>
      <point x="1076.939342656298" y="-34.40485774727212" type="curve" smooth="yes"/>
      <point x="1140.534463532158" y="-13.608577835399522"/>
      <point x="1174.7597705658645" y="35.543660798731565"/>
      <point x="1166.182598811688" y="90.50903373736166" type="curve" smooth="yes"/>
      <point x="959.0898446895897" y="1150.5057192110712" type="line" smooth="yes"/>
      <point x="946.4481441484035" y="1208.0037296061041"/>
      <point x="894.719619694989" y="1242.3650187422186"/>
      <point x="825.1793196765342" y="1243.0" type="curve" smooth="yes"/>
    </contour>
    <contour>
      <point x="410.43121445318457" y="507.0092982700918" type="line"/>
      <point x="384.314030906763" y="297.1784463679054" type="line"/>
      <point x="959.3356780364212" y="296.9907017299082" type="line"/>
      <point x="985.452861582843" y="506.8215536320946" type="line"/>
    </contour>
  </outline>
</glyph>
<glyph name="B" format="2">
  <advance width="1228"/>
  <unicode hex="0042"/>
  <outline>
    <contour>
      <point x="477.3001261009479" y="1221.0" type="line" smooth="yes"/>
      <point x="423.3760202867373" y="1219.8079309834798"/>
      <point x="380.0173855950863" y="1182.7200273224285"/>
      <point x="368.82642781035725" y="1124.9040380406757" type="curve" smooth="yes"/>
      <point x="183.50677108576056" y="73.90403804067563" type="line" smooth="yes"/>
      <point x="174.3058969302536" y="15.006784355798057"/>
      <point x="213.2041297355238" y="-32.55826969851977"/>
      <point x="268.0" y="-34.0" type="curve" smooth="yes"/>
      <point x="690.0" y="-34.0" type="line" smooth="yes"/>
      <point x="946.0726579800925" y="-32.473705689620346"/>
      <point x="1125.538251406741" y="108.78733259648187"/>
      <point x="1166.7293291204592" y="330.09596195932437" type="curve" smooth="yes"/>
      <point x="1192.3445304432237" y="484.44961465242625"/>
      <point x="1123.093875004093" y="602.3149987791611"/>
      <point x="1016.623737440633" y="632.0550621569096" type="curve"/>
      <point x="1096.7484630378456" y="644.6063647321148"/>
      <point x="1171.261534326301" y="736.0719991002929"/>
      <point x="1192.772013050278" y="852.0959619593244" type="curve" smooth="yes"/>
      <point x="1226.6360553267805" y="1057.7836261822422"/>
      <point x="1104.9267838244803" y="1218.5684575919186"/>
      <point x="853.3001261009479" y="1221.0" type="curve" smooth="yes"/>
    </contour>
    <contour>
      <point x="945.7624019156291" y="341.90403804067563" type="curve" smooth="yes"/>
      <point x="928.268117922053" y="225.94673111509655"/>
      <point x="842.416442624221" y="177.05155178561796"/>
      <point x="695.391085222019" y="178.0" type="curve" smooth="yes"/>
      <point x="409.0591659041899" y="162.2795281667918" type="line"/>
      <point x="472.94492390478035" y="507.23518725981637" type="line"/>
      <point x="758.6296267561949" y="497.0" type="line" smooth="yes"/>
      <point x="916.9939606755611" y="498.1149688863795"/>
      <point x="969.5613400850862" y="457.9860489634706"/>
    </contour>
    <contour>
      <point x="971.8050858454478" y="863.9040380406757" type="curve" smooth="yes"/>
      <point x="955.5723295365201" y="759.3123763598855"/>
      <point x="888.0114953699652" y="707.7846612931361"/>
      <point x="741.0207119782139" y="709.0" type="curve" smooth="yes"/>
      <point x="503.8219070728736" y="691.367307992765" type="line"/>
      <point x="564.1575456953791" y="1020.2291193728987" type="line"/>
      <point x="805.909040878929" y="1009.0" type="line" smooth="yes"/>
      <point x="953.4402155501467" y="1010.3451175642446"/>
      <point x="993.4825786485708" y="971.4079892636363"/>
    </contour>
  </outline>
</glyph>
<glyph name="C" format="2">
  <advance width="1228"/>
  <unicode hex="0043"/>
  <outline>
    <contour>
      <point x="221.2547629384131" y="599.9040380406757" type="curve" smooth="yes"/>
      <point x="155.9059380002546" y="218.7441287289832"/>
      <point x="335.37055409682" y="-52.13186936811467"/>
      <point x="660.1208064244138" y="-56.0" type="curve" smooth="yes"/>
      <point x="797.3115127112509" y="-55.74074659543656"/>
      <point x="930.1654344065936" y="-21.65732637552779"/>
      <point x="1066.6125967927417" y="48.83295055828253" type="curve" smooth="yes"/>
      <point x="1116.2960104051303" y="76.4162346455851"/>
      <point x="1141.4509562262888" y="132.8097636825416"/>
      <point x="1125.9704877057936" y="192.3025086687623" type="curve" smooth="yes"/>
      <point x="1102.6755290289666" y="258.8429439619194"/>
      <point x="1034.724178104629" y="265.68623934844186"/>
      <point x="995.9617424321968" y="245.93305983039568" type="curve" smooth="yes"/>
      <point x="891.7241803865684" y="189.36015143099414"/>
      <point x="792.2934938884185" y="159.64159809474552"/>
      <point x="686.2171995692665" y="160.0" type="curve" smooth="yes"/>
      <point x="485.5645185939495" y="155.81216464306542"/>
      <point x="391.6756627639233" y="310.35753671399806"/>
      <point x="442.2216901432433" y="588.0959619593243" type="curve" smooth="yes"/>
      <point x="490.1418111007475" y="867.2240398774326"/>
      <point x="648.218757498495" y="1030.0778674267497"/>
      <point x="851.0829265316813" y="1027.0" type="curve" smooth="yes"/>
      <point x="956.8973360876763" y="1027.3977731132736"/>
      <point x="1043.4442114380029" y="998.4858650029186"/>
      <point x="1126.3856213638528" y="942.6890294888127" type="curve" smooth="yes"/>
      <point x="1160.8968946447246" y="921.6037454125307"/>
      <point x="1225.2340021053867" y="924.7780619635365"/>
      <point x="1266.7070645822366" y="985.7309763762944" type="curve" smooth="yes"/>
      <point x="1301.9691695639397" y="1042.8522903410692"/>
      <point x="1294.4229271538882" y="1105.385899269011"/>
      <point x="1250.6282192464273" y="1136.6818442314561" type="curve" smooth="yes"/>
      <point x="1137.6066300132554" y="1207.952244950651"/>
      <point x="1014.5588736611463" y="1242.7167540978646"/>
      <point x="877.1793196765342" y="1243.0" type="curve" smooth="yes"/>
      <point x="554.4940715721956" y="1240.1241704198312"/>
      <point x="289.6866403306087" y="979.4389202665476"/>
    </contour>
  </outline>
</glyph>
<glyph name="D" format="2">
  <advance width="1228"/>
  <unicode hex="0044"/>
  <outline>
    <contour>
      <point x="447.3001261009479" y="1221.0" type="line" smooth="yes"/>
      <point x="393.3760202867373" y="1219.8079309834798"/>
      <point x="350.0173855950863" y="1182.7200273224285"/>
      <point x="338.82642781035725" y="1124.9040380406757" type="curve" smooth="yes"/>
      <point x="153.50677108576056" y="73.90403804067563" type="line" smooth="yes"/>
      <point x="144.3058969302536" y="15.006784355798057"/>
      <point x="183.2041297355238" y="-32.55826969851977"/>
      <point x="238.0" y="-34.0" type="curve" smooth="yes"/>
      <point x="574.0" y="-34.0" type="line" smooth="yes"/>
      <point x="901.4762561907045" y="-31.628199940304977"/>
      <point x="1169.3357157090613" y="207.0277791048067"/>
      <point x="1238.0453631625346" y="587.0959619593244" type="curve" smooth="yes"/>
      <point x="1303.2715623976198" y="968.9872748981819"/>
      <point x="1112.5198522597846" y="1217.8836427250365"/>
      <point x="783.3001261009479" y="1221.0" type="curve" smooth="yes"/>
    </contour>
    <contour>
      <point x="1017.0784359577045" y="598.9040380406757" type="curve" smooth="yes"/>
      <point x="967.8425876461715" y="310.6696352502325"/>
      <point x="805.8302490393057" y="175.97416248717812"/>
      <point x="580.391085222019" y="178.0" type="curve" smooth="yes"/>
      <point x="384.28411322389206" y="146.69493095723192" type="line"/>
      <point x="540.1191995564966" y="1029.512005511528" type="line"/>
      <point x="738.909040878929" y="1009.0" type="line" smooth="yes"/>
      <point x="962.8137158046826" y="1011.6230584473277"/>
      <point x="1069.5657599336957" y="885.4356115054615"/>
    </contour>
  </outline>
</glyph>
<glyph name="E" format="2">
  <advance width="1228"/>
  <unicode hex="0045"/>
  <outline>
    <contour>
      <point x="497.3001261009479" y="1221.0" type="line" smooth="yes"/>
      <point x="443.3760202867373" y="1219.8079309834798"/>
      <point x="400.0173855950863" y="1182.7200273224285"/>
      <point x="388.82642781035725" y="1124.9040380406757" type="curve" smooth="yes"/>
      <point x="203.50677108576056" y="73.90403804067563" type="line" smooth="yes"/>
      <point x="194.3058969302536" y="15.006784355798057"/>
      <point x="233.2041297355238" y="-32.55826969851977"/>
      <point x="288.0" y="-34.0" type="curve" smooth="yes"/>
      <point x="977.0" y="-34.0" type="line" smooth="yes"/>
      <point x="1031.7887025511695" y="-32.56042540208479"/>
      <point x="1074.8028308817666" y="6.6660731761266945"/>
      <point x="1086.1790062134244" y="66.09596195932438" type="curve" smooth="yes"/>
      <point x="1095.7726483987954" y="126.49811231105664"/>
      <point x="1058.2283854285058" y="176.22658722599218"/>
      <point x="1002.391085222019" y="178.0" type="curve" smooth="yes"/>
      <point x="420.6882358304119" y="171.2768340754607" type="line"/>
      <point x="490.6456418781337" y="512.8218285173068" type="line"/>
      <point x="927.2165695825711" y="506.0" type="line" smooth="yes"/>
      <point x="982.0052721337405" y="507.4395745979152"/>
      <point x="1025.0194004643379" y="546.6660731761267"/>
      <point x="1036.3955757959957" y="606.0959619593244" type="curve" smooth="yes"/>
      <point x="1045.9892179813667" y="666.4981123110567"/>
      <point x="1008.4449550110768" y="716.2265872259921"/>
      <point x="952.6076548045901" y="718.0" type="curve" smooth="yes"/>
      <point x="518.5166623029551" y="709.1232437284649" type="line"/>
      <point x="575.4384624470995" y="1013.2884160196448" type="line"/>
      <point x="1140.9090408789289" y="1009.0" type="line" smooth="yes"/>
      <point x="1195.6977434300984" y="1010.4395745979152"/>
      <point x="1238.7118717606957" y="1049.6660731761267"/>
      <point x="1250.0880470923535" y="1109.0959619593243" type="curve" smooth="yes"/>
      <point x="1259.6816892777244" y="1169.4981123110567"/>
      <point x="1222.1374263074347" y="1219.2265872259923"/>
      <point x="1166.3001261009479" y="1221.0" type="curve" smooth="yes"/>
    </contour>
  </outline>
</glyph>
<glyph name="F" format="2">
  <advance width="1228"/>
  <unicode hex="0046"/>
  <outline>
    <contour>
      <point x="517.3001261009479" y="1221.0" type="line" smooth="yes"/>
      <point x="466.3760202867373" y="1219.8079309834798"/>
      <point x="420.53618861432153" y="1183.8407792518083"/>
      <point x="408.82642781035725" y="1124.9040380406757" type="curve" smooth="yes"/>
      <point x="221.2145203365505" y="60.90403804067564" type="line" smooth="yes"/>
      <point x="212.75768083441451" y="5.596908305787316"/>
      <point x="252.4067741195688" y="-42.833395738832294"/>
      <point x="317.23673019291533" y="-44.0" type="curve" smooth="yes"/>
      <point x="319.23673019291533" y="-44.0" type="line" smooth="yes"/>
      <point x="383.34725645268037" y="-43.018470040110294"/>
      <point x="427.55449712350725" y="-5.036045769882582"/>
      <point x="438.1814475413807" y="49.09596195932436" type="curve" smooth="yes"/>
      <point x="504.6562335379482" y="473.65494371919385" type="line"/>
      <point x="950.1634903542325" y="466.0" type="line" smooth="yes"/>
      <point x="1004.9521929054021" y="467.4395745979152"/>
      <point x="1047.9663212359992" y="506.66607317612664"/>
      <point x="1059.342496567657" y="566.0959619593243" type="curve" smooth="yes"/>
      <point x="1068.936138753028" y="626.4981123110567"/>
      <point x="1031.3918757827382" y="676.2265872259921"/>
      <point x="975.5545755762514" y="678.0" type="curve" smooth="yes"/>
      <point x="532.6672442842465" y="667.9703818863712" type="line"/>
      <point x="596.6493121005799" y="1013.9951249445501" type="line"/>
      <point x="1160.9090408789289" y="1009.0" type="line" smooth="yes"/>
      <point x="1215.6977434300984" y="1010.4395745979152"/>
      <point x="1258.7118717606957" y="1049.6660731761267"/>
      <point x="1270.0880470923535" y="1109.0959619593243" type="curve" smooth="yes"/>
      <point x="1279.6816892777244" y="1169.4981123110567"/>
      <point x="1242.1374263074347" y="1219.2265872259923"/>
      <point x="1186.3001261009479" y="1221.0" type="curve" smooth="yes"/>
    </contour>
  </outline>
</glyph>
<glyph name="G" format="2">
  <advance width="1228"/>
  <unicode hex="0047"/>
  <outline>
    <contour>
      <point x="534.8947788177084" y="1240.2972997904003"/>
      <point x="250.08971854061076" y="980.2055032624577"/>
      <point x="181.2547629384131" y="599.9040380406757" type="curve" smooth="yes"/>
      <point x="115.93989120295414" y="218.5315363383477"/>
      <point x="299.62965981439487" y="-52.265894612697295"/>
      <point x="630.1208064244138" y="-56.0" type="curve" smooth="yes"/>
      <point x="787.733437626331" y="-55.80752720621451"/>
      <point x="950.111919988008" y="-21.11197898463965"/>
      <point x="1075.7133463186028" y="43.82379938710196" type="curve" smooth="yes"/>
      <point x="1107.6582586867792" y="61.3501404317703"/>
      <point x="1134.047737536008" y="98.14323103327682"/>
      <point x="1128.827497923022" y="170.0391376122462" type="curve"/>
      <point x="992.8527446296195" y="228.99676535464113" type="line"/>
      <point x="880.2284907388741" y="178.3331030083588"/>
      <point x="777.3282267468701" y="159.8770399538014"/>
      <point x="656.2171995692665" y="160.0" type="curve" smooth="yes"/>
      <point x="450.18914887628046" y="156.01494353374963"/>
      <point x="351.62808067273505" y="310.71113160047264"/>
      <point x="402.2216901432433" y="588.0959619593243" type="curve" smooth="yes"/>
      <point x="449.6194229975204" y="866.1870738606177"/>
      <point x="627.6434223252244" y="1029.8212740184385"/>
      <point x="831.0829265316813" y="1027.0" type="curve" smooth="yes"/>
      <point x="938.0369379209853" y="1027.2415939925754"/>
      <point x="1026.0823315279079" y="1004.8351784004772"/>
      <point x="1109.5934499930975" y="951.2857966323129" type="curve" smooth="yes"/>
      <point x="1145.154992150276" y="930.3975735059503"/>
      <point x="1209.6350033399667" y="935.2671528471203"/>
      <point x="1250.08145241469" y="997.4320431088645" type="curve" smooth="yes"/>
      <point x="1283.1454972999204" y="1054.5593323415908"/>
      <point x="1274.9007733268604" y="1117.0348434631167"/>
      <point x="1229.5680738843346" y="1147.1896879078672" type="curve" smooth="yes"/>
      <point x="1114.669006215912" y="1215.4586264822865"/>
      <point x="993.6364853678734" y="1242.8237786975765"/>
      <point x="857.1793196765342" y="1243.0" type="curve" smooth="yes"/>
    </contour>
    <contour>
      <point x="770.7382265408282" y="628.0" type="line" smooth="yes"/>
      <point x="715.9495239896588" y="626.5604254020848"/>
      <point x="672.9353956590614" y="587.3339268238733"/>
      <point x="661.5592203274036" y="527.9040380406756" type="curve" smooth="yes"/>
      <point x="651.9655781420328" y="467.5018876889433"/>
      <point x="689.5098411123225" y="417.77341277400785"/>
      <point x="745.3471413188092" y="416.0" type="curve" smooth="yes"/>
      <point x="1084.2397609159268" y="418.5392250584316" type="line"/>
      <point x="1111.4268473185916" y="624.6634052193663" type="line"/>
    </contour>
    <contour>
      <point x="1005.8429554137762" y="605.7767431716856" type="line"/>
      <point x="924.6224375046867" y="137.75062027208995" type="line"/>
      <point x="1137.7789465813403" y="126.20837209216333" type="line"/>
      <point x="1209.2314554550676" y="520.0959619593243" type="line"/>
      <point x="1218.4323296105745" y="578.993215644202"/>
      <point x="1179.5340968053044" y="626.5582696985198"/>
      <point x="1124.7382265408282" y="628.0" type="curve" smooth="yes"/>
    </contour>
  </outline>
</glyph>
<glyph name="H" format="2">
  <advance width="1228"/>
  <unicode hex="0048"/>
  <outline>
    <contour>
      <point x="1188.0633959080326" y="1231.0" type="line"/>
      <point x="1123.9528696482676" y="1230.0184700401103"/>
      <point x="1079.7456289774407" y="1192.0360457698825"/>
      <point x="1069.1186785595673" y="1137.9040380406757" type="curve" smooth="yes"/>
      <point x="879.2145203365504" y="60.90403804067563" type="line" smooth="yes"/>
      <point x="870.7576808344146" y="5.596908305787272"/>
      <point x="910.4067741195688" y="-42.833395738832294"/>
      <point x="975.2367301929154" y="-44.0" type="curve"/>
      <point x="977.2367301929154" y="-44.0" type="line"/>
      <point x="1041.3472564526803" y="-43.018470040110294"/>
      <point x="1085.5544971235072" y="-5.036045769882582"/>
      <point x="1096.1814475413805" y="49.09596195932437" type="curve" smooth="yes"/>
      <point x="1286.0856057643973" y="1126.0959619593243" type="line" smooth="yes"/>
      <point x="1294.5424452665334" y="1181.4030916942127"/>
      <point x="1254.893351981379" y="1229.8333957388322"/>
      <point x="1190.0633959080326" y="1231.0" type="curve"/>
    </contour>
    <contour>
      <point x="460.0633959080326" y="1231.0" type="line"/>
      <point x="395.95286964826755" y="1230.0184700401103"/>
      <point x="351.7456289774407" y="1192.0360457698825"/>
      <point x="341.11867855956723" y="1137.9040380406757" type="curve" smooth="yes"/>
      <point x="151.2145203365505" y="60.90403804067563" type="line" smooth="yes"/>
      <point x="142.75768083441454" y="5.596908305787302"/>
      <point x="182.40677411956884" y="-42.833395738832294"/>
      <point x="247.23673019291536" y="-44.0" type="curve"/>
      <point x="249.23673019291536" y="-44.0" type="line"/>
      <point x="313.3472564526804" y="-43.018470040110294"/>
      <point x="357.55449712350725" y="-5.036045769882582"/>
      <point x="368.18144754138063" y="49.09596195932437" type="curve" smooth="yes"/>
      <point x="558.0856057643974" y="1126.0959619593243" type="line" smooth="yes"/>
      <point x="566.5424452665334" y="1181.4030916942127"/>
      <point x="526.8933519813792" y="1229.8333957388322"/>
      <point x="462.0633959080326" y="1231.0" type="curve"/>
    </contour>
    <contour>
      <point x="373.07405411432865" y="717.3663312640184" type="line"/>
      <point x="347.2181790810465" y="506.7280518997133" type="line"/>
      <point x="1070.7501702728325" y="506.63366873598153" type="line"/>
      <point x="1096.6060453061148" y="717.2719481002866" type="line"/>
    </contour>
  </outline>
</glyph>
<glyph name="J" format="2">
  <advance width="1228"/>
  <unicode hex="004A"/>
  <outline>
    <contour>
      <point x="652.3001261009479" y="1221.0" type="line" smooth="yes"/>
      <point x="597.5114235497783" y="1219.5604254020848"/>
      <point x="554.4972952191812" y="1180.3339268238733"/>
      <point x="543.1211198875234" y="1120.9040380406757" type="curve" smooth="yes"/>
      <point x="533.5274777021525" y="1060.5018876889433"/>
      <point x="571.0717406724423" y="1010.7734127740079"/>
      <point x="626.909040878929" y="1009.0" type="curve" smooth="yes"/>
      <point x="955.8636370269936" y="1031.6381299089294" type="line"/>
      <point x="834.5232303947577" y="368.90403804067563" type="line" smooth="yes"/>
      <point x="810.2778436960734" y="224.5047209825832"/>
      <point x="744.8508553474186" y="158.04381717321553"/>
      <point x="604.2171995692665" y="160.0" type="curve" smooth="yes"/>
      <point x="505.9431340714331" y="159.51438010879656"/>
      <point x="422.1514827958007" y="189.47990263225046"/>
      <point x="355.4222028799963" y="247.68478054748252" type="curve" smooth="yes"/>
      <point x="324.11138029433687" y="273.23074853497076"/>
      <point x="259.6993127799577" y="275.0434032151749"/>
      <point x="210.42509659971543" y="218.5340315207597" type="curve" smooth="yes"/>
      <point x="168.82459128192397" y="165.39832554833632"/>
      <point x="169.62379006925028" y="102.34755714851465"/>
      <point x="208.13384752534142" y="66.15217827659552" type="curve" smooth="yes"/>
      <point x="302.06426348989874" y="-13.035480762568604"/>
      <point x="440.0605432989275" y="-55.62132860404008"/>
      <point x="577.1208064244138" y="-56.0" type="curve" smooth="yes"/>
      <point x="823.4482672850667" y="-54.39357269847961"/>
      <point x="1001.9748349528481" y="87.33691597437512"/>
      <point x="1046.2003481783338" y="327.09596195932437" type="curve" smooth="yes"/>
      <point x="1184.7933550151872" y="1113.0959619593243" type="line" smooth="yes"/>
      <point x="1193.8316725501131" y="1173.4658534260575"/>
      <point x="1152.095996365424" y="1219.5582696985198"/>
      <point x="1100.3001261009479" y="1221.0" type="curve" smooth="yes"/>
    </contour>
  </outline>
</glyph>
<glyph name="K" format="2">
  <advance width="1228"/>
  <unicode hex="004B"/>
  <outline>
    <contour>
      <point x="293.8889516390255" y="473.33543273775877" type="line"/>
      <point x="436.9830620049773" y="327.0689266753816" type="line"/>
      <point x="1268.5246336840937" y="1068.6188330458097" type="line" smooth="yes"/>
      <point x="1312.0946446392866" y="1108.2674527121153"/>
      <point x="1315.4668005248348" y="1174.334725092325"/>
      <point x="1265.5379711504047" y="1214.3208643302912" type="curve" smooth="yes"/>
      <point x="1222.604644479114" y="1244.5309557511182"/>
      <point x="1162.342208375188" y="1248.1469142898277"/>
      <point x="1123.3180574116489" y="1216.323564963473" type="curve" smooth="yes"/>
    </contour>
    <contour>
      <point x="500.0633959080326" y="1231.0" type="line"/>
      <point x="435.95286964826755" y="1230.0184700401103"/>
      <point x="391.7456289774407" y="1192.0360457698825"/>
      <point x="381.11867855956723" y="1137.9040380406757" type="curve" smooth="yes"/>
      <point x="191.2145203365505" y="60.90403804067563" type="line" smooth="yes"/>
      <point x="182.75768083441454" y="5.596908305787302"/>
      <point x="222.40677411956884" y="-42.833395738832294"/>
      <point x="287.23673019291533" y="-44.0" type="curve"/>
      <point x="289.23673019291533" y="-44.0" type="line"/>
      <point x="353.34725645268037" y="-43.018470040110294"/>
      <point x="397.55449712350725" y="-5.036045769882582"/>
      <point x="408.18144754138063" y="49.09596195932437" type="curve" smooth="yes"/>
      <point x="598.0856057643974" y="1126.0959619593243" type="line" smooth="yes"/>
      <point x="606.5424452665334" y="1181.4030916942127"/>
      <point x="566.8933519813792" y="1229.8333957388322"/>
      <point x="502.0633959080326" y="1231.0" type="curve"/>
    </contour>
    <contour>
      <point x="563.4936681618179" y="607.936051531415" type="line"/>
      <point x="924.7096814666149" y="-11.166200410335946" type="line" smooth="yes"/>
      <point x="955.2019158525602" y="-55.82112780506645"/>
      <point x="1014.6174958909623" y="-57.16262725648035"/>
      <point x="1067.6349839011227" y="-30.19184125573715" type="curve" smooth="yes"/>
      <point x="1128.1574782883165" y="2.265640606415939"/>
      <point x="1149.1422981195694" y="61.12191546732329"/>
      <point x="1123.5542467308846" y="109.19372343066553" type="curve" smooth="yes"/>
      <point x="765.2311371603759" y="718.3817405953074" type="line"/>
    </contour>
  </outline>
</glyph>
<glyph name="M" format="2">
  <advance width="1228"/>
  <unicode hex="004D"/>
  <outline>
    <contour>
      <point x="1187.0633959080326" y="1231.0" type="line" smooth="yes"/>
      <point x="1131.7710031007362" y="1229.973265254286"/>
      <point x="1082.8321428946188" y="1200.3597332146835"/>
      <point x="1049.9826990982879" y="1150.3555844015914" type="curve" smooth="yes"/>
      <point x="713.0957631581573" y="596.0" type="line"/>
      <point x="581.2679500911851" y="1141.4310652808915" type="line" smooth="yes"/>
      <point x="564.9795664184849" y="1194.0037296061041"/>
      <point x="520.2254739865291" y="1229.7422712297655"/>
      <point x="464.0633959080326" y="1231.0" type="curve" smooth="yes"/>
      <point x="462.0633959080326" y="1231.0" type="line" smooth="yes"/>
      <point x="408.6142742452821" y="1230.3827624647668"/>
      <point x="355.55391543930114" y="1199.9676449849346"/>
      <point x="341.28718640067666" y="1138.7907085508248" type="curve" smooth="yes"/>
      <point x="121.38366709639166" y="61.793842308487626" type="line" smooth="yes"/>
      <point x="111.70971160162985" y="6.113270960919158"/>
      <point x="151.40677411956884" y="-42.833395738832294"/>
      <point x="216.23673019291536" y="-44.0" type="curve" smooth="yes"/>
      <point x="218.23673019291536" y="-44.0" type="line" smooth="yes"/>
      <point x="282.44732729105" y="-42.993728120539856"/>
      <point x="325.55449712350725" y="-5.036045769882582"/>
      <point x="337.02524724279283" y="48.26995388742624" type="curve" smooth="yes"/>
      <point x="494.63270320740617" y="846.7996082982901" type="line"/>
      <point x="563.7395011812267" y="412.5851483855988" type="line" smooth="yes"/>
      <point x="580.4327396669543" y="358.4316223340021"/>
      <point x="623.7634492674119" y="325.0442193065604"/>
      <point x="677.1250590936305" y="324.0" type="curve" smooth="yes"/>
      <point x="729.8367701342331" y="324.8861129912804"/>
      <point x="775.260412721781" y="352.1069603428304"/>
      <point x="809.0364205033393" y="403.65532121971654" type="curve" smooth="yes"/>
      <point x="1034.9877858358095" y="854.1787906558554" type="line"/>
      <point x="910.0776865809196" y="60.06711017805732" type="line" smooth="yes"/>
      <point x="902.7576808344146" y="5.596908305787272"/>
      <point x="941.2887205211516" y="-42.80141952589892"/>
      <point x="1006.2367301929154" y="-44.0" type="curve" smooth="yes"/>
      <point x="1008.2367301929154" y="-44.0" type="line" smooth="yes"/>
      <point x="1072.3472564526803" y="-43.018470040110294"/>
      <point x="1116.732111216452" y="-4.637392930975562"/>
      <point x="1126.3280969791074" y="49.9984505493515" type="curve" smooth="yes"/>
      <point x="1286.2317756286657" y="1126.9952269885114" type="line" smooth="yes"/>
      <point x="1293.3686078904575" y="1190.3839018311448"/>
      <point x="1243.057872807357" y="1230.2727710433744"/>
      <point x="1189.0633959080326" y="1231.0" type="curve" smooth="yes"/>
    </contour>
  </outline>
</glyph>
<glyph name="O" format="2">
  <advance width="1228"/>
  <unicode hex="004F"/>
  <outline>
    <contour>
      <point x="161.07843595770467" y="598.9040380406757" type="curve" smooth="yes"/>
      <point x="95.76650763186424" y="217.51350455907848"/>
      <point x="279.68411801967125" y="-52.293706460169034"/>
      <point x="610.1208064244138" y="-56.0" type="curve" smooth="yes"/>
      <point x="938.6030018456192" y="-53.21266420260254"/>
      <point x="1207.5335837843168" y="207.40529745296024"/>
      <point x="1276.0453631625346" y="587.0959619593244" type="curve" smooth="yes"/>
      <point x="1341.3602348979937" y="968.4684636616523"/>
      <point x="1157.670466286553" y="1239.2658946126974"/>
      <point x="827.1793196765342" y="1243.0" type="curve" smooth="yes"/>
      <point x="498.6543313309412" y="1240.194145127757"/>
      <point x="229.58342326631117" y="978.5815367766611"/>
    </contour>
    <contour>
      <point x="1055.0784359577046" y="598.9040380406757" type="curve" smooth="yes"/>
      <point x="1006.8828737808687" y="317.93491755708715"/>
      <point x="846.4937153143752" y="157.10733000284256"/>
      <point x="636.2171995692665" y="160.0" type="curve" smooth="yes"/>
      <point x="427.96121690746793" y="156.13512764290894"/>
      <point x="331.1155569132222" y="307.5919709061962"/>
      <point x="382.04536316253484" y="587.0959619593243" type="curve" smooth="yes"/>
      <point x="430.24897481423534" y="868.0815561106224"/>
      <point x="590.8661617328348" y="1029.9190986715366"/>
      <point x="801.0829265316813" y="1027.0" type="curve" smooth="yes"/>
      <point x="1009.26270751274" y="1030.9048065267436"/>
      <point x="1106.0052376055362" y="878.4301261668015"/>
    </contour>
  </outline>
</glyph>
<glyph name="P" format="2">
  <advance width="1228"/>
  <unicode hex="0050"/>
  <outline>
    <contour>
      <point x="507.3001261009479" y="1221.0" type="line" smooth="yes"/>
      <point x="453.3760202867373" y="1219.8079309834798"/>
      <point x="410.0173855950863" y="1182.7200273224285"/>
      <point x="398.82642781035725" y="1124.9040380406757" type="curve" smooth="yes"/>
      <point x="211.2145203365505" y="60.90403804067564" type="line" smooth="yes"/>
      <point x="202.75768083441454" y="5.596908305787302"/>
      <point x="242.40677411956884" y="-42.833395738832294"/>
      <point x="307.23673019291533" y="-44.0" type="curve" smooth="yes"/>
      <point x="309.23673019291533" y="-44.0" type="line" smooth="yes"/>
      <point x="373.34725645268037" y="-43.018470040110294"/>
      <point x="417.55449712350725" y="-5.036045769882582"/>
      <point x="428.18144754138063" y="49.09596195932437" type="curve" smooth="yes"/>
      <point x="479.18424500961385" y="369.8353649178258" type="line"/>
      <point x="709.2965034184267" y="359.0" type="line" smooth="yes"/>
      <point x="1000.4616073825442" y="360.8855102255937"/>
      <point x="1199.1596402535213" y="536.361824680316"/>
      <point x="1244.4291244006854" y="782.0959619593243" type="curve" smooth="yes"/>
      <point x="1285.8686130201654" y="1030.8160280415611"/>
      <point x="1142.041649534116" y="1218.5222711840697"/>
      <point x="849.3001261009479" y="1221.0" type="curve" smooth="yes"/>
    </contour>
    <contour>
      <point x="512.3758661334303" y="546.3528880321339" type="line"/>
      <point x="597.5621607086271" y="1024.697029639292" type="line"/>
      <point x="802.909040878929" y="1009.0" type="line" smooth="yes"/>
      <point x="989.1718706868041" y="1010.7399135731886"/>
      <point x="1052.1541701997119" y="941.5784991375361"/>
      <point x="1023.4621971958553" y="793.9040380406756" type="curve" smooth="yes"/>
      <point x="999.5331128780045" y="646.1177638960233"/>
      <point x="901.1618418327031" y="569.6383232987662"/>
      <point x="713.6875886404457" y="571.0" type="curve" smooth="yes"/>
    </contour>
  </outline>
</glyph>
<glyph name="Q" format="2">
  <advance width="1228"/>
  <unicode hex="0051"/>
  <outline>
    <contour>
      <point x="619.0448583372716" y="285.7144185968828" type="curve" smooth="yes"/>
      <point x="713.8845081874556" y="80.7432197296871" type="line"/>
      <point x="732.7171533276501" y="39.609636694234666" type="line"/>
      <point x="821.4398690387683" y="-149.4937630501317" type="line" smooth="yes"/>
      <point x="846.2457252636251" y="-196.8317373859815"/>
      <point x="905.5271206360908" y="-211.46843019282863"/>
      <point x="964.5260506466154" y="-178.5601302524847" type="curve" smooth="yes"/>
      <point x="1023.8180629896261" y="-144.22133221319908"/>
      <point x="1044.4882944840504" y="-87.57162534084355"/>
      <point x="1023.2919639751846" y="-39.629169649245625" type="curve" smooth="yes"/>
      <point x="821.0101943166309" y="395.33648700004426" type="line" smooth="yes"/>
      <point x="796.6212081368334" y="443.5077856060802"/>
      <point x="737.0256435989" y="458.46843019282863"/>
      <point x="677.716399070402" y="425.38161330720914" type="curve" smooth="yes"/>
      <point x="619.5583742646562" y="390.22133221319905"/>
      <point x="598.0012409230917" y="335.08291319653813"/>
    </contour>
    <component base="O"/>
  </outline>
</glyph>
<glyph name="S" format="2">
  <advance width="1228"/>
  <unicode hex="0053"/>
  <outline>
    <contour>
      <point x="290.6867207489902" y="868.9040380406757" type="curve" smooth="yes"/>
      <point x="266.0326905130619" y="718.9845549523551"/>
      <point x="334.4188318018197" y="624.5553085669096"/>
      <point x="428.2011248090203" y="577.4905001041983" type="curve" smooth="yes"/>
      <point x="562.5401236600502" y="512.6736177857227"/>
      <point x="753.9845452200403" y="510.522424141925"/>
      <point x="859.5395379723899" y="461.11341610813145" type="curve" smooth="yes"/>
      <point x="920.2884729884388" y="433.50328397310614"/>
      <point x="947.5929306850364" y="407.6746690674133"/>
      <point x="932.175459089253" y="332.90403804067563" type="curve" smooth="yes"/>
      <point x="916.0730760043614" y="227.1039781060892"/>
      <point x="830.168910552351" y="158.7738991556752"/>
      <point x="644.2171995692665" y="160.0" type="curve" smooth="yes"/>
      <point x="519.2622926441733" y="159.4582852178009"/>
      <point x="410.93147369510615" y="201.11653177902562"/>
      <point x="330.85219957090254" y="259.5358548098299" type="curve" smooth="yes"/>
      <point x="296.56014941661914" y="282.34506213618346"/>
      <point x="232.23553104547338" y="278.4790437862055"/>
      <point x="188.1871217574514" y="218.42887879138863" type="curve" smooth="yes"/>
      <point x="150.88130386752027" y="163.17842378561872"/>
      <point x="155.64495889179764" y="99.22776017257709"/>
      <point x="198.16542614493875" y="66.08443653252124" type="curve" smooth="yes"/>
      <point x="308.27591012054694" y="-9.78738259235044"/>
      <point x="460.22349261091466" y="-55.645450174014776"/>
      <point x="618.1208064244138" y="-56.0" type="curve" smooth="yes"/>
      <point x="922.1105989183397" y="-54.499293006591714"/>
      <point x="1112.5588798434221" y="103.62191466170869"/>
      <point x="1153.142386294083" y="321.09596195932437" type="curve" smooth="yes"/>
      <point x="1184.2335882137147" y="508.5671784537758"/>
      <point x="1096.3016762159746" y="614.6414462121217"/>
      <point x="981.3224855413333" y="665.1914599525785" type="curve" smooth="yes"/>
      <point x="833.5168951389708" y="728.4718292886225"/>
      <point x="637.4297960529201" y="727.4557928744554"/>
      <point x="551.4182462180446" y="777.713673753646" type="curve" smooth="yes"/>
      <point x="513.6706990307479" y="797.4492772495128"/>
      <point x="501.9565215928603" y="811.7917392847147"/>
      <point x="511.6536479538204" y="857.0959619593243" type="curve" smooth="yes"/>
      <point x="528.3066455131988" y="966.6524110559376"/>
      <point x="614.4429349321247" y="1028.3137606515581"/>
      <point x="765.0829265316813" y="1027.0" type="curve" smooth="yes"/>
      <point x="891.3526193773538" y="1027.3306638879571"/>
      <point x="992.7476475219585" y="996.1720944045261"/>
      <point x="1075.0329674024358" y="940.6890294888127" type="curve" smooth="yes"/>
      <point x="1110.7360445122204" y="919.2480005267385"/>
      <point x="1175.4842354910245" y="924.967123219809"/>
      <point x="1216.7070645822366" y="985.7309763762944" type="curve" smooth="yes"/>
      <point x="1251.8688056171163" y="1042.5672031230963"/>
      <point x="1246.0436696475026" y="1105.7293596172124"/>
      <point x="1201.804546227136" y="1137.6818442314561" type="curve" smooth="yes"/>
      <point x="1087.819540955042" y="1209.3723347609257"/>
      <point x="947.8746672043366" y="1242.7985858675886"/>
      <point x="791.1793196765342" y="1243.0" type="curve" smooth="yes"/>
      <point x="541.3832893671687" y="1241.558221545072"/>
      <point x="334.0054991852091" y="1098.6512542519615"/>
    </contour>
  </outline>
</glyph>
<glyph name="T" format="2">
  <advance width="1228"/>
  <unicode hex="0054"/>
  <outline>
    <contour>
      <point x="394.3001261009479" y="1221.0" type="line" smooth="yes"/>
      <point x="339.51142354977844" y="1219.5604254020848"/>
      <point x="296.4972952191812" y="1180.3339268238733"/>
      <point x="285.1211198875234" y="1120.9040380406757" type="curve" smooth="yes"/>
      <point x="275.52747770215245" y="1060.5018876889433"/>
      <point x="313.0717406724422" y="1010.7734127740079"/>
      <point x="368.909040878929" y="1009.0" type="curve" smooth="yes"/>
      <point x="689.458373503122" y="1036.9128946030878" type="line"/>
      <point x="515.2145203365504" y="60.90403804067563" type="line" smooth="yes"/>
      <point x="506.7576808344146" y="5.596908305787272"/>
      <point x="546.4067741195688" y="-42.833395738832294"/>
      <point x="611.2367301929154" y="-44.0" type="curve" smooth="yes"/>
      <point x="613.2367301929154" y="-44.0" type="line" smooth="yes"/>
      <point x="677.3472564526804" y="-43.018470040110294"/>
      <point x="721.5544971235073" y="-5.036045769882536"/>
      <point x="732.1814475413806" y="49.09596195932437" type="curve" smooth="yes"/>
      <point x="902.8929247478429" y="1026.9698188364735" type="line"/>
      <point x="1226.9090408789289" y="1009.0" type="line" smooth="yes"/>
      <point x="1281.6977434300984" y="1010.4395745979152"/>
      <point x="1324.7118717606957" y="1049.6660731761267"/>
      <point x="1336.0880470923535" y="1109.0959619593243" type="curve" smooth="yes"/>
      <point x="1345.6816892777244" y="1169.4981123110567"/>
      <point x="1308.1374263074347" y="1219.2265872259923"/>
      <point x="1252.3001261009479" y="1221.0" type="curve" smooth="yes"/>
    </contour>
  </outline>
</glyph>
<glyph name="U" format="2">
  <advance width="1228"/>
  <unicode hex="0055"/>
  <outline>
    <contour>
      <point x="1188.0633959080326" y="1231.0" type="line" smooth="yes"/>
      <point x="1123.9528696482676" y="1230.0184700401103"/>
      <point x="1079.7456289774407" y="1192.0360457698825"/>
      <point x="1069.1186785595673" y="1137.9040380406757" type="curve" smooth="yes"/>
      <point x="945.8661190443503" y="438.90403804067563" type="line" smooth="yes"/>
      <point x="912.5683221658975" y="240.8010763286615"/>
      <point x="807.765421731343" y="158.35367583485208"/>
      <point x="636.2171995692665" y="160.0" type="curve" smooth="yes"/>
      <point x="465.863146962673" y="157.94326078079712"/>
      <point x="398.18037284257457" y="230.77011329680084"/>
      <point x="434.83304624918037" y="427.09596195932437" type="curve" smooth="yes"/>
      <point x="558.0856057643974" y="1126.0959619593243" type="line" smooth="yes"/>
      <point x="566.5424452665334" y="1181.4030916942127"/>
      <point x="526.8933519813792" y="1229.8333957388322"/>
      <point x="462.0633959080326" y="1231.0" type="curve" smooth="yes"/>
      <point x="460.0633959080326" y="1231.0" type="line" smooth="yes"/>
      <point x="395.95286964826755" y="1230.0184700401103"/>
      <point x="351.7456289774407" y="1192.0360457698825"/>
      <point x="341.11867855956723" y="1137.9040380406757" type="curve" smooth="yes"/>
      <point x="214.33957943018098" y="418.90403804067563" type="line" smooth="yes"/>
      <point x="164.47273404980209" y="120.21664069515877"/>
      <point x="338.5028097681281" y="-53.953437275112265"/>
      <point x="610.1208064244138" y="-56.0" type="curve" smooth="yes"/>
      <point x="880.5497785607934" y="-54.36103428783789"/>
      <point x="1104.8809193521574" y="110.77033313121726"/>
      <point x="1159.306506635011" y="407.09596195932437" type="curve" smooth="yes"/>
      <point x="1286.0856057643973" y="1126.0959619593243" type="line" smooth="yes"/>
      <point x="1294.5424452665334" y="1181.4030916942127"/>
      <point x="1254.893351981379" y="1229.8333957388322"/>
      <point x="1190.0633959080326" y="1231.0" type="curve" smooth="yes"/>
    </contour>
  </outline>
</glyph>
<glyph name="V" format="2">
  <advance width="1228"/>
  <unicode hex="0056"/>
  <outline>
    <contour>
      <point x="1146.1420121581668" y="1167.3506413283449" type="curve" smooth="yes"/>
      <point x="644.0915104889407" y="216.0" type="line"/>
      <point x="487.318555564038" y="1157.5342670797743" type="line" smooth="yes"/>
      <point x="475.4288044973251" y="1211.5177709825546"/>
      <point x="420.2536798177799" y="1240.9025035000677"/>
      <point x="356.36078344464977" y="1221.4048577472722" type="curve" smooth="yes"/>
      <point x="292.93455793391036" y="1200.7032814782938"/>
      <point x="257.54035553508345" y="1151.4563392012685"/>
      <point x="267.1520271710665" y="1096.316518107933" type="curve" smooth="yes"/>
      <point x="479.2446707499971" y="36.320294420549565" type="line" smooth="yes"/>
      <point x="493.0487723063773" y="-21.340016630920037"/>
      <point x="544.141941221409" y="-55.27604905150682"/>
      <point x="608.1208064244138" y="-56.0" type="curve" smooth="yes"/>
      <point x="671.6373380794458" y="-55.369669090192744"/>
      <point x="724.9994054764107" y="-27.35973321468341"/>
      <point x="756.3353691504497" y="26.54580282294191" type="curve" smooth="yes"/>
      <point x="1342.240483966376" y="1086.543118336141" type="line" smooth="yes"/>
      <point x="1370.4498578569828" y="1139.6806186917222"/>
      <point x="1346.8476562457631" y="1198.9437124400906"/>
      <point x="1288.1031034593532" y="1221.0139046994332" type="curve" smooth="yes"/>
      <point x="1229.4699873297275" y="1240.8970920705854"/>
      <point x="1174.5450014090725" y="1217.8623162255503"/>
    </contour>
  </outline>
</glyph>
<glyph name="W" format="2">
  <advance width="1228"/>
  <unicode hex="0057"/>
  <outline>
    <contour>
      <point x="1171.3016841909423" y="1148.8737150210766" type="curve" smooth="yes"/>
      <point x="915.3699949200785" y="284.6429287095709" type="line"/>
      <point x="866.481413285185" y="850.8946671769338" type="line" smooth="yes"/>
      <point x="858.0725111176706" y="887.9185988478923"/>
      <point x="817.4776538297788" y="918.1786183725615"/>
      <point x="766.0493779269915" y="919.0" type="curve" smooth="yes"/>
      <point x="715.1413960927473" y="918.2908363814691"/>
      <point x="673.6379248154005" y="894.1052584424922"/>
      <point x="654.9385730657368" y="860.8912910040796" type="curve" smooth="yes"/>
      <point x="399.6551308026937" y="280.8655858661715" type="line"/>
      <point x="451.7954016801613" y="1137.3301760051554" type="line" smooth="yes"/>
      <point x="453.2120182112419" y="1193.8211097285373"/>
      <point x="407.4839789236893" y="1235.6956666358678"/>
      <point x="342.04456657898925" y="1229.7821724538703" type="curve" smooth="yes"/>
      <point x="277.6271096536909" y="1221.1626272564804"/>
      <point x="234.94093466306683" y="1179.9592924734109"/>
      <point x="231.86311543346733" y="1123.2837217828933" type="curve" smooth="yes"/>
      <point x="190.60661915794086" y="44.29205572811718" type="line" smooth="yes"/>
      <point x="190.97367049196836" y="-17.57685067152554"/>
      <point x="241.1321919091167" y="-55.274002872461544"/>
      <point x="299.1208064244138" y="-56.0" type="curve" smooth="yes"/>
      <point x="357.69466649184113" y="-55.145688161192695"/>
      <point x="411.5424328709949" y="-25.15674095391393"/>
      <point x="440.6268415831607" y="27.084249629273714" type="curve" smooth="yes"/>
      <point x="720.9096708656244" y="595.0" type="line"/>
      <point x="791.1029185123406" y="37.0715032398338" type="line" smooth="yes"/>
      <point x="803.2046359139615" y="-19.00372960610413"/>
      <point x="853.9202810086779" y="-54.99623285931092"/>
      <point x="913.1208064244138" y="-56.0" type="curve" smooth="yes"/>
      <point x="970.645861647691" y="-55.368003451408086"/>
      <point x="1022.6023966079161" y="-25.771306686327378"/>
      <point x="1043.014698879656" y="32.795885812132774" type="curve" smooth="yes"/>
      <point x="1382.269229604261" y="1111.7886372761193" type="line" smooth="yes"/>
      <point x="1399.1237320205728" y="1168.5870026802193"/>
      <point x="1363.0052182018076" y="1220.6767623347343"/>
      <point x="1299.8879635176866" y="1229.763780038331" type="curve" smooth="yes"/>
      <point x="1236.6084958221459" y="1235.7223140410836"/>
      <point x="1188.8281562725456" y="1203.2558775534703"/>
    </contour>
  </outline>
</glyph>
<glyph name="X" format="2">
  <advance width="1228"/>
  <unicode hex="0058"/>
  <outline>
    <contour>
      <point x="1195.622589659874" y="1242.412804281344"/>
      <point x="1138.9098027059963" y="1240.0767792515776"/>
      <point x="1096.6056346801968" y="1193.8499206458907" type="curve" smooth="yes"/>
      <point x="666.1071259057263" y="679.2141356415748" type="line"/>
      <point x="623.600801058079" y="645.7682157634123" type="line"/>
      <point x="154.1267327418908" y="111.41340669370572" type="line" smooth="yes"/>
      <point x="114.19937730314432" y="61.94163272564727"/>
      <point x="127.50371476735282" y="-2.8830703810962213"/>
      <point x="178.9646839942371" y="-30.494905682865294" type="curve" smooth="yes"/>
      <point x="230.2685843041086" y="-55.2804160903842"/>
      <point x="287.21399641424307" y="-54.076779251577534"/>
      <point x="329.5616442040467" y="-7.0073309156340216" type="curve" smooth="yes"/>
      <point x="754.5531464023122" y="493.5889385366636" type="line"/>
      <point x="799.7381456128237" y="529.4045838021297" type="line"/>
      <point x="1272.3121530090016" y="1075.7458681436738" type="line" smooth="yes"/>
      <point x="1313.1007487978036" y="1125.0583672743528"/>
      <point x="1298.550742065282" y="1190.1294565476626"/>
      <point x="1247.3354421067108" y="1217.4949056828652" type="curve" smooth="yes"/>
    </contour>
    <contour>
      <point x="356.45598851643973" y="1193.3921376114072"/>
      <point x="325.7190614341876" y="1135.998593892457"/>
      <point x="350.3424085849183" y="1082.5063560041328" type="curve" smooth="yes"/>
      <point x="621.9525571755041" y="551.0466639927994" type="line"/>
      <point x="648.5810864041996" y="521.2013126146852" type="line"/>
      <point x="911.2539645278165" y="-0.24436797000230293" type="line" smooth="yes"/>
      <point x="939.835159744983" y="-51.92881036120559"/>
      <point x="1000.495911729733" y="-55.63081582316669"/>
      <point x="1059.1662802634023" y="-31.347233753962158" type="curve" smooth="yes"/>
      <point x="1116.073583065806" y="-6.221938036463509"/>
      <point x="1146.7573916474687" y="52.00140610754313"/>
      <point x="1121.740105948942" y="104.91155274032265" type="curve" smooth="yes"/>
      <point x="836.5713346453894" y="644.3001321276213" type="line"/>
      <point x="812.8132379113542" y="670.3868211251688" type="line"/>
      <point x="561.1972550502975" y="1186.9393500498804" type="line" smooth="yes"/>
      <point x="531.2886393752565" y="1237.9288103612057"/>
      <point x="472.03890506343475" y="1242.69859822797"/>
      <point x="413.13384583754566" y="1218.3472337539622" type="curve" smooth="yes"/>
    </contour>
  </outline>
</glyph>
<glyph name="Y" format="2">
  <advance width="1228"/>
  <unicode hex="0059"/>
  <outline>
    <contour>
      <point x="605.6584611555744" y="566.6664156790109" type="line"/>
      <point x="515.2145203365504" y="60.90403804067563" type="line" smooth="yes"/>
      <point x="506.7576808344146" y="5.596908305787272"/>
      <point x="546.4067741195688" y="-42.833395738832294"/>
      <point x="611.2367301929154" y="-44.0" type="curve" smooth="yes"/>
      <point x="613.2367301929154" y="-44.0" type="line" smooth="yes"/>
      <point x="677.3472564526804" y="-43.018470040110294"/>
      <point x="721.5544971235073" y="-5.036045769882536"/>
      <point x="732.1814475413806" y="49.09596195932437" type="curve" smooth="yes"/>
      <point x="820.0679282164047" y="556.2332534116143" type="line"/>
    </contour>
    <contour>
      <point x="1226.307758593116" y="1243.0569798342096"/>
      <point x="1170.5453880500131" y="1233.2437108872791"/>
      <point x="1135.4314883920683" y="1193.6406059905066" type="curve" smooth="yes"/>
      <point x="633.5051743683417" y="583.952522837875" type="line"/>
      <point x="774.2143852366931" y="434.16563667304507" type="line"/>
      <point x="1307.3954917393096" y="1074.2596734387644" type="line" smooth="yes"/>
      <point x="1345.1971917855865" y="1121.7935276138055"/>
      <point x="1336.3450122106694" y="1186.8042055831734"/>
      <point x="1279.5426553624927" y="1217.391862425836" type="curve" smooth="yes"/>
    </contour>
    <contour>
      <point x="305.66687228937116" y="1190.198945237266"/>
      <point x="280.5013410302518" y="1132.3741220937682"/>
      <point x="302.5819559751439" y="1081.3302022731282" type="curve" smooth="yes"/>
      <point x="605.0145145288305" y="451.56018471088515" type="line"/>
      <point x="801.9691672413363" y="567.2131176905096" type="line"/>
      <point x="510.4054574507814" y="1186.5059636779483" type="line" smooth="yes"/>
      <point x="486.90087288908137" y="1230.554567098942"/>
      <point x="429.0805174711405" y="1243.212535213764"/>
      <point x="368.9706345336449" y="1218.2781817655246" type="curve" smooth="yes"/>
    </contour>
  </outline>
</glyph>
<glyph name="Z" format="2">
  <advance width="1228"/>
  <unicode hex="005A"/>
  <outline>
    <contour>
      <point x="465.3001261009479" y="1221.0" type="line" smooth="yes"/>
      <point x="410.51142354977844" y="1219.5604254020848"/>
      <point x="367.4972952191812" y="1180.3339268238733"/>
      <point x="356.1211198875234" y="1120.9040380406757" type="curve" smooth="yes"/>
      <point x="346.52747770215245" y="1060.5018876889433"/>
      <point x="384.0717406724422" y="1010.7734127740079"/>
      <point x="439.909040878929" y="1009.0" type="curve" smooth="yes"/>
      <point x="972.4796885575396" y="1051.4567760854143" type="line"/>
      <point x="174.83602548849234" y="133.21811060615232" type="line" smooth="yes"/>
      <point x="163.0777389472164" y="119.15962554172522"/>
      <point x="150.27552444492932" y="97.79480613582511"/>
      <point x="145.50677108576056" y="73.90403804067563" type="curve" smooth="yes"/>
      <point x="136.3058969302536" y="15.006784355798057"/>
      <point x="175.2041297355238" y="-32.55826969851977"/>
      <point x="230.0" y="-34.0" type="curve" smooth="yes"/>
      <point x="996.0" y="-34.0" type="line" smooth="yes"/>
      <point x="1050.7887025511695" y="-32.56042540208479"/>
      <point x="1093.8028308817666" y="6.6660731761266945"/>
      <point x="1105.1790062134244" y="66.09596195932438" type="curve" smooth="yes"/>
      <point x="1114.7726483987954" y="126.49811231105664"/>
      <point x="1077.2283854285058" y="176.22658722599218"/>
      <point x="1021.391085222019" y="178.0" type="curve" smooth="yes"/>
      <point x="446.14021511948704" y="136.89399120030853" type="line"/>
      <point x="1247.1610133444974" y="1057.7721685670585" type="line" smooth="yes"/>
      <point x="1259.2080109593808" y="1072.2707318216749"/>
      <point x="1268.231346323276" y="1093.839406455162"/>
      <point x="1271.7933550151872" y="1113.0959619593243" type="curve" smooth="yes"/>
      <point x="1280.9942291706943" y="1171.9932156442019"/>
      <point x="1242.095996365424" y="1219.5582696985198"/>
      <point x="1187.3001261009479" y="1221.0" type="curve" smooth="yes"/>
    </contour>
  </outline>
</glyph>
<glyph name="bracketleft" format="2">
  <advance width="1228"/>
  <unicode hex="005B"/>
  <outline>
    <contour>
      <point x="634.9206175320139" y="1406.0" type="line" smooth="yes"/>
      <point x="580.9965117178033" y="1404.8079309834798"/>
      <point x="537.6378770261524" y="1367.7200273224285"/>
      <point x="526.4469192414232" y="1309.9040380406757" type="curve" smooth="yes"/>
      <point x="249.7898865098417" y="-259.09596195932437" type="line" smooth="yes"/>
      <point x="240.58901235433476" y="-317.993215644202"/>
      <point x="279.487245159605" y="-365.5582696985198"/>
      <point x="334.2831154240812" y="-367.0" type="curve" smooth="yes"/>
      <point x="748.2831154240812" y="-367.0" type="line" smooth="yes"/>
      <point x="803.0718179752507" y="-365.5604254020848"/>
      <point x="846.0859463058479" y="-326.33392682387336"/>
      <point x="857.4621216375058" y="-266.90403804067563" type="curve" smooth="yes"/>
      <point x="867.0557638228767" y="-206.50188768894324"/>
      <point x="829.5115008525868" y="-156.77341277400782"/>
      <point x="773.6742006461001" y="-155.0" type="curve" smooth="yes"/>
      <point x="480.62392508349217" y="-187.1517006126854" type="line"/>
      <point x="728.0200955631822" y="1215.1803110023288" type="line"/>
      <point x="1023.5295323099949" y="1194.0" type="line" smooth="yes"/>
      <point x="1078.3182348611645" y="1195.4395745979152"/>
      <point x="1121.3323631917617" y="1234.6660731761267"/>
      <point x="1132.7085385234195" y="1294.0959619593243" type="curve" smooth="yes"/>
      <point x="1142.3021807087905" y="1354.4981123110567"/>
      <point x="1104.7579177385007" y="1404.2265872259923"/>
      <point x="1048.920617532014" y="1406.0" type="curve" smooth="yes"/>
    </contour>
  </outline>
</glyph>
<glyph name="backslash" format="2">
  <advance width="1228"/>
  <unicode hex="005C"/>
  <outline>
    <contour>
      <point x="401.3399825857068" y="1316.3014096423817" type="curve" smooth="yes"/>
      <point x="783.6381231015471" y="-326.71307191599504" type="line" smooth="yes"/>
      <point x="794.7226410767065" y="-360.230659578487"/>
      <point x="834.2020517543355" y="-387.73111038095425"/>
      <point x="875.403921848495" y="-389.0" type="curve" smooth="yes"/>
      <point x="947.3280276627056" y="-387.80793098347976"/>
      <point x="1015.5132893810483" y="-341.3338285177372"/>
      <point x="1009.8637503703883" y="-277.3014096423817" type="curve" smooth="yes"/>
      <point x="627.565609854548" y="1365.713071915995" type="line" smooth="yes"/>
      <point x="616.4810918793886" y="1399.2306595784871"/>
      <point x="577.0016812017597" y="1426.7311103809543"/>
      <point x="535.7998111076001" y="1428.0" type="curve" smooth="yes"/>
      <point x="463.8757052933895" y="1426.8079309834798"/>
      <point x="395.69044357504686" y="1380.3338285177372"/>
    </contour>
  </outline>
</glyph>
<glyph name="bracketright" format="2">
  <advance width="1228"/>
  <unicode hex="005D"/>
  <outline>
    <contour>
      <point x="387.67420064610013" y="-155.0" type="line" smooth="yes"/>
      <point x="332.88549809493065" y="-156.43957459791523"/>
      <point x="289.87136976433345" y="-195.66607317612664"/>
      <point x="278.4951944326756" y="-255.09596195932437" type="curve" smooth="yes"/>
      <point x="268.90155224730466" y="-315.49811231105673"/>
      <point x="306.44581521759443" y="-365.2265872259922"/>
      <point x="362.2831154240812" y="-367.0" type="curve" smooth="yes"/>
      <point x="776.2831154240812" y="-367.0" type="line" smooth="yes"/>
      <point x="830.2072212382918" y="-365.80793098347976"/>
      <point x="873.5658559299427" y="-328.72002732242845"/>
      <point x="884.7568137146719" y="-270.90403804067563" type="curve" smooth="yes"/>
      <point x="1161.4138464462533" y="1298.0959619593243" type="line" smooth="yes"/>
      <point x="1170.6147206017602" y="1356.9932156442019"/>
      <point x="1131.7164877964901" y="1404.5582696985198"/>
      <point x="1076.920617532014" y="1406.0" type="curve" smooth="yes"/>
      <point x="662.9206175320139" y="1406.0" type="line" smooth="yes"/>
      <point x="608.1319149808444" y="1404.5604254020848"/>
      <point x="565.1177866502472" y="1365.3339268238733"/>
      <point x="553.7416113185894" y="1305.9040380406757" type="curve" smooth="yes"/>
      <point x="544.1479691332185" y="1245.5018876889433"/>
      <point x="581.6922321035082" y="1195.7734127740077"/>
      <point x="637.5295323099949" y="1194.0" type="curve" smooth="yes"/>
      <point x="930.5798078726029" y="1226.1517006126853" type="line"/>
      <point x="683.1836373929128" y="-176.18031100232875" type="line"/>
    </contour>
  </outline>
</glyph>
<glyph name="asciicircum" format="2">
  <advance width="1228"/>
  <unicode hex="005E"/>
  <outline>
    <contour>
      <point x="724.7788055088125" y="1191.4654935103424" type="curve" smooth="yes"/>
      <point x="312.5649641405548" y="600.4589102807241" type="line" smooth="yes"/>
      <point x="282.46493647068723" y="547.978318651531"/>
      <point x="319.6687138937177" y="491.8186314245215"/>
      <point x="361.8487143866586" y="476.7951474566699" type="curve" smooth="yes"/>
      <point x="402.7575515303138" y="463.22176443946785"/>
      <point x="465.72659956004986" y="469.2767864594304"/>
      <point x="498.1522625943273" y="508.04787106872357" type="curve" smooth="yes"/>
      <point x="791.5612695734242" y="973.0" type="line"/>
      <point x="911.5209656971921" y="516.7032672399088" type="line" smooth="yes"/>
      <point x="936.4149387668755" y="469.3122690057527"/>
      <point x="1003.7748594124521" y="462.27513825319306"/>
      <point x="1050.1185634269907" y="477.8948050985132" type="curve" smooth="yes"/>
      <point x="1091.2614776225664" y="492.68254540778497"/>
      <point x="1136.0848578535683" y="537.875796291559"/>
      <point x="1124.5918382392797" y="592.0744538238246" type="curve" smooth="yes"/>
      <point x="920.7900050634668" y="1183.1065601461535" type="line" smooth="yes"/>
      <point x="908.945796629361" y="1213.6519218313156"/>
      <point x="874.321192789017" y="1242.0107543418842"/>
      <point x="827.1793196765342" y="1243.0" type="curve" smooth="yes"/>
      <point x="780.6557404889536" y="1242.1571373343388"/>
      <point x="745.3612572165848" y="1219.5474958313907"/>
    </contour>
  </outline>
</glyph>
<glyph name="underscore" format="2">
  <advance width="1228"/>
  <unicode hex="005F"/>
  <outline>
    <contour>
      <point x="89.09458180359222" y="-215.0" type="line" smooth="yes"/>
      <point x="34.305879252422756" y="-216.43957459791523"/>
      <point x="-8.708249078174507" y="-255.66607317612664"/>
      <point x="-20.084424409832337" y="-315.09596195932437" type="curve" smooth="yes"/>
      <point x="-29.67806659520324" y="-375.49811231105673"/>
      <point x="7.866196375086526" y="-425.2265872259922"/>
      <point x="63.70349658157326" y="-427.0" type="curve" smooth="yes"/>
      <point x="1025.7034965815733" y="-427.0" type="line" smooth="yes"/>
      <point x="1080.4921991327428" y="-425.5604254020848"/>
      <point x="1123.5063274633399" y="-386.3339268238733"/>
      <point x="1134.8825027949977" y="-326.90403804067563" type="curve" smooth="yes"/>
      <point x="1144.4761449803686" y="-266.5018876889434"/>
      <point x="1106.931882010079" y="-216.77341277400782"/>
      <point x="1051.0945818035923" y="-215.0" type="curve" smooth="yes"/>
    </contour>
  </outline>
</glyph>
<glyph name="a" format="2">
  <advance width="1228"/>
  <unicode hex="0061"/>
  <outline>
    <contour>
      <point x="671.7689470181929" y="979.7595566155311"/>
      <point x="525.9710571018633" y="946.1051949014868"/>
      <point x="399.98389875019535" y="885.6215542269682" type="curve" smooth="yes"/>
      <point x="355.5640760301735" y="862.904610264227"/>
      <point x="324.3814007661623" y="809.410092076327"/>
      <point x="339.63611430100957" y="751.1724389914834" type="curve" smooth="yes"/>
      <point x="357.80802904468993" y="696.1043208799202"/>
      <point x="414.58543051871015" y="669.1940717314872"/>
      <point x="465.74506778939275" y="691.2173200381488" type="curve" smooth="yes"/>
      <point x="567.3047402101585" y="738.9527415926012"/>
      <point x="678.8463652224164" y="767.3137690632216"/>
      <point x="775.2379115474805" y="767.0" type="curve" smooth="yes"/>
      <point x="929.2699301761602" y="768.2040351548601"/>
      <point x="961.1963864381006" y="734.974983071636"/>
      <point x="938.604975571874" y="618.9040380406757" type="curve" smooth="yes"/>
      <point x="877.6580109965552" y="273.2153563191924" type="line"/>
      <point x="864.7904871106853" y="143.36251305919095" type="line"/>
      <point x="850.2145203365504" y="60.90403804067562" type="line" smooth="yes"/>
      <point x="841.669529391999" y="6.631653335862342"/>
      <point x="878.7845392726896" y="-42.65970126635576"/>
      <point x="941.2367301929154" y="-44.0" type="curve" smooth="yes"/>
      <point x="943.2367301929154" y="-44.0" type="line" smooth="yes"/>
      <point x="1004.8726977226333" y="-42.88495195109242"/>
      <point x="1046.9065248223758" y="-4.231922898651778"/>
      <point x="1057.1814475413805" y="49.09596195932437" type="curve"/>
      <point x="1155.571902776704" y="607.0959619593243" type="line" smooth="yes"/>
      <point x="1194.049879282577" y="838.6374341956939"/>
      <point x="1066.1769749290381" y="978.3794510735539"/>
      <point x="804.8053237502079" y="980.0" type="curve" smooth="yes"/>
    </contour>
    <contour>
      <point x="436.28664554918447" y="612.3116970147942"/>
      <point x="219.1054139793035" y="514.6638287229223"/>
      <point x="173.12482118887047" y="275.90403804067563" type="curve" smooth="yes"/>
      <point x="141.2734926026337" y="74.13692428827392"/>
      <point x="284.4688803540582" y="-54.28833335729298"/>
      <point x="495.1208064244138" y="-56.0" type="curve" smooth="yes"/>
      <point x="651.9735983197363" y="-55.30224081408639"/>
      <point x="803.9726295625436" y="8.713980148024554"/>
      <point x="939.4876867743976" y="117.73998516617209" type="curve"/>
      <point x="943.1647355967195" y="326.01494353374966" type="line"/>
      <point x="788.6699941878027" y="215.86664546774446"/>
      <point x="665.9066393619057" y="152.02686544623788"/>
      <point x="525.9829107043073" y="153.0" type="curve" smooth="yes"/>
      <point x="415.1471355682465" y="151.44516193387364"/>
      <point x="376.7340065512418" y="185.31021213967693"/>
      <point x="394.620729335826" y="267.09596195932437" type="curve" smooth="yes"/>
      <point x="408.9365666274469" y="372.65355615475164"/>
      <point x="499.99580331649395" y="404.4922464055813"/>
      <point x="638.2312175503076" y="404.0" type="curve" smooth="yes"/>
      <point x="743.5998933057649" y="404.1019745011589"/>
      <point x="848.9945683693786" y="388.0133756260754"/>
      <point x="969.0875116533974" y="362.6632430426932" type="curve"/>
      <point x="1002.8853456678274" y="535.3791454890313" type="line"/>
      <point x="888.945974830748" y="591.6807396779212"/>
      <point x="779.2070007384065" y="612.8571263348884"/>
      <point x="662.0933218302013" y="613.0" type="curve" smooth="yes"/>
    </contour>
  </outline>
</glyph>
<glyph name="b" format="2">
  <advance width="1228"/>
  <unicode hex="0062"/>
  <outline>
    <contour>
      <point x="499.1042684965907" y="1356.0" type="line" smooth="yes"/>
      <point x="434.99374223682565" y="1355.0184700401103"/>
      <point x="390.7865015659988" y="1317.0360457698825"/>
      <point x="380.1595511481254" y="1262.9040380406757" type="curve" smooth="yes"/>
      <point x="168.2145203365505" y="60.90403804067563" type="line" smooth="yes"/>
      <point x="159.66952939199902" y="6.631653335862373"/>
      <point x="196.7845392726895" y="-42.65970126635576"/>
      <point x="259.23673019291533" y="-44.0" type="curve" smooth="yes"/>
      <point x="261.23673019291533" y="-44.0" type="line" smooth="yes"/>
      <point x="322.8726977226333" y="-42.88495195109242"/>
      <point x="364.9065248223756" y="-4.2319228986518205"/>
      <point x="375.18144754138063" y="49.09596195932437" type="curve" smooth="yes"/>
      <point x="352.20196573816094" y="114.5148432055748" type="line"/>
      <point x="396.7615938276451" y="17.392243705330387"/>
      <point x="513.2778817462147" y="-54.829905317190565"/>
      <point x="655.1208064244138" y="-56.0" type="curve" smooth="yes"/>
      <point x="914.5805036157977" y="-53.63472689780994"/>
      <point x="1146.9479103335282" y="143.51380929534915"/>
      <point x="1203.9465286897257" y="456.09596195932437" type="curve" smooth="yes"/>
      <point x="1257.0421493556844" y="770.7247314576542"/>
      <point x="1086.9475167672217" y="976.9192234163396"/>
      <point x="825.8053237502079" y="980.0" type="curve" smooth="yes"/>
      <point x="684.4375538266587" y="978.9542171278055"/>
      <point x="556.8809394304565" y="909.8831381015598"/>
      <point x="513.6873931016469" y="782.2767088817744" type="curve"/>
      <point x="597.1264783529556" y="1251.0959619593243" type="line" smooth="yes"/>
      <point x="605.5833178550915" y="1306.4030916942127"/>
      <point x="565.9342245699373" y="1354.8333957388322"/>
      <point x="501.1042684965907" y="1356.0" type="curve" smooth="yes"/>
    </contour>
    <contour>
      <point x="982.9796014848957" y="467.90403804067563" type="curve" smooth="yes"/>
      <point x="951.3571624713477" y="280.93161822501753"/>
      <point x="838.2489215777624" y="156.99818075229678"/>
      <point x="671.2171995692665" y="160.0" type="curve" smooth="yes"/>
      <point x="507.7764681353626" y="157.1792597082176"/>
      <point x="419.35209264677053" y="257.0059959497896"/>
      <point x="456.94652868972594" y="456.09596195932437" type="curve" smooth="yes"/>
      <point x="490.4686859534978" y="657.3146533488577"/>
      <point x="624.7044233313519" y="766.1863527042158"/>
      <point x="789.708930605355" y="764.0" type="curve" smooth="yes"/>
      <point x="954.652490252093" y="768.0301697838953"/>
      <point x="1017.3340684804082" y="653.4124556021073"/>
    </contour>
  </outline>
</glyph>
<glyph name="c" format="2">
  <advance width="1228"/>
  <unicode hex="0063"/>
  <outline>
    <contour>
      <point x="194.97960148489577" y="467.90403804067563" type="curve" smooth="yes"/>
      <point x="146.38853876947508" y="177.81408862441398"/>
      <point x="318.79388013465007" y="-52.834058816310204"/>
      <point x="625.1208064244138" y="-56.0" type="curve" smooth="yes"/>
      <point x="782.385351291441" y="-55.589947415008815"/>
      <point x="951.7900725498796" y="-3.9706362673306614"/>
      <point x="1078.1118364798394" y="77.42273184077433" type="curve" smooth="yes"/>
      <point x="1124.6073374241992" y="108.52075897235596"/>
      <point x="1147.3758028236032" y="169.19307725853665"/>
      <point x="1125.1101573721678" y="227.0971412506475" type="curve" smooth="yes"/>
      <point x="1094.3239955338743" y="289.77867652524554"/>
      <point x="1025.12539293632" y="289.67109250323364"/>
      <point x="987.7030145232291" y="265.13727571831276" type="curve" smooth="yes"/>
      <point x="884.323990865226" y="194.7087259182399"/>
      <point x="768.0615377992403" y="159.6068319202077"/>
      <point x="651.2171995692665" y="160.0" type="curve" smooth="yes"/>
      <point x="470.71359016354864" y="156.7547501979452"/>
      <point x="385.3694937962076" y="273.91109638838157"/>
      <point x="419.94652868972594" y="456.09596195932437" type="curve" smooth="yes"/>
      <point x="450.5087988044818" y="640.3817152312929"/>
      <point x="587.4494821597882" y="766.4773359931488"/>
      <point x="769.708930605355" y="764.0" type="curve" smooth="yes"/>
      <point x="877.1616844691883" y="764.3054521832223"/>
      <point x="969.1290177197942" y="738.7214675175711"/>
      <point x="1050.5392356048808" y="674.3124640270629" type="curve" smooth="yes"/>
      <point x="1083.7194995150003" y="649.3258652928138"/>
      <point x="1149.8782576000115" y="650.0284682681886"/>
      <point x="1193.3755849750726" y="709.4727860423324" type="curve" smooth="yes"/>
      <point x="1231.9264501930206" y="765.2915011228042"/>
      <point x="1225.4656868658944" y="830.5641708980485"/>
      <point x="1184.4993981751995" y="863.4297320487599" type="curve" smooth="yes"/>
      <point x="1080.1288810752358" y="939.586714809701"/>
      <point x="942.4302530614048" y="979.6839728783057"/>
      <point x="795.8053237502079" y="980.0" type="curve" smooth="yes"/>
      <point x="491.19903690957847" y="977.5765978549268"/>
      <point x="247.75309610033844" y="755.8121153731715"/>
    </contour>
  </outline>
</glyph>
<glyph name="d" format="2">
  <advance width="1228"/>
  <unicode hex="0064"/>
  <outline>
    <contour>
      <point x="1193.1042684965907" y="1356.0" type="line" smooth="yes"/>
      <point x="1128.9937422368257" y="1355.0184700401103"/>
      <point x="1084.7865015659988" y="1317.0360457698825"/>
      <point x="1074.1595511481255" y="1262.9040380406757" type="curve" smooth="yes"/>
      <point x="992.0375915093865" y="793.3600822674044" type="line"/>
      <point x="986.4846006822571" y="906.2714668183712"/>
      <point x="877.9391808386748" y="978.7501550330294"/>
      <point x="735.8053237502079" y="980.0" type="curve" smooth="yes"/>
      <point x="476.345626558824" y="977.63472689781"/>
      <point x="243.9782198410934" y="780.4861907046509"/>
      <point x="186.97960148489577" y="467.90403804067563" type="curve" smooth="yes"/>
      <point x="133.88398081893712" y="153.2752685423458"/>
      <point x="303.97861340739996" y="-52.91922341633965"/>
      <point x="565.1208064244138" y="-56.0" type="curve" smooth="yes"/>
      <point x="706.2423346938461" y="-55.01576560627985"/>
      <point x="841.7852603097825" y="13.917591277929574"/>
      <point x="927.6557826350244" y="114.45759119418268" type="curve"/>
      <point x="872.2145203365504" y="60.90403804067563" type="line" smooth="yes"/>
      <point x="863.669529391999" y="6.631653335862342"/>
      <point x="900.7845392726896" y="-42.65970126635576"/>
      <point x="963.2367301929154" y="-44.0" type="curve" smooth="yes"/>
      <point x="965.2367301929154" y="-44.0" type="line" smooth="yes"/>
      <point x="1026.8726977226333" y="-42.88495195109242"/>
      <point x="1068.9065248223756" y="-4.231922898651778"/>
      <point x="1079.1814475413805" y="49.09596195932436" type="curve" smooth="yes"/>
      <point x="1291.1264783529555" y="1251.0959619593243" type="line" smooth="yes"/>
      <point x="1299.5833178550915" y="1306.4030916942127"/>
      <point x="1259.9342245699372" y="1354.8333957388322"/>
      <point x="1195.1042684965907" y="1356.0" type="curve" smooth="yes"/>
    </contour>
    <contour>
      <point x="933.9796014848957" y="467.90403804067563" type="curve" smooth="yes"/>
      <point x="900.4574442211238" y="266.6853466511423"/>
      <point x="766.2217068432697" y="157.81364729578416"/>
      <point x="601.2171995692665" y="160.0" type="curve" smooth="yes"/>
      <point x="436.27363992252856" y="155.96983021610467"/>
      <point x="373.5920616942133" y="270.5875443978926"/>
      <point x="407.94652868972594" y="456.09596195932437" type="curve" smooth="yes"/>
      <point x="439.5689677032739" y="643.0683817749825"/>
      <point x="552.6772085968591" y="767.0018192477032"/>
      <point x="719.708930605355" y="764.0" type="curve" smooth="yes"/>
      <point x="883.149662039259" y="766.8207402917824"/>
      <point x="971.574037527851" y="666.9940040502104"/>
    </contour>
  </outline>
</glyph>
<glyph name="f" format="2">
  <advance width="1228"/>
  <unicode hex="0066"/>
  <outline>
    <contour>
      <point x="585.0247267426705" y="972.9040380406757" type="curve" smooth="yes"/>
      <point x="580.2100686430234" y="873.666666813812" type="line"/>
      <point x="398.81997171794444" y="878.0" type="line" smooth="yes"/>
      <point x="344.03126916677496" y="876.5604254020848"/>
      <point x="301.0171408361777" y="837.3339268238733"/>
      <point x="289.64096550451984" y="777.9040380406756" type="curve" smooth="yes"/>
      <point x="280.047323319149" y="717.5018876889433"/>
      <point x="317.59158628943874" y="667.7734127740079"/>
      <point x="373.4288864959255" y="666.0" type="curve" smooth="yes"/>
      <point x="537.7154028134499" y="695.5953413308793" type="line"/>
      <point x="424.2145203365505" y="60.90403804067563" type="line" smooth="yes"/>
      <point x="415.75768083441454" y="5.596908305787331"/>
      <point x="455.4067741195688" y="-42.833395738832294"/>
      <point x="520.2367301929154" y="-44.0" type="curve" smooth="yes"/>
      <point x="522.2367301929154" y="-44.0" type="line" smooth="yes"/>
      <point x="586.3472564526804" y="-43.018470040110294"/>
      <point x="630.5544971235073" y="-5.036045769882536"/>
      <point x="641.1814475413806" y="49.09596195932437" type="curve" smooth="yes"/>
      <point x="749.1157755917902" y="680.2658627704863" type="line"/>
      <point x="1067.4288864959256" y="666.0" type="line" smooth="yes"/>
      <point x="1122.217589047095" y="667.4395745979152"/>
      <point x="1165.2317173776921" y="706.6660731761267"/>
      <point x="1176.60789270935" y="766.0959619593244" type="curve" smooth="yes"/>
      <point x="1186.201534894721" y="826.4981123110566"/>
      <point x="1148.6572719244314" y="876.2265872259921"/>
      <point x="1092.8199717179446" y="878.0" type="curve" smooth="yes"/>
      <point x="757.672173733848" y="876.2215721436124" type="line"/>
      <point x="799.6994031982907" y="948.0959619593244" type="line" smooth="yes"/>
      <point x="821.2914754817649" y="1076.8567491025442"/>
      <point x="877.2824809746176" y="1139.114653142824"/>
      <point x="1006.4788944096125" y="1137.0" type="curve" smooth="yes"/>
      <point x="1081.3591318654542" y="1137.2505176842703"/>
      <point x="1151.530194795329" y="1119.69408608757"/>
      <point x="1221.8293308340458" y="1090.5873937818392" type="curve" smooth="yes"/>
      <point x="1270.5009287330931" y="1074.0668245179243"/>
      <point x="1325.6014066338691" y="1105.411010177458"/>
      <point x="1349.25818149145" y="1160.0243793707398" type="curve" smooth="yes"/>
      <point x="1370.6262791176678" y="1214.373008251891"/>
      <point x="1352.2687882645182" y="1274.2218377352592"/>
      <point x="1302.2172945844352" y="1297.4217930337074" type="curve" smooth="yes"/>
      <point x="1224.8483627091573" y="1329.4489050605443"/>
      <point x="1129.9270184913316" y="1350.7975965495384"/>
      <point x="1032.2226335930484" y="1351.0" type="curve" smooth="yes"/>
      <point x="797.0124176915782" y="1349.0987703727483"/>
      <point x="627.2325628295038" y="1202.202283573972"/>
    </contour>
  </outline>
</glyph>
<glyph name="h" format="2">
  <advance width="1228"/>
  <unicode hex="0068"/>
  <outline>
    <contour>
      <point x="509.1042684965907" y="1356.0" type="line" smooth="yes"/>
      <point x="444.99374223682565" y="1355.0184700401103"/>
      <point x="400.7865015659988" y="1317.0360457698825"/>
      <point x="390.1595511481254" y="1262.9040380406757" type="curve" smooth="yes"/>
      <point x="178.2145203365505" y="60.90403804067563" type="line" smooth="yes"/>
      <point x="169.75768083441454" y="5.596908305787302"/>
      <point x="209.40677411956884" y="-42.833395738832294"/>
      <point x="274.23673019291533" y="-44.0" type="curve" smooth="yes"/>
      <point x="276.23673019291533" y="-44.0" type="line" smooth="yes"/>
      <point x="340.34725645268037" y="-43.018470040110294"/>
      <point x="384.55449712350725" y="-5.036045769882582"/>
      <point x="395.18144754138063" y="49.09596195932437" type="curve" smooth="yes"/>
      <point x="454.6036400401333" y="386.09596195932437" type="line" smooth="yes"/>
      <point x="489.9359724293811" y="601.6347544130078"/>
      <point x="695.7845992686644" y="767.0504353555541"/>
      <point x="852.708930605355" y="764.0" type="curve" smooth="yes"/>
      <point x="967.4084097780304" y="767.1536857296167"/>
      <point x="987.1184629325743" y="716.6743537585726"/>
      <point x="967.1943597262062" y="610.9040380406757" type="curve" smooth="yes"/>
      <point x="870.2145203365504" y="60.90403804067563" type="line" smooth="yes"/>
      <point x="861.7576808344146" y="5.596908305787272"/>
      <point x="901.4067741195688" y="-42.833395738832294"/>
      <point x="966.2367301929154" y="-44.0" type="curve" smooth="yes"/>
      <point x="968.2367301929154" y="-44.0" type="line" smooth="yes"/>
      <point x="1032.3472564526803" y="-43.018470040110294"/>
      <point x="1076.5544971235072" y="-5.036045769882582"/>
      <point x="1087.1814475413805" y="49.09596195932437" type="curve" smooth="yes"/>
      <point x="1186.8061916416632" y="614.0959619593243" type="line" smooth="yes"/>
      <point x="1222.1055669008617" y="825.7079798104803"/>
      <point x="1111.168514191106" y="977.2637992131521"/>
      <point x="893.8053237502079" y="980.0" type="curve" smooth="yes"/>
      <point x="748.9072150987071" y="978.5273338151636"/>
      <point x="573.3979722866" y="881.4515067051109"/>
      <point x="512.9086153941901" y="721.7835182753183" type="curve"/>
      <point x="607.1264783529556" y="1251.0959619593243" type="line" smooth="yes"/>
      <point x="615.5833178550915" y="1306.4030916942127"/>
      <point x="575.9342245699373" y="1354.8333957388322"/>
      <point x="511.1042684965907" y="1356.0" type="curve" smooth="yes"/>
    </contour>
  </outline>
</glyph>
<glyph name="k" format="2">
  <advance width="1228"/>
  <unicode hex="006B"/>
  <outline>
    <contour>
      <point x="1149.008781658136" y="981.5945470199871"/>
      <point x="1090.6664659421542" y="977.7592211981946"/>
      <point x="1053.1875901456042" y="950.9427718964631" type="curve" smooth="yes"/>
      <point x="327.56406342053805" y="391.755633202461" type="line"/>
      <point x="430.3471678485819" y="218.33791091268785" type="line"/>
      <point x="1202.465610909846" y="805.939917596942" type="line" smooth="yes"/>
      <point x="1251.465827199099" y="845.7441224465298"/>
      <point x="1246.2973087295259" y="916.2547498957484"/>
      <point x="1195.7605610035953" y="952.3066108064637" type="curve" smooth="yes"/>
    </contour>
    <contour>
      <point x="539.1042684965907" y="1356.0" type="line" smooth="yes"/>
      <point x="474.99374223682565" y="1355.0184700401103"/>
      <point x="430.7865015659988" y="1317.0360457698825"/>
      <point x="420.1595511481254" y="1262.9040380406757" type="curve" smooth="yes"/>
      <point x="208.2145203365505" y="60.90403804067563" type="line" smooth="yes"/>
      <point x="199.75768083441454" y="5.596908305787302"/>
      <point x="239.40677411956884" y="-42.833395738832294"/>
      <point x="304.23673019291533" y="-44.0" type="curve" smooth="yes"/>
      <point x="306.23673019291533" y="-44.0" type="line" smooth="yes"/>
      <point x="370.34725645268037" y="-43.018470040110294"/>
      <point x="414.55449712350725" y="-5.036045769882582"/>
      <point x="425.18144754138063" y="49.09596195932437" type="curve" smooth="yes"/>
      <point x="637.1264783529556" y="1251.0959619593243" type="line" smooth="yes"/>
      <point x="645.5833178550915" y="1306.4030916942127"/>
      <point x="605.9342245699373" y="1354.8333957388322"/>
      <point x="541.1042684965907" y="1356.0" type="curve" smooth="yes"/>
    </contour>
    <contour>
      <point x="546.7078448150918" y="483.837925290045" type="line"/>
      <point x="911.0603290542027" y="-17.036795239262226" type="line" smooth="yes"/>
      <point x="942.2134399544708" y="-54.2332750256585"/>
      <point x="998.5670594864001" y="-54.015360232878336"/>
      <point x="1054.5759489758675" y="-25.161042849994686" type="curve" smooth="yes"/>
      <point x="1115.4323522380284" y="7.610497851643245"/>
      <point x="1134.6686587012662" y="69.52955631947187"/>
      <point x="1104.1126503662406" y="115.18275367622084" type="curve" smooth="yes"/>
      <point x="737.2911795444403" y="610.4880849644652" type="line"/>
    </contour>
  </outline>
</glyph>
<glyph name="l" format="2">
  <advance width="1228"/>
  <unicode hex="006C"/>
  <outline>
    <contour>
      <point x="265.39108522201894" y="178.0" type="line" smooth="yes"/>
      <point x="210.60238267084947" y="176.56042540208477"/>
      <point x="167.58825434025223" y="137.33392682387333"/>
      <point x="156.2120790085944" y="77.90403804067563" type="curve" smooth="yes"/>
      <point x="146.6184368232235" y="17.50188768894329"/>
      <point x="184.16269979351327" y="-32.22658722599218"/>
      <point x="240.0" y="-34.0" type="curve" smooth="yes"/>
      <point x="1024.0" y="-34.0" type="line" smooth="yes"/>
      <point x="1078.7887025511695" y="-32.56042540208479"/>
      <point x="1121.8028308817666" y="6.6660731761266945"/>
      <point x="1133.1790062134244" y="66.09596195932438" type="curve" smooth="yes"/>
      <point x="1142.7726483987954" y="126.49811231105664"/>
      <point x="1105.2283854285058" y="176.22658722599218"/>
      <point x="1049.391085222019" y="178.0" type="curve" smooth="yes"/>
      <point x="762.1665789294397" y="147.9007723363437" type="line"/>
      <point x="955.8342276037455" y="1238.0959619593243" type="line" smooth="yes"/>
      <point x="965.0351017592525" y="1296.9932156442019"/>
      <point x="926.1368689539822" y="1344.5582696985198"/>
      <point x="871.340998689506" y="1346.0" type="curve" smooth="yes"/>
      <point x="511.340998689506" y="1346.0" type="line" smooth="yes"/>
      <point x="456.55229613833654" y="1344.5604254020848"/>
      <point x="413.5381678077393" y="1305.3339268238733"/>
      <point x="402.16199247608154" y="1245.9040380406757" type="curve" smooth="yes"/>
      <point x="392.56835029071055" y="1185.5018876889433"/>
      <point x="430.1126132610003" y="1135.7734127740077"/>
      <point x="485.9499134674871" y="1134.0" type="curve" smooth="yes"/>
      <point x="725.0876138965031" y="1164.9430950677297" type="line"/>
      <point x="547.7631312911417" y="158.76239946648437" type="line"/>
    </contour>
  </outline>
</glyph>
<glyph name="m" format="2">
  <advance width="1228"/>
  <unicode hex="006D"/>
  <outline>
    <contour>
      <point x="807.2909438891468" y="798.9976375125746" type="curve"/>
      <point x="835.3432033960197" y="900.1241351106664"/>
      <point x="749.8729541809442" y="977.7863539240846"/>
      <point x="650.8053237502079" y="980.0" type="curve" smooth="yes"/>
      <point x="549.1974636726986" y="978.3028374075094"/>
      <point x="440.1229464353703" y="908.1229974936969"/>
      <point x="375.82957722614844" y="789.8812775596303" type="curve"/>
      <point x="437.7116098380711" y="863.0959619593243" type="line" smooth="yes"/>
      <point x="446.31328350164597" y="916.3269478360119"/>
      <point x="411.8536248456454" y="966.4451619338736"/>
      <point x="351.6893999817063" y="968.0" type="curve" smooth="yes"/>
      <point x="349.6893999817063" y="968.0" type="line" smooth="yes"/>
      <point x="290.4580503859885" y="966.7228083244951"/>
      <point x="250.6813098474974" y="927.4007577247372"/>
      <point x="240.74468263324096" y="874.9040380406757" type="curve" smooth="yes"/>
      <point x="97.21452033655049" y="60.90403804067563" type="line" smooth="yes"/>
      <point x="88.75768083441454" y="5.596908305787302"/>
      <point x="128.40677411956884" y="-42.833395738832294"/>
      <point x="193.23673019291536" y="-44.0" type="curve" smooth="yes"/>
      <point x="195.23673019291536" y="-44.0" type="line" smooth="yes"/>
      <point x="259.3472564526804" y="-43.018470040110294"/>
      <point x="303.55449712350725" y="-5.036045769882568"/>
      <point x="314.1814475413807" y="49.09596195932437" type="curve" smooth="yes"/>
      <point x="385.0648937861836" y="451.09596195932437" type="line" smooth="yes"/>
      <point x="418.6801142461515" y="646.1559474649837"/>
      <point x="510.2107352831291" y="770.1489746273149"/>
      <point x="585.708930605355" y="764.0" type="curve" smooth="yes"/>
      <point x="636.9302597279598" y="768.4284561852438"/>
      <point x="638.075255645462" y="748.343066089878"/>
      <point x="622.8923436651718" y="665.9040380406757" type="curve" smooth="yes"/>
      <point x="516.2145203365504" y="60.90403804067563" type="line" smooth="yes"/>
      <point x="507.7576808344146" y="5.596908305787272"/>
      <point x="547.4067741195688" y="-42.833395738832294"/>
      <point x="612.2367301929154" y="-44.0" type="curve" smooth="yes"/>
      <point x="614.2367301929154" y="-44.0" type="line" smooth="yes"/>
      <point x="678.3472564526804" y="-43.018470040110294"/>
      <point x="722.5544971235073" y="-5.036045769882536"/>
      <point x="733.1814475413806" y="49.09596195932437" type="curve" smooth="yes"/>
      <point x="804.0648937861836" y="451.09596195932437" type="line" smooth="yes"/>
      <point x="837.6801142461514" y="646.1559474649837"/>
      <point x="929.2107352831291" y="770.1489746273149"/>
      <point x="1004.708930605355" y="764.0" type="curve" smooth="yes"/>
      <point x="1055.9302597279598" y="768.4284561852437"/>
      <point x="1057.0752556454622" y="748.3430660898781"/>
      <point x="1041.892343665172" y="665.9040380406757" type="curve" smooth="yes"/>
      <point x="935.2145203365504" y="60.90403804067563" type="line" smooth="yes"/>
      <point x="926.7576808344146" y="5.596908305787272"/>
      <point x="966.4067741195688" y="-42.83339573883229"/>
      <point x="1031.2367301929153" y="-44.0" type="curve" smooth="yes"/>
      <point x="1033.2367301929153" y="-44.0" type="line" smooth="yes"/>
      <point x="1097.3472564526803" y="-43.018470040110294"/>
      <point x="1141.5544971235072" y="-5.036045769882582"/>
      <point x="1152.1814475413805" y="49.09596195932436" type="curve" smooth="yes"/>
      <point x="1262.0331565227543" y="672.0959619593243" type="line" smooth="yes"/>
      <point x="1294.33281214956" y="866.7206545583986"/>
      <point x="1196.5682135616512" y="977.0899157933576"/>
      <point x="1068.805323750208" y="980.0" type="curve" smooth="yes"/>
      <point x="966.2366422407181" y="978.3156768635746"/>
      <point x="863.6133311860718" y="910.2705891092164"/>
    </contour>
  </outline>
</glyph>
<glyph name="o" format="2">
  <advance width="1228"/>
  <unicode hex="006F"/>
  <outline>
    <contour>
      <point x="181.97960148489577" y="467.90403804067563" type="curve" smooth="yes"/>
      <point x="132.71675292804358" y="171.90428052207824"/>
      <point x="320.0510327050216" y="-52.95224495065102"/>
      <point x="610.1208064244138" y="-56.0" type="curve" smooth="yes"/>
      <point x="898.5229710239228" y="-53.65732637552779"/>
      <point x="1154.9217150604125" y="162.55406156581435"/>
      <point x="1208.9465286897257" y="456.09596195932437" type="curve" smooth="yes"/>
      <point x="1258.209377246578" y="752.0957194779218"/>
      <point x="1070.8750974696" y="976.952244950651"/>
      <point x="780.8053237502079" y="980.0" type="curve" smooth="yes"/>
      <point x="492.40315915069897" y="977.6573263755278"/>
      <point x="236.00441511420914" y="761.4459384341857"/>
    </contour>
    <contour>
      <point x="987.9796014848957" y="467.90403804067563" type="curve" smooth="yes"/>
      <point x="957.1023489317507" y="281.6853466511423"/>
      <point x="819.6835453773664" y="157.60549813873948"/>
      <point x="636.2171995692665" y="160.0" type="curve" smooth="yes"/>
      <point x="454.4525557410805" y="156.87644141836296"/>
      <point x="367.9969973573975" y="272.0059959497896"/>
      <point x="402.94652868972594" y="456.09596195932437" type="curve" smooth="yes"/>
      <point x="433.82378124287084" y="642.3146533488577"/>
      <point x="571.2425847972552" y="766.3945018612606"/>
      <point x="754.708930605355" y="764.0" type="curve" smooth="yes"/>
      <point x="936.4735744335411" y="767.1235585816371"/>
      <point x="1022.9291328172242" y="651.9940040502104"/>
    </contour>
  </outline>
</glyph>
<glyph name="p" format="2">
  <advance width="1228"/>
  <unicode hex="0070"/>
  <outline>
    <contour>
      <point x="463.2703475395973" y="809.5424088058173" type="curve"/>
      <point x="518.7116098380711" y="863.0959619593243" type="line" smooth="yes"/>
      <point x="527.2566007826226" y="917.3683466641376"/>
      <point x="490.14159090193215" y="966.6597012663558"/>
      <point x="427.6893999817063" y="968.0" type="curve" smooth="yes"/>
      <point x="425.6893999817063" y="968.0" type="line" smooth="yes"/>
      <point x="364.05343245198833" y="966.8849519510924"/>
      <point x="322.019605352246" y="928.2319228986519"/>
      <point x="311.7446826332409" y="874.9040380406757" type="curve" smooth="yes"/>
      <point x="99.79965182166609" y="-327.09596195932437" type="line" smooth="yes"/>
      <point x="91.34281231953011" y="-382.40309169421266"/>
      <point x="130.9919056046844" y="-430.8333957388323"/>
      <point x="195.82186167803093" y="-432.0" type="curve" smooth="yes"/>
      <point x="197.82186167803093" y="-432.0" type="line" smooth="yes"/>
      <point x="261.93238793779597" y="-431.0184700401103"/>
      <point x="306.13962860862284" y="-393.0360457698826"/>
      <point x="316.7665790264963" y="-338.90403804067563" type="curve" smooth="yes"/>
      <point x="398.88853866523516" y="130.63991773259553" type="line"/>
      <point x="404.44152949236457" y="17.728533181628837"/>
      <point x="512.9869493359469" y="-54.750155033029415"/>
      <point x="655.1208064244138" y="-56.0" type="curve" smooth="yes"/>
      <point x="914.5805036157977" y="-53.63472689780994"/>
      <point x="1146.9479103335282" y="143.51380929534915"/>
      <point x="1203.9465286897257" y="456.09596195932437" type="curve" smooth="yes"/>
      <point x="1257.0421493556844" y="770.7247314576542"/>
      <point x="1086.9475167672217" y="976.9192234163396"/>
      <point x="825.8053237502079" y="980.0" type="curve" smooth="yes"/>
      <point x="684.6837954807755" y="979.0157656062798"/>
      <point x="549.1408698648391" y="910.0824087220705"/>
    </contour>
    <contour>
      <point x="982.9796014848957" y="467.90403804067563" type="curve" smooth="yes"/>
      <point x="951.3571624713477" y="280.93161822501753"/>
      <point x="838.2489215777624" y="156.99818075229678"/>
      <point x="671.2171995692665" y="160.0" type="curve" smooth="yes"/>
      <point x="507.7764681353626" y="157.1792597082176"/>
      <point x="419.35209264677053" y="257.0059959497896"/>
      <point x="456.94652868972594" y="456.09596195932437" type="curve" smooth="yes"/>
      <point x="490.4686859534978" y="657.3146533488577"/>
      <point x="624.7044233313519" y="766.1863527042158"/>
      <point x="789.708930605355" y="764.0" type="curve" smooth="yes"/>
      <point x="954.652490252093" y="768.0301697838953"/>
      <point x="1017.3340684804082" y="653.4124556021073"/>
    </contour>
  </outline>
</glyph>
<glyph name="q" format="2">
  <advance width="1228"/>
  <unicode hex="0071"/>
  <outline>
    <contour>
      <point x="186.97960148489577" y="467.90403804067563" type="curve" smooth="yes"/>
      <point x="133.88398081893712" y="153.2752685423458"/>
      <point x="303.97861340739996" y="-52.91922341633965"/>
      <point x="565.1208064244138" y="-56.0" type="curve" smooth="yes"/>
      <point x="706.488576347963" y="-54.95421712780546"/>
      <point x="834.0451907441652" y="14.116861898440192"/>
      <point x="877.2387370729748" y="141.72329111822557" type="curve"/>
      <point x="793.7996518216661" y="-327.09596195932437" type="line" smooth="yes"/>
      <point x="785.3428123195301" y="-382.40309169421266"/>
      <point x="824.9919056046843" y="-430.8333957388323"/>
      <point x="889.8218616780309" y="-432.0" type="curve" smooth="yes"/>
      <point x="891.8218616780309" y="-432.0" type="line" smooth="yes"/>
      <point x="955.932387937796" y="-431.0184700401103"/>
      <point x="1000.1396286086228" y="-393.0360457698826"/>
      <point x="1010.7665790264963" y="-338.90403804067563" type="curve" smooth="yes"/>
      <point x="1222.7116098380711" y="863.0959619593243" type="line" smooth="yes"/>
      <point x="1231.2566007826226" y="917.3683466641377"/>
      <point x="1194.141590901932" y="966.6597012663558"/>
      <point x="1131.6893999817062" y="968.0" type="curve" smooth="yes"/>
      <point x="1129.6893999817062" y="968.0" type="line" smooth="yes"/>
      <point x="1068.053432451988" y="966.8849519510924"/>
      <point x="1026.0196053522461" y="928.2319228986518"/>
      <point x="1015.744682633241" y="874.9040380406757" type="curve" smooth="yes"/>
      <point x="1038.7241644364606" y="809.4851567944252" type="line"/>
      <point x="994.1645363469765" y="906.6077562946696"/>
      <point x="877.648248428407" y="978.8299053171905"/>
      <point x="735.8053237502079" y="980.0" type="curve" smooth="yes"/>
      <point x="476.345626558824" y="977.63472689781"/>
      <point x="243.9782198410934" y="780.4861907046509"/>
    </contour>
    <contour>
      <point x="933.9796014848957" y="467.90403804067563" type="curve" smooth="yes"/>
      <point x="900.4574442211238" y="266.6853466511423"/>
      <point x="766.2217068432697" y="157.81364729578416"/>
      <point x="601.2171995692665" y="160.0" type="curve" smooth="yes"/>
      <point x="436.27363992252856" y="155.96983021610467"/>
      <point x="373.5920616942133" y="270.5875443978926"/>
      <point x="407.94652868972594" y="456.09596195932437" type="curve" smooth="yes"/>
      <point x="439.5689677032739" y="643.0683817749825"/>
      <point x="552.6772085968591" y="767.0018192477032"/>
      <point x="719.708930605355" y="764.0" type="curve" smooth="yes"/>
      <point x="883.149662039259" y="766.8207402917824"/>
      <point x="971.574037527851" y="666.9940040502104"/>
    </contour>
  </outline>
</glyph>
<glyph name="r" format="2">
  <advance width="1228"/>
  <unicode hex="0072"/>
  <outline>
    <contour>
      <point x="570.979601128398" y="665.7402812879178" type="curve"/>
      <point x="633.7116098380711" y="863.0959619593243" type="line" smooth="yes"/>
      <point x="642.2566007826226" y="917.3683466641376"/>
      <point x="605.1415909019321" y="966.6597012663558"/>
      <point x="542.6893999817063" y="968.0" type="curve" smooth="yes"/>
      <point x="540.6893999817063" y="968.0" type="line" smooth="yes"/>
      <point x="479.05343245198833" y="966.8849519510924"/>
      <point x="437.019605352246" y="928.2319228986519"/>
      <point x="426.7446826332409" y="874.9040380406757" type="curve" smooth="yes"/>
      <point x="283.21452033655055" y="60.90403804067563" type="line" smooth="yes"/>
      <point x="274.75768083441454" y="5.596908305787331"/>
      <point x="314.4067741195688" y="-42.833395738832294"/>
      <point x="379.23673019291533" y="-44.0" type="curve" smooth="yes"/>
      <point x="381.23673019291533" y="-44.0" type="line" smooth="yes"/>
      <point x="445.34725645268037" y="-43.018470040110294"/>
      <point x="489.55449712350725" y="-5.036045769882582"/>
      <point x="500.18144754138063" y="49.09596195932437" type="curve" smooth="yes"/>
      <point x="538.0917483937006" y="264.09596195932437" type="line" smooth="yes"/>
      <point x="584.1529327127001" y="537.039763456628"/>
      <point x="816.3910439411201" y="755.3892486557297"/>
      <point x="1034.5930068368534" y="752.0" type="curve" smooth="yes"/>
      <point x="1067.767201369352" y="752.1176325582194"/>
      <point x="1098.1603879223453" y="747.0475324197783"/>
      <point x="1130.2046629493193" y="735.9027115397525" type="curve" smooth="yes"/>
      <point x="1186.2183774053321" y="720.4105682473919"/>
      <point x="1234.2013770758472" y="760.2828205794992"/>
      <point x="1258.6828223432235" y="816.7961521811587" type="curve" smooth="yes"/>
      <point x="1281.7834701092281" y="874.9026582913801"/>
      <point x="1262.6150341199134" y="936.05726499256"/>
      <point x="1210.0818119861153" y="957.1784674510722" type="curve" smooth="yes"/>
      <point x="1165.789880904751" y="971.9916742543888"/>
      <point x="1117.571128674526" y="979.8873180278496"/>
      <point x="1071.805323750208" y="980.0" type="curve" smooth="yes"/>
      <point x="882.3414938565135" y="978.3497799676571"/>
      <point x="683.7898400214509" y="852.8464677680868"/>
    </contour>
  </outline>
</glyph>
<glyph name="s" format="2">
  <advance width="1228"/>
  <unicode hex="0073"/>
  <outline>
    <contour>
      <point x="1130.3260372586599" y="271.09596195932437" type="curve" smooth="yes"/>
      <point x="1152.4814710724152" y="409.2442063571173"/>
      <point x="1080.3777445872404" y="495.17344873088723"/>
      <point x="985.0074643272201" y="533.6222536257069" type="curve" smooth="yes"/>
      <point x="839.9541935130775" y="589.7736860859006"/>
      <point x="629.9522033116004" y="575.9163884785387"/>
      <point x="533.9269774648247" y="610.1680009141086" type="curve" smooth="yes"/>
      <point x="495.08756420823255" y="622.713673753646"/>
      <point x="485.6064636322627" y="625.9064938996534"/>
      <point x="493.859270870002" y="654.0959619593244" type="curve" smooth="yes"/>
      <point x="503.40996259926703" y="731.8685772291049"/>
      <point x="579.0570447300734" y="767.6908507668229"/>
      <point x="711.2379115474805" y="767.0" type="curve" smooth="yes"/>
      <point x="826.0007077512438" y="767.2650610792141"/>
      <point x="929.5423677390426" y="740.4137414096796"/>
      <point x="1021.9597946048056" y="688.3518752958275" type="curve" smooth="yes"/>
      <point x="1062.3797704122387" y="667.5748020401977"/>
      <point x="1121.0455387802656" y="682.3167044152528"/>
      <point x="1158.7611675044266" y="741.1362493593869" type="curve" smooth="yes"/>
      <point x="1193.4307360904702" y="799.9818631123035"/>
      <point x="1177.846179473796" y="862.2236158371577"/>
      <point x="1133.8987292154738" y="888.7645507706469" type="curve" smooth="yes"/>
      <point x="1018.612306015027" y="952.0348887569764"/>
      <point x="875.9893534345551" y="979.8505827862564"/>
      <point x="730.8053237502079" y="980.0" type="curve" smooth="yes"/>
      <point x="510.6207463255832" y="979.0001923082324"/>
      <point x="312.40705374578954" y="869.27331702795"/>
      <point x="272.8923436651718" y="665.9040380406757" type="curve" smooth="yes"/>
      <point x="252.4249179709916" y="538.1730194826245"/>
      <point x="317.2739622866682" y="455.4262887233568"/>
      <point x="405.7116802009047" y="416.7019643740448" type="curve" smooth="yes"/>
      <point x="549.899681176069" y="357.2413758734833"/>
      <point x="767.0753281239321" y="372.0930288948891"/>
      <point x="866.1673017992538" y="335.0200078311159" type="curve" smooth="yes"/>
      <point x="907.5313135430283" y="320.6616283079071"/>
      <point x="918.1321756098602" y="315.80564646901155"/>
      <point x="909.3591100538297" y="282.90403804067563" type="curve" smooth="yes"/>
      <point x="898.9730440304029" y="205.54066475774377"/>
      <point x="826.7135760293431" y="156.05155178561796"/>
      <point x="665.6882186271412" y="157.0" type="curve" smooth="yes"/>
      <point x="538.065654565438" y="156.71702914857872"/>
      <point x="424.8441489545011" y="187.2749212242204"/>
      <point x="331.21442533007234" y="245.87463776917625" type="curve" smooth="yes"/>
      <point x="291.9088748093281" y="268.1687910961409"/>
      <point x="232.94164368829777" y="255.38950214835677"/>
      <point x="193.2683844185434" y="197.8531522950485" type="curve" smooth="yes"/>
      <point x="156.48246739655997" y="140.18055983724503"/>
      <point x="169.96433549436816" y="77.68868727664899"/>
      <point x="213.11443021735138" y="48.933471851313" type="curve" smooth="yes"/>
      <point x="334.0967795822075" y="-23.691788155241287"/>
      <point x="484.77860719258797" y="-55.83533218833211"/>
      <point x="650.1208064244138" y="-56.0" type="curve" smooth="yes"/>
      <point x="918.5618824448889" y="-54.66291602988945"/>
      <point x="1094.0752760135572" y="79.92143203714642"/>
    </contour>
  </outline>
</glyph>
<glyph name="u" format="2">
  <advance width="1228"/>
  <unicode hex="0075"/>
  <outline>
    <contour>
      <point x="1114.6893999817062" y="968.0" type="line" smooth="yes"/>
      <point x="1050.5788737219411" y="967.0184700401103"/>
      <point x="1006.3716330511145" y="929.0360457698825"/>
      <point x="995.744682633241" y="874.9040380406757" type="curve" smooth="yes"/>
      <point x="936.3224901344882" y="537.9040380406757" type="line" smooth="yes"/>
      <point x="900.9901577452406" y="322.36524558699216"/>
      <point x="695.1415309059573" y="156.94956464444587"/>
      <point x="538.2171995692665" y="160.0" type="curve" smooth="yes"/>
      <point x="423.5177203965912" y="156.84631427038335"/>
      <point x="403.8076672420474" y="207.32564624142745"/>
      <point x="423.73177044841543" y="313.09596195932437" type="curve" smooth="yes"/>
      <point x="520.7116098380711" y="863.0959619593243" type="line" smooth="yes"/>
      <point x="529.1684493402071" y="918.4030916942127"/>
      <point x="489.5193560550528" y="966.8333957388323"/>
      <point x="424.6893999817063" y="968.0" type="curve" smooth="yes"/>
      <point x="422.6893999817063" y="968.0" type="line" smooth="yes"/>
      <point x="358.57887372194125" y="967.0184700401103"/>
      <point x="314.3716330511144" y="929.0360457698825"/>
      <point x="303.7446826332409" y="874.9040380406757" type="curve" smooth="yes"/>
      <point x="204.1199385329583" y="309.90403804067563" type="line" smooth="yes"/>
      <point x="168.8205632737599" y="98.29202018951969"/>
      <point x="279.7576159835156" y="-53.26379921315208"/>
      <point x="497.1208064244138" y="-56.0" type="curve" smooth="yes"/>
      <point x="653.7699569242924" y="-54.289248886137564"/>
      <point x="834.5257586416268" y="56.13400138468042"/>
      <point x="913.9488874310518" y="185.6588246023667" type="curve"/>
      <point x="862.2145203365504" y="60.90403804067563" type="line" smooth="yes"/>
      <point x="853.669529391999" y="6.631653335862342"/>
      <point x="890.7845392726896" y="-42.65970126635576"/>
      <point x="953.2367301929154" y="-44.0" type="curve" smooth="yes"/>
      <point x="955.2367301929154" y="-44.0" type="line" smooth="yes"/>
      <point x="1016.8726977226333" y="-42.88495195109242"/>
      <point x="1058.9065248223756" y="-4.231922898651778"/>
      <point x="1069.1814475413805" y="49.09596195932436" type="curve" smooth="yes"/>
      <point x="1212.7116098380711" y="863.0959619593243" type="line" smooth="yes"/>
      <point x="1221.1684493402072" y="918.4030916942128"/>
      <point x="1181.5193560550526" y="966.8333957388323"/>
      <point x="1116.6893999817062" y="968.0" type="curve" smooth="yes"/>
    </contour>
  </outline>
</glyph>
<glyph name="v" format="2">
  <advance width="1228"/>
  <unicode hex="0076"/>
  <outline>
    <contour>
      <point x="1082.8582754002853" y="912.1059135548564" type="curve" smooth="yes"/>
      <point x="639.2147582413105" y="177.0" type="line"/>
      <point x="464.40667787723953" y="903.0611088710987" type="line" smooth="yes"/>
      <point x="447.39175901683774" y="957.291581817347"/>
      <point x="389.90637523336534" y="979.4843606239635"/>
      <point x="327.470675765185" y="955.6363976371274" type="curve" smooth="yes"/>
      <point x="265.51367074224584" y="930.504702360866"/>
      <point x="233.70058089389119" y="879.0493554325681"/>
      <point x="247.15032518507252" y="823.794358051463" type="curve" smooth="yes"/>
      <point x="470.32770237779266" y="30.777760034039943" type="line" smooth="yes"/>
      <point x="487.1253885030264" y="-21.77565520689099"/>
      <point x="537.4291398190438" y="-55.3349905961075"/>
      <point x="610.1208064244138" y="-56.0" type="curve" smooth="yes"/>
      <point x="682.385608513411" y="-55.417843359284824"/>
      <point x="735.3325811932339" y="-27.22036028758432"/>
      <point x="767.7622851729818" y="21.7851298651881" type="curve" smooth="yes"/>
      <point x="1270.5966889421893" y="814.7963380178043" type="line" smooth="yes"/>
      <point x="1302.2734731740898" y="867.4618853072684"/>
      <point x="1283.9704958412585" y="927.9876422584415"/>
      <point x="1228.0629809532961" y="954.9216663532463" type="curve" smooth="yes"/>
      <point x="1172.0821166901708" y="979.4155932221595"/>
      <point x="1115.8491542552465" y="962.527676272901"/>
    </contour>
  </outline>
</glyph>
<glyph name="w" format="2">
  <advance width="1228"/>
  <unicode hex="0077"/>
  <outline>
    <contour>
      <point x="1147.2651256188526" y="895.9635884449614" type="curve" smooth="yes"/>
      <point x="888.6663008620118" y="241.6728895028779" type="line"/>
      <point x="853.6206893936501" y="748.136652003723" type="line" smooth="yes"/>
      <point x="846.2083421446201" y="783.793604097071"/>
      <point x="808.1590494636627" y="822.2186970824375"/>
      <point x="753.2983147596874" y="824.0" type="curve" smooth="yes"/>
      <point x="699.490298227813" y="822.5546127562666"/>
      <point x="657.5089020880538" y="790.8057816595805"/>
      <point x="639.6673022277555" y="758.3382933268913" type="curve" smooth="yes"/>
      <point x="415.0483699380136" y="240.97495601375735" type="line"/>
      <point x="394.6361259385394" y="885.0290376333396" type="line" smooth="yes"/>
      <point x="389.81512591759" y="941.9492796220179"/>
      <point x="338.9236888466655" y="975.0"/>
      <point x="275.58911427812103" y="963.3931768357504" type="curve" smooth="yes"/>
      <point x="209.8487160456682" y="949.8946573404429"/>
      <point x="174.50551111236953" y="901.9040380406756"/>
      <point x="177.78706550073866" y="846.5908714087694" type="curve" smooth="yes"/>
      <point x="234.66751904971585" y="40.590871408769466" type="line" smooth="yes"/>
      <point x="239.73394526750684" y="-13.787633380815969"/>
      <point x="279.2778817462147" y="-54.829905317190565"/>
      <point x="339.1208064244138" y="-56.0" type="curve" smooth="yes"/>
      <point x="403.11772303534684" y="-55.272258082968285"/>
      <point x="455.1394303042655" y="-25.296472009852952"/>
      <point x="482.9184964384068" y="27.64745511125134" type="curve" smooth="yes"/>
      <point x="711.8614742931981" y="521.0" type="line"/>
      <point x="756.9752836698262" y="37.84397699421536" type="line" smooth="yes"/>
      <point x="767.2560904477973" y="-18.590320365147512"/>
      <point x="816.5899536267196" y="-55.15548606399042"/>
      <point x="881.1208064244138" y="-56.0" type="curve" smooth="yes"/>
      <point x="940.2423346938461" y="-55.01576560627985"/>
      <point x="982.7594282138157" y="-22.594590521732933"/>
      <point x="1005.8880637973185" y="29.735983379255842" type="curve" smooth="yes"/>
      <point x="1347.007610248341" y="835.7359833792558" type="line" smooth="yes"/>
      <point x="1369.4724383171995" y="890.0959619593243"/>
      <point x="1344.3918142957623" y="948.8121646430654"/>
      <point x="1280.8240995417377" y="963.3048689778889" type="curve" smooth="yes"/>
      <point x="1220.9236888466655" y="975.0"/>
      <point x="1170.497246083593" y="950.011828960174"/>
    </contour>
  </outline>
</glyph>
<glyph name="x" format="2">
  <advance width="1228"/>
  <unicode hex="0078"/>
  <outline>
    <contour>
      <point x="1141.1155078193833" y="979.7501550330294"/>
      <point x="1086.606208645433" y="974.431695236312"/>
      <point x="1042.6811990465521" y="933.4752681925249" type="curve" smooth="yes"/>
      <point x="670.8995086960554" y="574.9659435045834" type="line"/>
      <point x="620.1475441003678" y="542.864265445471" type="line"/>
      <point x="176.03951695433778" y="113.42351220452005" type="line" smooth="yes"/>
      <point x="131.23046560562986" y="66.09989021562507"/>
      <point x="143.9178730161471" y="-2.274537445506393"/>
      <point x="195.9646839942371" y="-30.49490568286529" type="curve" smooth="yes"/>
      <point x="248.81062235523834" y="-55.750155033029415"/>
      <point x="303.31992152918843" y="-50.43169523631199"/>
      <point x="347.36794757549455" y="-9.35605134728647" type="curve" smooth="yes"/>
      <point x="741.7280332454103" y="375.1426467267777" type="line"/>
      <point x="796.751814293872" y="410.00566127077263" type="line"/>
      <point x="1213.7832418383732" y="810.4767973102995" type="line" smooth="yes"/>
      <point x="1259.6956645689918" y="857.9001097843749"/>
      <point x="1245.7714135150184" y="926.5242074203421"/>
      <point x="1193.9614461803847" y="954.4949056828654" type="curve" smooth="yes"/>
    </contour>
    <contour>
      <point x="316.60231372317793" y="930.032876780191"/>
      <point x="284.9363500912064" y="868.5135924994056"/>
      <point x="316.23079708436904" y="815.7159388661029" type="curve" smooth="yes"/>
      <point x="592.2633582572054" y="414.92245147334233" type="line"/>
      <point x="634.9243777186834" y="380.1534417371227" type="line"/>
      <point x="893.4513654474495" y="-4.003271923952216" type="line" smooth="yes"/>
      <point x="926.3116999917786" y="-48.50604390458227"/>
      <point x="982.3122493672545" y="-55.95421712780546"/>
      <point x="1042.1662802634023" y="-31.347233753962158" type="curve" smooth="yes"/>
      <point x="1099.516302491965" y="-5.884956502807398"/>
      <point x="1129.989780083415" y="55.48640750059438"/>
      <point x="1099.8099594290488" y="108.1165448760486" type="curve" smooth="yes"/>
      <point x="806.935411141633" y="537.8582087990515" type="line"/>
      <point x="767.4537014845284" y="570.0296505609039" type="line"/>
      <point x="522.3387693563229" y="928.2034952737796" type="line" smooth="yes"/>
      <point x="489.614430182843" y="972.5060439045823"/>
      <point x="433.6138808073672" y="979.9542171278055"/>
      <point x="373.7598499112194" y="955.3472337539622" type="curve" smooth="yes"/>
    </contour>
  </outline>
</glyph>
<glyph name="z" format="2">
  <advance width="1228"/>
  <unicode hex="007A"/>
  <outline>
    <contour>
      <point x="423.9261301746217" y="958.0" type="line" smooth="yes"/>
      <point x="369.1374276234522" y="956.5604254020848"/>
      <point x="326.12329929285494" y="917.3339268238733"/>
      <point x="314.7471239611971" y="857.9040380406756" type="curve" smooth="yes"/>
      <point x="305.1534817758262" y="797.5018876889433"/>
      <point x="342.6977447461159" y="747.7734127740079"/>
      <point x="398.5350449526027" y="746.0" type="curve" smooth="yes"/>
      <point x="900.5509032726384" y="789.1605935448382" type="line"/>
      <point x="188.8432116007479" y="137.96464313661988" type="line" smooth="yes"/>
      <point x="172.32499354009659" y="121.77130668632739"/>
      <point x="160.72075247396884" y="96.5893434626698"/>
      <point x="156.50677108576056" y="73.90403804067563" type="curve" smooth="yes"/>
      <point x="147.3058969302536" y="15.006784355798057"/>
      <point x="186.2041297355238" y="-32.55826969851977"/>
      <point x="241.0" y="-34.0" type="curve" smooth="yes"/>
      <point x="987.0" y="-34.0" type="line" smooth="yes"/>
      <point x="1041.7887025511695" y="-32.56042540208479"/>
      <point x="1084.8028308817666" y="6.6660731761266945"/>
      <point x="1096.1790062134244" y="66.09596195932438" type="curve" smooth="yes"/>
      <point x="1105.7726483987954" y="126.49811231105664"/>
      <point x="1068.2283854285058" y="176.22658722599218"/>
      <point x="1012.391085222019" y="178.0" type="curve" smooth="yes"/>
      <point x="480.74167125823647" y="136.27260092673112" type="line"/>
      <point x="1190.9097984746027" y="785.0383222545954" type="line" smooth="yes"/>
      <point x="1205.444971064875" y="799.1503051472463"/>
      <point x="1219.393843961704" y="823.9690447365371"/>
      <point x="1224.419359088861" y="850.0959619593244" type="curve" smooth="yes"/>
      <point x="1233.620233244368" y="908.993215644202"/>
      <point x="1194.7220004390979" y="956.5582696985198"/>
      <point x="1139.9261301746217" y="958.0" type="curve" smooth="yes"/>
    </contour>
  </outline>
</glyph>
<glyph name="braceleft" format="2">
  <advance width="1228"/>
  <unicode hex="007B"/>
  <outline>
    <contour>
      <point x="640.2967560661333" y="962.67487050658" type="curve" smooth="yes"/>
      <point x="632.2540065963904" y="888.7246310725735" type="line" smooth="yes"/>
      <point x="616.1087685607696" y="730.2364319938134"/>
      <point x="539.9299913441296" y="645.1168031102351"/>
      <point x="348.088439174289" y="647.0" type="curve" smooth="yes"/>
      <point x="293.29973662311954" y="645.5604254020848"/>
      <point x="250.2856082925223" y="606.3339268238733"/>
      <point x="238.9094329608645" y="546.9040380406757" type="curve" smooth="yes"/>
      <point x="229.31579077549355" y="486.5018876889433"/>
      <point x="266.8600537457833" y="436.7734127740078"/>
      <point x="322.6973539522701" y="435.0" type="curve" smooth="yes"/>
      <point x="524.7909895956309" y="436.79672040738353"/>
      <point x="563.3610296435147" y="373.94624284042334"/>
      <point x="518.9220037561272" y="211.68372453529585" type="curve" smooth="yes"/>
      <point x="486.2441227241737" y="88.72276375443349" type="line" smooth="yes"/>
      <point x="411.03873509020275" y="-206.6956402943854"/>
      <point x="579.1706651029152" y="-365.4613362094346"/>
      <point x="868.2831154240812" y="-367.0" type="curve" smooth="yes"/>
      <point x="923.0718179752507" y="-365.5604254020848"/>
      <point x="966.0859463058479" y="-326.33392682387336"/>
      <point x="977.4621216375058" y="-266.90403804067563" type="curve" smooth="yes"/>
      <point x="987.0557638228767" y="-206.50188768894324"/>
      <point x="949.5115008525868" y="-156.77341277400782"/>
      <point x="893.6742006461001" y="-155.0" type="curve" smooth="yes"/>
      <point x="701.7680369855766" y="-156.5328709622815"/>
      <point x="657.3959672047133" y="-102.53189510693242"/>
      <point x="704.2654361312018" y="83.99145689645684" type="curve" smooth="yes"/>
      <point x="733.5908554672626" y="204.94971235602594" type="line" smooth="yes"/>
      <point x="773.9355297069145" y="374.85535811605007"/>
      <point x="713.9477292198412" y="508.39715063344386"/>
      <point x="531.4976180075787" y="567.8170907139946" type="curve"/>
      <point x="534.6925975619247" y="514.7597134733459" type="line"/>
      <point x="721.4898829611906" y="586.1860938809838"/>
      <point x="822.4364494228586" y="701.8705038326992"/>
      <point x="845.9883413333063" y="870.5100694404435" type="curve" smooth="yes"/>
      <point x="855.6747353976929" y="942.4419252268725" type="line" smooth="yes"/>
      <point x="880.2196008520015" y="1130.6503819774255"/>
      <point x="940.94352282634" y="1195.329267186698"/>
      <point x="1143.529532309995" y="1194.0" type="curve" smooth="yes"/>
      <point x="1198.3182348611645" y="1195.4395745979152"/>
      <point x="1241.3323631917617" y="1234.6660731761267"/>
      <point x="1252.7085385234195" y="1294.0959619593243" type="curve" smooth="yes"/>
      <point x="1262.3021807087905" y="1354.4981123110567"/>
      <point x="1224.7579177385007" y="1404.2265872259923"/>
      <point x="1168.920617532014" y="1406.0" type="curve" smooth="yes"/>
      <point x="880.6224409117738" y="1404.7038822089796"/>
      <point x="674.5118944568279" y="1255.7470144469705"/>
    </contour>
  </outline>
</glyph>
<glyph name="bar" format="2">
  <advance width="1228"/>
  <unicode hex="007C"/>
  <outline>
    <contour>
      <point x="739.8550937591349" y="1334.9040380406757" type="curve" smooth="yes"/>
      <point x="454.38171199213014" y="-284.09596195932437" type="line" smooth="yes"/>
      <point x="445.9805289448778" y="-339.91708680346187"/>
      <point x="486.68905331367034" y="-387.86413039197487"/>
      <point x="551.403921848495" y="-389.0" type="curve" smooth="yes"/>
      <point x="615.4167162094839" y="-388.0423232616671"/>
      <point x="660.541102676724" y="-350.427840773114"/>
      <point x="671.3486391969602" y="-295.90403804067563" type="curve" smooth="yes"/>
      <point x="956.8220209639651" y="1323.0959619593243" type="line" smooth="yes"/>
      <point x="965.2232040112173" y="1378.9170868034619"/>
      <point x="924.5146796424247" y="1426.8641303919749"/>
      <point x="859.7998111076001" y="1428.0" type="curve" smooth="yes"/>
      <point x="795.7870167466112" y="1427.042323261667"/>
      <point x="750.6626302793711" y="1389.427840773114"/>
    </contour>
  </outline>
</glyph>
<glyph name="asciitilde" format="2">
  <advance width="1228"/>
  <unicode hex="007E"/>
  <outline>
    <contour>
      <point x="230.42369119821376" y="589.0120272864906" type="curve" smooth="yes"/>
      <point x="205.06865704443015" y="552.3925839085593"/>
      <point x="212.38614831336218" y="496.65998336907995"/>
      <point x="246.4215403297598" y="465.2093882187279" type="curve" smooth="yes"/>
      <point x="284.1246741875911" y="435.271921435933"/>
      <point x="340.53972823152975" y="438.4107220458807"/>
      <point x="373.8297655536551" y="468.8181258500426" type="curve" smooth="yes"/>
      <point x="426.1664117878945" y="520.904978676022"/>
      <point x="469.11499795633756" y="544.0474493311261"/>
      <point x="519.7406678687843" y="543.0" type="curve" smooth="yes"/>
      <point x="622.7044437714922" y="549.5309315060906"/>
      <point x="704.9533786195644" y="399.9649832956051"/>
      <point x="885.6442747239315" y="395.0" type="curve" smooth="yes"/>
      <point x="1003.1148826362023" y="396.6524132283799"/>
      <point x="1121.6989918679997" y="472.8577578775519"/>
      <point x="1202.8209143464396" y="574.9879727135094" type="curve" smooth="yes"/>
      <point x="1228.1759485002233" y="611.6074160914408"/>
      <point x="1220.858457231291" y="667.3400166309201"/>
      <point x="1186.8230652148934" y="698.7906117812721" type="curve" smooth="yes"/>
      <point x="1149.1199313570623" y="728.728078564067"/>
      <point x="1092.7048773131235" y="725.5892779541193"/>
      <point x="1059.4148399909982" y="695.1818741499574" type="curve" smooth="yes"/>
      <point x="1007.0781937567588" y="643.095021323978"/>
      <point x="964.1296075883156" y="619.9525506688739"/>
      <point x="913.5039376758689" y="621.0" type="curve" smooth="yes"/>
      <point x="809.5401617731611" y="614.4690684939094"/>
      <point x="728.3444701655591" y="764.0025088382195"/>
      <point x="547.6003308207218" y="769.0" type="curve" smooth="yes"/>
      <point x="430.1297229084509" y="767.3475867716201"/>
      <point x="311.54561367665366" y="691.1422421224481"/>
    </contour>
  </outline>
</glyph>
<glyph name="cent" format="2">
  <advance width="1228"/>
  <unicode hex="00A2"/>
  <outline>
    <contour>
      <point x="760.3962813410407" y="1252.9040380406757" type="curve" smooth="yes"/>
      <point x="529.936917555077" y="-54.09596195932437" type="line" smooth="yes"/>
      <point x="521.6696352865384" y="-110.93662473458188"/>
      <point x="563.638021409367" y="-157.69735437154026"/>
      <point x="621.9591274114418" y="-159.0" type="curve" smooth="yes"/>
      <point x="679.4848097894751" y="-157.91371659337324"/>
      <point x="725.7271138473253" y="-121.1907549813908"/>
      <point x="736.9038447599072" y="-65.90403804067563" type="curve" smooth="yes"/>
      <point x="967.3632085458709" y="1241.0959619593243" type="line" smooth="yes"/>
      <point x="975.6304908144094" y="1297.936624734582"/>
      <point x="933.6621046915809" y="1344.6973543715403"/>
      <point x="875.340998689506" y="1346.0" type="curve" smooth="yes"/>
      <point x="817.8153163114728" y="1344.9137165933732"/>
      <point x="771.5730122536226" y="1308.190754981391"/>
    </contour>
    <component base="c" xOffset="24.685777299185098" yOffset="140"/>
  </outline>
</glyph>
<glyph name="sterling" format="2">
  <advance width="1228"/>
  <unicode hex="00A3"/>
  <outline>
    <contour>
      <point x="412.3895873438679" y="889.9040380406757" type="curve" smooth="yes"/>
      <point x="395.96531489767614" y="791.4593481374667"/>
      <point x="423.2971727774538" y="709.1594170507339"/>
      <point x="452.82041171621813" y="669.365803743384" type="curve"/>
      <point x="397.2598834990853" y="682.0" type="line" smooth="yes"/>
      <point x="342.4711809479158" y="680.5604254020848"/>
      <point x="299.45705261731854" y="641.3339268238733"/>
      <point x="288.0808772856608" y="581.9040380406757" type="curve" smooth="yes"/>
      <point x="278.4872351002898" y="521.5018876889433"/>
      <point x="316.0314980705796" y="471.7734127740078"/>
      <point x="371.86879827706633" y="470.0" type="curve" smooth="yes"/>
      <point x="506.8801751638416" y="470.3086195193498" type="line"/>
      <point x="478.1724156486952" y="485.3113358694458"/>
      <point x="477.2920869131273" y="469.3543917107632"/>
      <point x="473.9820428128519" y="450.90403804067563" type="curve" smooth="yes"/>
      <point x="457.3503008955789" y="353.0917157709029"/>
      <point x="410.07299140021286" y="277.3498427040008"/>
      <point x="275.3949075222362" y="163.9752706786887" type="curve" smooth="yes"/>
      <point x="255.6815956082433" y="146.84335853847517"/>
      <point x="241.64485297156233" y="123.19589319723045"/>
      <point x="237.26759956488908" y="100.90403804067562" type="curve" smooth="yes"/>
      <point x="229.4186474431217" y="50.76836109367832"/>
      <point x="250.9986016404907" y="-21.907242714456505"/>
      <point x="308.0" y="-34.0" type="curve" smooth="yes"/>
      <point x="915.0" y="-34.0" type="line" smooth="yes"/>
      <point x="969.7887025511694" y="-32.56042540208479"/>
      <point x="1012.8028308817668" y="6.666073176126652"/>
      <point x="1024.1790062134246" y="66.09596195932438" type="curve" smooth="yes"/>
      <point x="1033.7726483987956" y="126.49811231105669"/>
      <point x="996.2283854285057" y="176.22658722599218"/>
      <point x="940.391085222019" y="178.0" type="curve" smooth="yes"/>
      <point x="489.77057402201143" y="176.9512392399861" type="line"/>
      <point x="604.8093734885268" y="214.32608044122532"/>
      <point x="671.9664678304893" y="323.7605805310994"/>
      <point x="693.1252969983905" y="440.09596195932437" type="curve" smooth="yes"/>
      <point x="696.8956939937812" y="461.5935310391938"/>
      <point x="699.1495557342777" y="483.1568716894089"/>
      <point x="668.5874740248815" y="470.10027682877677" type="curve"/>
      <point x="903.8687982770664" y="470.0" type="line" smooth="yes"/>
      <point x="958.6575008282359" y="471.4395745979152"/>
      <point x="1001.6716291588331" y="510.6660731761267"/>
      <point x="1013.0478044904909" y="570.0959619593243" type="curve" smooth="yes"/>
      <point x="1022.6414466758619" y="630.4981123110567"/>
      <point x="985.097183705572" y="680.2265872259921"/>
      <point x="929.2598834990853" y="682.0" type="curve" smooth="yes"/>
      <point x="655.7973171943848" y="680.7770624652986" type="line"/>
      <point x="653.811379337725" y="745.3433510992207"/>
      <point x="618.8352077094448" y="805.7716614312857"/>
      <point x="633.3565145486981" y="878.0959619593243" type="curve" smooth="yes"/>
      <point x="646.7403090966855" y="965.2489771866416"/>
      <point x="712.7417075542825" y="1029.44440995605"/>
      <point x="814.0829265316813" y="1027.0" type="curve" smooth="yes"/>
      <point x="892.5078092131015" y="1027.460201746521"/>
      <point x="954.4379493103371" y="1005.0323320968521"/>
      <point x="1010.2219969926028" y="962.7563828529792" type="curve" smooth="yes"/>
      <point x="1045.4019885764174" y="938.7647513086907"/>
      <point x="1107.5842147388475" y="943.7780619635365"/>
      <point x="1150.6104826003998" y="1001.1176320170175" type="curve" smooth="yes"/>
      <point x="1191.6824942029414" y="1059.6045877979784"/>
      <point x="1181.2423104365228" y="1120.2893570587373"/>
      <point x="1142.4543101781367" y="1149.7711108708788" type="curve" smooth="yes"/>
      <point x="1061.8024926774494" y="1206.2910179336347"/>
      <point x="957.5782740522294" y="1242.5686057447901"/>
      <point x="841.1793196765342" y="1243.0" type="curve" smooth="yes"/>
      <point x="623.9355304207375" y="1240.7189158809003"/>
      <point x="449.15350537584925" y="1086.180286049732"/>
    </contour>
  </outline>
</glyph>
